{"glyphs":{"0":{"ha":860,"x_min":89,"x_max":931,"o":"m 456 1017 l 683 1017 q 883 940 825 1017 q 929 801 929 882 q 925 750 929 776 l 849 267 q 576 0 806 0 l 349 0 q 144 72 213 0 q 90 215 90 128 q 94 267 90 239 l 169 736 q 260 947 192 876 q 456 1017 329 1017 m 374 324 q 372 296 372 311 q 381 265 372 281 q 404 245 390 249 q 439 242 418 242 l 497 242 q 558 256 538 242 q 588 322 579 271 l 647 694 q 649 718 649 707 q 593 775 649 775 l 514 775 q 447 740 463 775 q 432 694 433 713 l 374 324 z "},"1":{"ha":526,"x_min":146,"x_max":624,"o":"m 314 761 q 188 731 269 731 q 175 731 181 731 l 146 733 l 172 904 q 357 1017 290 940 l 624 1017 l 463 0 l 193 0 l 314 761 z "},"2":{"ha":806,"x_min":42,"x_max":886,"o":"m 614 719 q 586 772 614 757 q 467 788 558 788 l 157 788 l 189 989 q 604 1031 386 1031 q 831 925 760 1031 q 885 739 885 846 q 853 583 885 643 q 796 489 821 524 q 722 409 771 454 q 651 344 674 364 q 575 285 628 325 q 518 242 522 246 l 810 242 l 771 0 l 42 0 l 79 233 q 408 470 215 315 q 611 693 600 625 q 614 719 614 707 z "},"3":{"ha":797,"x_min":36,"x_max":868,"o":"m 704 506 q 793 338 793 481 q 788 264 793 303 l 781 224 q 468 -10 744 -10 q 383 -10 415 -10 q 313 -9 351 -10 q 259 -8 274 -8 q 213 -5 244 -7 q 163 0 181 -3 q 119 7 146 3 q 36 29 81 14 l 69 233 l 372 233 q 486 244 460 233 q 519 300 513 254 l 521 314 q 485 376 528 367 q 452 381 465 381 q 404 385 439 382 l 179 397 l 215 617 l 443 628 q 560 646 546 632 q 585 699 581 667 q 584 747 590 732 q 557 769 578 763 q 467 778 526 778 l 146 778 l 178 981 q 569 1019 296 1019 q 640 1019 604 1019 q 819 938 756 1017 q 867 790 867 876 q 863 735 867 764 l 853 681 q 704 506 826 524 z "},"4":{"ha":882,"x_min":64,"x_max":935,"o":"m 64 311 l 468 1017 l 757 1017 l 447 438 l 582 438 l 613 624 l 667 732 l 899 732 l 851 438 l 935 438 l 903 231 l 813 190 l 783 3 l 514 3 l 543 190 l 92 190 l 64 311 z "},"5":{"ha":822,"x_min":64,"x_max":896,"o":"m 449 633 q 596 664 503 664 q 649 661 622 664 q 808 572 763 651 q 843 432 843 513 q 839 375 843 404 l 818 217 q 494 -6 782 -6 q 271 0 351 -6 q 64 28 190 6 l 99 243 l 465 243 q 543 269 528 243 q 558 317 554 289 l 565 360 q 567 388 567 372 q 557 418 567 403 q 510 433 547 433 l 449 433 q 378 371 388 433 l 119 371 l 253 1017 l 896 1017 l 857 775 l 476 775 l 449 633 z "},"6":{"ha":832,"x_min":114,"x_max":910,"o":"m 910 989 l 878 783 l 574 783 q 469 753 508 783 q 444 711 456 740 q 419 607 432 681 q 501 631 460 626 q 636 636 543 636 q 853 428 853 636 q 846 346 853 390 l 825 206 q 732 40 804 81 q 522 -1 660 -1 l 331 -1 q 219 25 264 -1 q 144 116 174 51 q 114 289 114 181 q 136 561 114 397 q 306 956 182 858 q 378 999 344 986 q 594 1028 456 1028 q 910 989 733 1028 m 388 408 q 379 317 379 351 q 386 269 379 283 q 472 240 403 240 l 503 240 q 552 253 538 240 q 572 304 567 267 l 578 332 q 583 371 583 357 q 581 392 583 385 q 536 408 572 408 l 388 408 z "},"7":{"ha":779,"x_min":146,"x_max":900,"o":"m 146 775 l 185 1017 l 853 1017 l 900 908 l 439 0 l 153 0 l 550 775 l 146 775 z "},"8":{"ha":856,"x_min":90,"x_max":931,"o":"m 238 485 q 176 551 193 508 q 158 625 158 593 q 168 721 158 657 l 182 811 q 297 992 204 951 q 386 1017 343 1011 q 492 1024 429 1024 l 708 1024 q 889 956 832 1024 q 929 821 929 904 q 924 754 929 790 l 914 693 q 876 610 908 653 q 783 560 844 568 q 845 510 826 551 q 864 444 864 468 q 857 335 864 419 l 840 229 q 761 50 819 107 q 695 16 738 28 q 624 2 653 4 q 544 0 596 0 l 329 0 q 92 207 92 0 q 97 276 92 239 l 108 350 q 238 485 128 467 m 374 292 q 372 265 372 281 q 428 228 372 228 l 500 228 q 557 243 542 228 q 576 292 572 258 l 585 347 q 586 372 586 358 q 578 399 586 385 q 533 413 571 413 l 458 413 q 402 396 418 413 q 382 347 386 379 l 374 292 m 646 768 q 590 796 646 796 l 518 796 q 465 784 482 796 q 442 728 449 772 l 436 686 q 435 658 435 674 q 444 634 435 643 q 492 625 454 625 l 564 625 q 620 638 607 625 q 639 686 633 651 l 644 728 l 646 768 z "},"9":{"ha":831,"x_min":85,"x_max":883,"o":"m 358 381 q 143 610 143 381 q 151 685 143 647 l 169 797 q 263 971 189 924 q 469 1018 336 1018 l 661 1018 q 807 963 754 1018 q 878 775 860 907 q 882 656 882 735 q 861 449 882 576 q 813 244 840 321 q 758 123 786 167 q 690 52 731 79 q 618 15 649 25 q 398 -11 535 -11 q 85 28 261 -11 l 117 233 l 421 233 q 540 286 513 233 q 562 338 556 314 q 576 410 568 361 q 494 385 536 390 q 358 381 451 381 m 418 685 q 413 644 413 658 q 415 625 413 631 q 458 608 422 608 l 607 608 q 615 697 615 663 q 607 747 615 732 q 521 776 590 776 l 492 776 q 442 763 457 776 q 422 713 428 750 l 418 685 z "},"\u0000":{"ha":1053,"x_min":139,"x_max":914,"o":"m 139 0 l 139 738 l 914 738 l 914 0 l 139 0 m 158 31 l 514 369 l 158 704 l 158 31 m 172 719 l 529 383 l 882 719 l 172 719 m 176 18 l 881 18 l 529 356 l 176 18 m 544 369 l 894 35 l 894 703 l 544 369 z "},"\r":{"ha":1389,"x_min":0,"x_max":0,"o":""}," ":{"ha":347,"x_min":0,"x_max":0,"o":""},"!":{"ha":385,"x_min":79,"x_max":479,"o":"m 144 229 l 304 229 q 332 204 332 229 q 331 194 332 200 l 304 32 q 268 0 300 0 l 108 0 q 79 32 75 0 l 106 194 q 144 229 110 229 m 131 272 l 224 1015 l 479 1015 l 333 272 l 131 272 z "},"\"":{"ha":690,"x_min":200,"x_max":786,"o":"m 200 738 l 213 924 l 228 1017 l 483 1017 l 468 924 l 425 738 l 200 738 m 500 738 l 515 924 l 531 1017 l 786 1017 l 771 924 l 728 738 l 500 738 z "},"#":{"ha":1040,"x_min":57,"x_max":1144,"o":"m 57 267 l 114 450 l 318 450 l 358 568 l 151 568 l 210 751 l 424 751 l 518 1017 l 701 1017 l 607 751 l 729 751 l 822 1017 l 1006 1017 l 913 751 l 1144 751 l 1089 568 l 856 568 l 815 449 l 1049 449 l 994 265 l 744 265 l 651 0 l 468 0 l 561 265 l 438 267 l 344 0 l 161 0 l 254 267 l 57 267 m 501 450 l 632 449 l 672 568 l 542 568 l 501 450 z "},"$":{"ha":786,"x_min":81,"x_max":863,"o":"m 429 231 q 494 244 474 231 q 521 288 515 257 l 524 310 q 525 332 525 319 q 460 371 525 371 l 376 371 q 197 443 249 371 q 144 588 146 515 q 144 625 144 608 q 150 701 144 672 l 161 786 q 278 978 183 929 q 486 1025 357 1019 l 504 1144 l 654 1144 l 636 1025 q 863 979 754 1019 l 829 769 q 591 783 704 783 q 456 774 478 783 q 426 722 433 764 l 424 707 q 422 681 422 696 q 433 653 422 667 q 497 640 444 640 l 586 640 q 711 604 661 640 q 778 517 761 568 q 806 388 806 439 q 799 311 806 336 l 792 265 q 631 15 761 67 q 553 -6 588 -1 q 472 -11 519 -10 l 454 -125 l 304 -125 l 322 -11 q 249 -8 275 -11 q 215 -5 222 -6 q 194 -1 207 -4 q 176 4 181 3 q 155 10 171 6 q 134 17 139 15 q 108 26 129 19 q 81 36 88 33 l 114 246 q 429 231 263 231 z "},"%":{"ha":1343,"x_min":135,"x_max":1371,"o":"m 386 1017 l 526 1017 q 663 961 624 1017 q 692 858 692 921 q 688 813 692 838 l 663 656 q 597 526 649 567 q 440 485 544 485 l 300 485 q 164 542 203 485 q 135 646 135 583 q 139 693 135 668 l 164 850 q 229 978 178 939 q 386 1017 281 1017 m 318 686 q 361 658 318 658 l 432 658 q 496 714 489 658 l 507 788 q 508 813 508 799 q 464 843 508 843 l 393 843 q 331 788 339 843 l 319 714 q 318 686 318 699 m 265 0 l 1057 1017 l 1229 1017 l 447 0 l 265 0 m 1064 536 l 1206 536 q 1342 479 1303 536 q 1371 375 1371 438 q 1367 328 1371 353 l 1344 171 q 1278 43 1331 82 q 1119 4 1225 4 l 978 4 q 815 153 815 4 q 819 206 815 178 l 843 363 q 908 494 857 453 q 1064 536 960 536 m 999 233 q 997 212 997 224 q 1003 189 997 200 q 1042 178 1010 178 l 1111 178 q 1175 233 1168 178 l 1186 307 q 1188 332 1188 318 q 1143 363 1188 363 l 1074 363 q 1010 307 1018 363 l 999 233 z "},"&":{"ha":988,"x_min":63,"x_max":978,"o":"m 64 272 q 207 507 64 401 l 328 597 l 283 676 q 253 790 253 735 q 319 950 253 879 q 432 1014 369 1003 q 594 1025 494 1025 q 850 986 693 1025 l 818 786 l 633 786 q 550 765 557 786 q 549 757 549 763 q 582 678 549 733 l 708 456 l 900 615 l 978 493 l 881 321 l 818 261 l 967 0 l 667 0 l 603 113 l 497 35 q 362 -11 435 -11 q 219 18 289 -11 q 107 124 150 47 q 64 272 64 200 m 326 269 q 375 233 349 233 q 428 254 401 233 l 488 301 l 426 403 l 360 357 q 319 294 319 324 q 326 269 319 282 z "},"'":{"ha":356,"x_min":175,"x_max":475,"o":"m 175 738 l 189 924 l 204 1017 l 475 1017 l 460 924 l 417 738 l 175 738 z "},"(":{"ha":572,"x_min":108,"x_max":747,"o":"m 548 803 q 526 762 548 803 q 460 601 504 721 q 399 372 417 482 q 382 202 382 261 q 385 76 382 143 q 408 -82 388 10 q 493 -339 446 -247 l 511 -375 l 274 -375 q 261 -360 269 -369 q 231 -316 253 -351 q 189 -239 208 -281 q 110 169 110 -72 q 200 678 110 443 q 299 878 247 803 q 399 1010 350 954 q 478 1089 447 1065 l 510 1111 l 747 1111 q 716 1072 736 1097 q 644 967 696 1047 q 548 803 592 886 z "},")":{"ha":574,"x_min":-31,"x_max":604,"o":"m 167 -82 q 188 -41 167 -82 q 254 124 210 0 q 315 356 299 247 q 332 522 332 465 q 329 644 332 578 q 306 804 326 711 q 222 1072 267 979 l 204 1111 l 442 1111 l 454 1094 q 564 850 517 1011 q 604 531 604 707 q 583 303 604 432 q 517 44 563 174 q 425 -159 472 -85 q 334 -285 378 -233 q 263 -356 290 -337 l 235 -375 l -31 -375 q 69 -244 14 -325 q 167 -82 124 -164 z "},"*":{"ha":579,"x_min":163,"x_max":672,"o":"m 163 786 l 178 883 l 375 910 l 361 779 l 163 786 m 197 581 l 261 772 l 383 739 l 285 551 l 197 581 m 344 638 l 433 747 l 571 624 l 501 546 l 344 638 m 376 1003 l 474 1033 l 531 858 l 401 811 l 376 1003 m 444 793 l 628 906 l 672 826 l 510 692 l 444 793 z "},"+":{"ha":633,"x_min":89,"x_max":700,"o":"m 89 388 l 122 601 l 303 601 l 332 783 l 546 783 l 517 601 l 700 601 l 667 388 l 483 388 l 454 206 l 240 206 l 269 388 l 89 388 z "},",":{"ha":353,"x_min":54,"x_max":321,"o":"m 101 0 q 71 26 71 0 q 72 35 71 31 l 97 193 q 138 231 103 231 l 292 231 q 321 203 321 231 q 319 193 321 199 l 286 -15 q 251 -92 278 -64 q 194 -128 225 -121 q 147 -135 163 -135 q 75 -128 100 -135 l 54 -122 l 68 -36 q 111 -22 103 -36 q 117 0 113 -18 l 101 0 z "},"-":{"ha":490,"x_min":85,"x_max":554,"o":"m 85 296 l 118 510 l 554 510 l 521 296 l 85 296 z "},".":{"ha":356,"x_min":71,"x_max":324,"o":"m 136 229 l 293 229 q 324 204 324 229 q 322 194 324 200 l 296 32 q 257 0 290 0 l 100 0 q 71 32 67 0 l 97 194 q 136 229 101 229 z "},"/":{"ha":699,"x_min":0,"x_max":851,"o":"m 0 -100 l 575 1069 l 851 1069 l 276 -100 l 0 -100 z "},":":{"ha":357,"x_min":71,"x_max":403,"o":"m 136 229 l 293 229 q 324 204 324 229 q 322 194 324 200 l 296 32 q 257 0 290 0 l 100 0 q 71 32 67 0 l 97 194 q 136 229 101 229 m 178 703 q 217 738 182 738 l 374 738 q 403 714 403 738 q 401 703 403 708 l 376 540 q 338 508 371 508 l 181 508 q 151 540 147 508 l 178 703 z "},";":{"ha":357,"x_min":54,"x_max":404,"o":"m 101 0 q 71 26 71 0 q 72 35 71 31 l 97 193 q 138 231 103 231 l 292 231 q 321 203 321 231 q 319 193 321 199 l 286 -15 q 251 -92 278 -64 q 194 -128 225 -121 q 147 -135 163 -135 q 75 -128 100 -135 l 54 -122 l 68 -36 q 111 -22 103 -36 q 117 0 113 -18 l 101 0 m 217 738 l 374 738 q 404 713 404 738 q 403 703 404 708 l 378 540 q 338 508 372 508 l 181 508 q 153 533 153 508 q 153 540 153 536 l 178 703 q 217 738 182 738 z "},"<":{"ha":599,"x_min":97,"x_max":685,"o":"m 97 369 l 135 606 l 685 786 l 647 550 l 381 483 l 625 417 l 588 181 l 97 369 z "},"=":{"ha":649,"x_min":63,"x_max":738,"o":"m 63 225 l 96 439 l 689 439 l 656 225 l 63 225 m 111 529 l 144 743 l 738 743 l 704 529 l 111 529 z "},">":{"ha":597,"x_min":67,"x_max":654,"o":"m 67 181 l 104 417 l 372 503 l 125 550 l 163 786 l 654 606 l 618 369 l 67 181 z "},"?":{"ha":757,"x_min":139,"x_max":847,"o":"m 568 715 q 460 783 568 783 l 139 783 l 171 985 q 513 1028 340 1028 q 569 1026 540 1028 q 789 933 718 1026 q 847 772 847 860 q 843 728 847 750 l 831 629 q 740 435 813 488 q 519 383 668 383 q 489 383 504 383 l 472 271 l 271 271 l 319 579 l 447 579 q 528 603 501 582 q 564 676 556 624 l 567 697 q 568 715 568 707 m 283 229 l 440 229 q 471 204 471 229 q 469 194 471 200 l 443 32 q 404 0 438 0 l 247 0 q 218 32 214 0 l 244 194 q 283 229 249 229 z "},"@":{"ha":1278,"x_min":47,"x_max":1319,"o":"m 568 1026 l 1061 1026 q 1318 751 1318 1026 q 1310 640 1318 701 l 1247 218 q 1165 53 1231 101 q 953 4 1100 4 l 781 4 l 747 74 q 594 -6 694 -6 q 403 108 461 -6 q 367 289 367 182 q 380 430 367 343 q 428 590 393 517 q 512 699 463 664 q 608 746 561 733 q 747 758 656 758 q 907 737 838 758 q 1031 663 976 715 l 965 204 q 1031 224 1015 204 q 1058 329 1046 244 l 1108 668 q 1114 737 1114 701 q 1097 793 1114 772 q 997 825 1074 825 l 522 825 q 394 775 428 825 q 356 668 365 735 l 258 54 q 256 8 256 36 q 272 -44 256 -21 q 381 -76 297 -76 l 917 -76 l 890 -239 q 485 -276 703 -276 l 363 -276 q 49 -6 49 -276 q 56 82 49 35 l 157 724 q 299 972 188 913 q 417 1015 356 1004 q 568 1026 479 1026 m 706 560 q 677 560 706 560 q 619 521 647 560 q 580 403 592 482 q 568 302 568 324 q 570 254 568 281 q 590 211 572 228 q 639 194 608 194 q 775 292 767 194 l 815 553 q 706 560 765 560 z "},"A":{"ha":988,"x_min":35,"x_max":979,"o":"m 35 0 l 514 1017 l 832 1017 l 979 0 l 703 0 l 674 178 l 413 178 l 333 0 l 35 0 m 510 407 l 656 407 l 624 679 l 510 407 z "},"B":{"ha":835,"x_min":63,"x_max":919,"o":"m 651 1017 q 871 933 807 1017 q 918 779 918 871 q 853 588 918 660 q 731 528 803 533 q 844 444 806 515 q 874 322 874 392 q 851 181 874 247 q 803 84 829 114 q 751 37 776 54 q 679 11 725 19 q 497 0 608 0 l 63 0 l 224 1017 l 651 1017 m 519 228 q 575 253 557 228 q 606 358 606 292 q 550 425 606 425 l 399 425 l 368 228 l 519 228 m 571 639 q 621 658 601 639 q 647 733 647 686 q 594 789 647 789 l 457 789 l 433 639 l 571 639 z "},"C":{"ha":786,"x_min":104,"x_max":914,"o":"m 556 1028 q 763 1017 700 1028 q 914 972 825 1007 l 881 763 q 850 767 864 765 l 815 772 q 644 786 718 786 l 561 786 q 499 776 513 786 q 470 753 486 767 q 447 721 454 740 q 428 672 439 701 q 393 519 410 624 q 376 362 376 415 q 386 286 376 308 q 514 233 410 233 q 760 242 658 233 l 799 246 l 765 36 q 626 0 694 8 q 492 -8 558 -8 q 392 -8 425 -8 q 106 358 106 -4 q 122 554 106 446 q 258 917 161 806 q 556 1028 354 1028 z "},"D":{"ha":897,"x_min":63,"x_max":953,"o":"m 663 1017 q 951 650 951 1017 q 933 442 951 567 q 882 226 915 318 q 795 85 849 135 q 680 18 742 36 q 525 0 618 0 l 63 0 l 224 1017 l 663 1017 m 513 228 q 611 291 578 228 q 668 506 644 354 q 685 633 685 594 q 653 772 685 744 q 588 789 632 789 l 457 789 l 368 228 l 513 228 z "},"E":{"ha":771,"x_min":85,"x_max":894,"o":"m 472 1017 q 894 994 735 1017 l 858 768 l 515 768 q 438 719 451 768 q 432 690 435 710 l 424 635 l 765 619 l 729 396 l 383 383 l 372 317 q 392 253 364 263 q 447 244 413 244 l 776 244 l 740 19 q 394 -3 597 1 l 324 -4 q 296 -4 318 -4 q 236 4 274 -4 q 85 188 85 38 q 89 240 85 213 l 176 794 q 292 981 199 936 q 472 1017 365 1017 z "},"F":{"ha":774,"x_min":56,"x_max":897,"o":"m 475 1017 q 897 994 738 1017 l 863 768 l 519 768 q 440 719 453 768 q 435 690 438 708 l 425 629 l 768 614 l 733 390 l 385 378 l 325 0 l 56 0 l 176 767 q 292 967 199 910 q 475 1017 374 1017 z "},"G":{"ha":858,"x_min":103,"x_max":963,"o":"m 259 919 q 283 948 259 919 q 376 1003 307 978 q 579 1028 446 1028 q 769 1020 713 1028 q 963 974 826 1013 l 929 769 q 909 773 928 769 q 858 781 890 776 q 788 789 826 785 q 592 800 683 800 q 464 742 501 800 q 399 511 426 685 q 378 356 378 388 q 378 303 378 324 q 392 269 379 283 q 426 248 406 256 q 486 240 447 240 q 552 256 525 240 q 588 289 579 272 l 596 304 l 613 408 l 544 408 l 571 575 q 819 610 642 610 q 914 606 864 610 l 817 0 l 626 0 l 561 68 q 490 14 524 28 q 353 -8 442 -8 q 206 36 265 -8 q 103 338 103 111 q 128 570 103 442 q 183 779 154 699 q 259 919 211 860 z "},"H":{"ha":883,"x_min":63,"x_max":999,"o":"m 63 0 l 224 1017 l 493 1017 l 429 613 l 665 613 l 729 1017 l 999 1017 l 838 0 l 568 0 l 626 371 l 390 371 l 332 0 l 63 0 z "},"I":{"ha":392,"x_min":63,"x_max":493,"o":"m 63 0 l 224 1017 l 493 1017 l 332 0 l 63 0 z "},"J":{"ha":492,"x_min":32,"x_max":607,"o":"m 32 35 l 65 249 q 217 299 193 249 q 238 383 228 322 l 338 1017 l 607 1017 l 482 229 q 375 25 458 74 q 205 -6 321 -6 q 32 35 89 -6 z "},"K":{"ha":917,"x_min":63,"x_max":1051,"o":"m 63 0 l 224 1017 l 479 1017 l 415 617 l 457 617 l 728 1017 l 1051 1017 l 692 485 l 890 0 l 588 0 l 449 389 l 381 389 l 319 0 l 63 0 z "},"L":{"ha":729,"x_min":90,"x_max":742,"o":"m 456 242 l 742 242 l 703 0 l 292 0 q 133 53 189 0 q 92 165 92 93 q 96 217 92 189 l 222 1017 l 492 1017 l 381 314 q 400 250 372 260 q 456 242 421 242 z "},"M":{"ha":1179,"x_min":43,"x_max":1240,"o":"m 43 0 l 313 1017 l 688 1017 l 683 446 l 858 1017 l 1240 1017 l 1189 0 l 924 0 l 951 554 l 776 0 l 461 0 l 460 554 l 315 0 l 43 0 z "},"N":{"ha":940,"x_min":63,"x_max":1056,"o":"m 63 0 l 224 1017 l 496 1017 l 704 490 l 786 1017 l 1056 1017 l 894 0 l 625 0 l 414 513 l 333 0 l 63 0 z "},"O":{"ha":925,"x_min":113,"x_max":990,"o":"m 446 1010 q 472 1015 446 1010 q 535 1022 499 1019 q 630 1024 571 1024 q 732 1018 689 1024 q 818 997 775 1013 q 892 954 861 981 q 989 665 989 869 q 973 474 989 576 q 934 299 957 372 q 886 176 911 226 q 824 92 861 126 q 752 39 786 58 q 667 10 718 19 q 500 -6 586 -6 q 369 0 414 -6 q 282 21 325 6 q 208 61 239 36 q 113 335 113 144 q 129 530 113 424 q 171 713 146 636 q 222 842 196 790 q 288 928 247 893 q 360 982 328 964 q 446 1010 393 1000 m 498 763 q 482 754 498 763 q 442 686 465 744 q 401 517 419 628 q 383 358 383 406 q 392 289 383 310 q 504 236 410 236 q 638 289 599 236 q 703 501 676 342 q 721 631 721 593 q 691 759 721 736 q 596 782 661 782 q 498 763 531 782 z "},"P":{"ha":833,"x_min":61,"x_max":917,"o":"m 647 1017 q 847 942 765 1017 q 917 744 917 881 q 878 525 917 628 q 835 441 857 474 q 781 387 814 408 q 722 356 747 365 q 608 340 686 340 q 466 354 536 340 q 389 372 396 368 l 331 0 l 61 0 l 222 1017 l 647 1017 m 549 572 q 638 683 619 572 q 640 719 640 703 q 583 788 640 788 l 456 788 l 421 572 l 549 572 z "},"Q":{"ha":925,"x_min":113,"x_max":990,"o":"m 485 1018 q 507 1020 485 1018 q 556 1023 529 1022 q 635 1024 583 1024 q 732 1017 688 1024 q 819 995 776 1011 q 892 953 861 979 q 989 660 989 865 q 973 467 989 569 q 934 293 957 365 q 886 172 911 221 q 823 89 861 122 q 752 38 785 56 q 667 10 719 19 q 506 -4 597 -3 q 369 1 414 -6 q 281 23 324 7 q 208 65 239 39 q 113 342 113 147 q 161 685 113 510 q 243 879 197 819 q 294 940 271 915 q 353 980 317 964 q 415 1005 390 996 q 485 1018 440 1014 m 498 763 q 482 754 498 763 q 442 686 465 744 q 401 517 419 628 q 383 358 383 406 q 392 289 383 310 q 504 236 410 236 q 638 289 599 236 q 703 501 676 342 q 721 631 721 593 q 691 759 721 736 q 596 782 661 782 q 498 763 531 782 m 531 -46 q 603 -108 528 -106 q 632 -108 614 -108 q 743 -94 672 -108 l 713 -289 q 644 -296 676 -296 q 566 -288 611 -296 q 473 -256 521 -281 q 405 -185 425 -231 q 385 -104 385 -139 q 389 -46 385 -69 l 531 -46 z "},"R":{"ha":832,"x_min":61,"x_max":917,"o":"m 649 1017 q 864 928 792 1017 q 917 751 917 863 q 878 536 917 636 q 839 458 858 485 q 792 414 819 432 q 710 385 754 390 l 851 0 l 544 0 l 440 374 l 390 379 l 331 0 l 61 0 l 222 1017 l 649 1017 m 544 582 q 611 606 594 582 q 634 669 628 629 q 640 731 640 710 q 578 788 640 788 l 457 788 l 424 582 l 544 582 z "},"S":{"ha":814,"x_min":89,"x_max":899,"o":"m 465 231 q 531 244 510 231 q 557 288 551 257 l 560 310 q 561 332 561 319 q 496 371 561 371 l 399 371 q 214 436 271 371 q 153 565 160 500 q 150 626 150 603 q 153 672 150 650 l 168 789 q 317 997 192 953 q 550 1026 396 1026 q 899 979 778 1026 l 865 769 q 547 783 740 783 q 464 774 486 783 q 435 722 442 764 l 432 707 q 431 681 431 696 q 442 653 431 667 q 506 640 453 640 l 608 640 q 734 610 683 640 q 803 535 785 579 q 836 392 836 458 q 831 346 836 368 l 828 258 q 800 131 825 183 q 743 51 775 78 q 660 9 711 24 q 573 -8 608 -6 q 427 -11 538 -11 q 249 -4 317 -11 q 89 36 182 3 l 122 246 q 465 231 271 231 z "},"T":{"ha":829,"x_min":150,"x_max":978,"o":"m 150 775 l 189 1017 l 978 1017 l 939 775 l 675 775 l 553 0 l 283 0 l 406 775 l 150 775 z "},"U":{"ha":906,"x_min":117,"x_max":1021,"o":"m 582 -7 l 539 -7 q 497 -7 519 -7 q 447 -7 474 -7 q 389 -5 419 -7 q 320 5 358 -3 q 255 28 282 13 q 200 67 228 43 q 128 214 150 106 q 118 290 118 257 q 119 363 118 324 q 133 486 119 401 l 219 1017 l 489 1017 l 399 444 q 386 324 386 358 q 500 235 386 235 q 574 248 544 235 q 619 294 603 261 q 660 444 646 346 l 750 1017 l 1021 1017 l 938 403 q 789 65 900 167 q 719 22 756 35 q 582 -7 642 -7 z "},"V":{"ha":971,"x_min":181,"x_max":1097,"o":"m 181 1017 l 464 1017 l 518 331 l 800 1017 l 1097 1017 l 632 0 l 307 0 l 181 1017 z "},"W":{"ha":1413,"x_min":181,"x_max":1542,"o":"m 181 1017 l 464 1017 l 521 344 l 758 1017 l 1042 1017 l 953 792 l 1014 344 l 1258 1017 l 1542 1017 l 1132 0 l 818 0 l 769 335 l 642 0 l 307 0 l 181 1017 z "},"X":{"ha":943,"x_min":39,"x_max":1085,"o":"m 39 0 l 408 532 l 196 1017 l 494 1017 l 596 735 l 786 1017 l 1085 1017 l 707 476 l 917 0 l 618 0 l 521 272 l 338 0 l 39 0 z "},"Y":{"ha":943,"x_min":181,"x_max":1069,"o":"m 181 1017 l 474 1017 l 540 567 l 765 1017 l 1069 1017 l 632 278 l 588 0 l 318 0 l 363 278 l 181 1017 z "},"Z":{"ha":767,"x_min":28,"x_max":901,"o":"m 28 0 l 67 242 l 540 775 l 150 775 l 189 1017 l 901 1017 l 863 775 l 415 242 l 779 242 l 740 0 l 28 0 z "},"[":{"ha":479,"x_min":61,"x_max":650,"o":"m 335 -92 q 404 -161 335 -161 l 453 -161 l 419 -375 l 286 -375 q 178 -353 224 -375 q 108 -294 132 -331 q 61 -132 61 -219 q 69 -26 61 -92 l 213 842 q 308 1032 235 978 q 539 1086 382 1086 l 650 1086 l 617 872 l 575 872 q 508 848 533 872 q 472 764 482 824 l 339 -53 q 335 -92 335 -75 z "},"\\":{"ha":690,"x_min":183,"x_max":661,"o":"m 183 1069 l 456 1069 l 661 -100 l 389 -100 l 183 1069 z "},"]":{"ha":471,"x_min":-31,"x_max":554,"o":"m 44 -161 q 113 -137 86 -161 q 149 -53 139 -112 l 278 764 q 281 797 281 782 q 208 872 281 872 l 167 872 l 201 1086 l 318 1086 q 511 997 456 1086 q 554 832 554 931 q 549 761 554 799 l 424 -129 q 340 -310 408 -244 q 108 -375 271 -375 l -31 -375 l 3 -161 l 44 -161 z "},"^":{"ha":525,"x_min":156,"x_max":603,"o":"m 156 738 l 325 932 l 507 932 l 603 738 l 449 738 l 406 808 l 339 738 l 156 738 z "},"_":{"ha":935,"x_min":40,"x_max":954,"o":"m 40 -1 l 74 213 l 954 213 l 921 -1 l 40 -1 z "},"`":{"ha":338,"x_min":163,"x_max":439,"o":"m 163 936 l 364 936 l 439 738 l 288 738 l 163 936 z "},"a":{"ha":758,"x_min":76,"x_max":819,"o":"m 469 751 q 819 665 729 751 l 722 3 l 510 3 l 468 72 q 274 -7 425 -7 q 110 114 167 -7 q 78 265 78 183 q 94 422 78 347 q 131 548 110 497 q 173 631 151 599 q 225 688 194 664 q 281 724 256 711 q 344 742 307 736 q 469 751 397 751 m 417 534 q 409 529 417 534 q 385 490 401 524 q 359 394 368 457 q 350 306 350 331 q 351 260 350 282 q 365 223 351 238 q 403 208 378 208 q 493 281 486 208 l 531 544 q 499 556 518 556 q 456 550 479 556 q 417 534 432 544 z "},"b":{"ha":776,"x_min":47,"x_max":815,"o":"m 618 749 q 814 515 814 749 q 798 319 814 426 q 757 147 782 211 q 693 50 732 83 q 610 4 654 17 q 503 -8 565 -8 q 406 10 442 -8 q 329 68 369 28 l 278 0 l 47 0 l 219 1090 l 489 1090 l 429 707 q 618 749 515 749 m 442 210 q 494 242 475 210 q 526 358 513 274 q 540 465 540 443 q 539 510 540 488 q 528 544 538 533 q 496 556 518 556 q 403 535 425 556 l 356 240 q 442 210 368 210 z "},"c":{"ha":679,"x_min":83,"x_max":750,"o":"m 399 751 q 750 701 624 751 l 725 543 q 560 551 643 551 q 458 548 478 551 q 419 526 439 544 q 388 472 399 508 q 360 342 365 400 q 354 271 354 283 q 358 242 354 258 q 366 216 361 226 q 388 200 371 206 q 464 193 408 193 q 656 201 576 193 l 682 204 l 657 46 q 511 3 583 13 q 374 -7 439 -7 q 281 -7 308 -7 q 117 100 171 -6 q 85 248 85 164 q 99 424 85 332 q 143 585 114 515 q 213 690 172 656 q 297 738 254 725 q 399 751 340 751 z "},"d":{"ha":763,"x_min":81,"x_max":903,"o":"m 396 749 q 572 707 500 749 l 633 1090 l 903 1090 l 731 0 l 500 0 l 469 68 q 375 10 417 29 q 276 -8 333 -8 q 108 111 156 -8 q 81 260 81 179 q 96 421 81 340 q 190 670 126 592 q 396 749 254 749 m 457 556 q 406 522 425 556 q 372 405 386 489 q 357 298 357 321 q 359 253 357 275 q 371 220 361 231 q 403 210 381 210 q 497 240 474 210 l 544 535 q 457 556 529 556 z "},"e":{"ha":735,"x_min":82,"x_max":789,"o":"m 479 751 q 788 544 788 751 q 758 393 788 456 q 683 303 728 331 q 506 247 597 247 l 489 247 q 356 267 389 253 q 354 247 354 256 q 375 206 354 218 q 502 193 396 193 q 738 219 608 193 l 704 31 q 403 -15 564 -15 q 289 -10 347 -15 q 110 119 158 1 q 82 269 82 186 q 99 442 82 353 q 207 684 132 618 q 479 751 282 750 m 376 439 q 422 432 399 432 q 459 435 444 432 q 489 451 474 438 q 511 508 511 471 q 464 551 511 551 q 402 523 419 551 q 376 439 385 494 z "},"f":{"ha":564,"x_min":101,"x_max":717,"o":"m 253 875 q 342 1044 272 996 q 534 1092 411 1092 q 717 1058 657 1092 l 692 904 l 590 906 q 585 906 588 906 q 533 888 544 906 q 516 838 521 869 q 511 806 511 807 q 508 792 508 799 l 500 738 l 636 738 l 607 551 l 471 551 l 383 0 l 114 0 l 201 551 l 101 551 l 128 714 l 231 738 l 253 875 z "},"g":{"ha":778,"x_min":7,"x_max":839,"o":"m 310 -165 q 449 -33 428 -165 l 464 61 q 321 8 415 8 q 117 117 168 8 q 86 267 86 182 q 100 435 86 351 q 213 687 129 619 q 425 754 296 754 q 671 740 554 754 q 839 704 788 726 l 715 -75 q 486 -371 675 -326 q 397 -382 440 -382 q 318 -378 353 -382 l 7 -344 l 35 -165 l 310 -165 m 400 515 q 383 467 388 488 q 367 383 378 446 q 356 289 356 321 q 358 244 356 257 q 416 203 367 203 q 490 229 465 203 l 544 568 l 479 568 q 400 515 422 568 z "},"h":{"ha":771,"x_min":47,"x_max":819,"o":"m 542 510 q 506 550 542 550 q 396 499 426 550 l 317 0 l 47 0 l 219 1086 l 488 1086 l 421 665 q 474 706 451 690 q 542 736 497 722 q 639 750 586 750 q 772 713 729 750 q 818 608 818 674 q 808 472 818 543 l 733 0 l 464 0 l 539 478 q 542 510 542 497 z "},"i":{"ha":350,"x_min":40,"x_max":471,"o":"m 40 0 l 157 738 l 426 738 l 310 0 l 40 0 m 236 1036 l 444 1036 q 471 1011 471 1036 q 469 1001 471 1007 l 444 839 q 408 807 440 807 l 200 807 q 172 832 172 807 q 172 839 172 835 l 197 1001 q 236 1036 201 1036 z "},"j":{"ha":368,"x_min":-8,"x_max":482,"o":"m -8 -375 l 168 738 l 438 738 l 319 -6 q 297 -133 308 -82 q 260 -255 286 -185 q 197 -375 235 -325 l -8 -375 m 246 1036 l 454 1036 q 482 1011 482 1036 q 481 1001 482 1007 l 454 839 q 418 807 450 807 l 210 807 q 181 839 176 807 l 207 1001 q 246 1036 211 1036 z "},"k":{"ha":783,"x_min":47,"x_max":885,"o":"m 47 0 l 219 1086 l 489 1086 l 394 494 q 603 738 543 558 l 885 738 q 788 520 846 596 q 658 400 731 444 l 840 0 l 549 0 l 419 311 l 367 310 l 317 0 l 47 0 z "},"l":{"ha":447,"x_min":78,"x_max":485,"o":"m 364 318 q 360 256 360 278 q 365 217 360 233 q 394 186 369 201 q 457 157 447 157 l 432 0 l 282 0 q 118 63 174 0 q 78 190 78 107 q 85 263 78 224 l 215 1088 l 485 1088 l 364 318 z "},"m":{"ha":1190,"x_min":47,"x_max":1239,"o":"m 542 510 q 506 550 542 550 q 396 499 426 550 l 317 0 l 47 0 l 164 738 l 389 738 l 422 665 q 482 709 463 696 q 544 736 501 722 q 639 750 586 750 q 806 665 772 750 q 879 706 851 692 q 958 735 907 721 q 1058 750 1008 750 q 1192 713 1149 750 q 1238 608 1238 674 q 1228 472 1238 543 l 1153 0 l 883 0 l 960 478 q 963 510 963 497 q 925 550 963 550 q 814 508 846 550 q 808 472 814 500 l 733 0 l 464 0 l 539 478 q 542 510 542 497 z "},"n":{"ha":771,"x_min":47,"x_max":819,"o":"m 542 510 q 506 550 542 550 q 396 499 426 550 l 317 0 l 47 0 l 164 738 l 389 738 l 422 665 q 478 708 457 693 q 543 736 500 722 q 639 750 586 750 q 772 713 729 750 q 818 608 818 674 q 808 472 818 543 l 733 0 l 464 0 l 539 478 q 542 510 542 497 z "},"o":{"ha":768,"x_min":83,"x_max":799,"o":"m 501 749 q 756 647 692 749 q 799 465 799 582 q 784 310 799 401 q 743 156 769 219 q 667 56 717 93 q 551 6 617 19 q 382 -7 486 -7 q 128 92 193 -7 q 83 271 83 157 q 98 417 83 326 q 141 576 113 507 q 221 684 169 646 q 335 735 272 722 q 501 749 399 749 m 470 549 q 443 549 470 549 q 401 523 415 549 q 369 392 386 497 q 351 258 351 288 q 353 221 351 229 q 415 193 361 193 q 483 217 469 193 q 515 345 497 240 q 533 477 533 450 q 532 514 533 504 q 470 549 525 549 z "},"p":{"ha":771,"x_min":-11,"x_max":804,"o":"m 158 696 q 335 732 215 718 q 580 746 456 746 q 764 639 704 746 q 804 460 804 569 q 793 331 804 400 q 687 60 763 133 q 450 -14 611 -14 q 324 40 356 -14 l 258 -375 l -11 -375 l 158 696 m 350 207 q 417 181 368 181 q 485 219 465 181 q 525 382 506 258 q 536 454 536 425 q 533 503 536 483 q 472 560 526 560 l 407 560 l 350 207 z "},"q":{"ha":769,"x_min":83,"x_max":835,"o":"m 97 414 q 211 681 128 610 q 424 751 294 751 q 668 738 553 751 q 835 701 783 724 l 665 -375 l 396 -375 l 461 40 q 318 -14 411 -14 q 114 94 165 -14 q 83 246 83 161 q 97 414 83 331 m 382 458 q 378 438 382 458 q 363 358 374 418 q 353 267 353 299 q 356 222 353 235 q 413 181 364 181 q 488 207 463 181 l 543 565 l 478 565 q 408 525 435 565 q 382 458 390 499 z "},"r":{"ha":569,"x_min":47,"x_max":658,"o":"m 418 644 q 493 715 444 685 q 590 744 542 744 q 658 738 638 744 l 618 479 l 508 479 q 397 444 419 479 q 379 396 385 425 l 317 0 l 47 0 l 164 738 l 403 738 l 418 644 z "},"s":{"ha":708,"x_min":68,"x_max":750,"o":"m 414 203 q 444 226 440 203 q 422 258 451 258 l 290 258 q 139 325 192 258 q 100 447 100 374 q 104 497 100 471 l 115 561 q 340 744 144 744 q 667 733 601 744 q 750 694 733 721 l 725 536 l 415 536 q 389 531 394 536 q 381 510 383 525 q 379 490 378 494 q 386 483 381 485 q 407 481 394 481 l 546 481 q 696 414 654 481 q 726 301 726 364 q 722 253 726 278 l 710 171 q 496 -7 682 -7 q 419 -7 479 -7 q 314 -6 358 -7 q 208 -1 269 -6 q 68 44 97 6 l 93 203 l 414 203 z "},"t":{"ha":521,"x_min":89,"x_max":615,"o":"m 425 319 q 421 254 421 278 q 426 215 421 231 q 454 185 431 199 q 518 156 508 156 l 493 -1 l 326 -1 q 181 64 233 -1 q 142 193 142 110 q 147 264 142 226 l 193 553 l 89 553 l 110 686 l 222 739 l 294 944 l 525 944 l 492 739 l 615 739 l 586 553 l 463 553 l 425 319 z "},"u":{"ha":769,"x_min":69,"x_max":842,"o":"m 346 228 q 383 188 346 188 q 493 239 463 188 l 572 738 l 842 738 l 724 0 l 499 0 l 467 72 q 373 7 418 26 q 244 -12 328 -12 q 117 25 160 -12 q 71 129 71 64 q 81 265 71 194 l 156 738 l 425 738 l 349 260 q 346 228 346 240 z "},"v":{"ha":765,"x_min":104,"x_max":840,"o":"m 840 690 q 771 451 840 585 l 543 0 l 218 0 l 104 738 l 390 738 l 418 290 l 526 549 q 578 740 571 639 l 836 740 q 840 690 840 717 z "},"w":{"ha":1185,"x_min":104,"x_max":1261,"o":"m 839 694 q 808 536 839 622 l 800 514 l 839 290 l 947 549 q 999 740 992 639 l 1257 740 q 1261 690 1261 717 q 1192 451 1261 585 l 964 0 l 656 0 l 624 197 l 543 0 l 218 0 l 104 738 l 390 738 l 418 290 l 526 549 q 578 740 571 639 l 836 740 q 839 694 839 718 z "},"x":{"ha":851,"x_min":19,"x_max":949,"o":"m 19 0 l 322 389 l 136 738 l 458 738 l 514 568 l 626 738 l 949 738 l 642 338 l 821 0 l 510 0 l 451 160 l 342 0 l 19 0 z "},"y":{"ha":799,"x_min":106,"x_max":867,"o":"m 865 682 q 811 450 865 581 l 631 0 q 138 -419 468 -381 q 121 -422 126 -421 l 121 -233 q 272 -135 217 -189 q 367 0 326 -82 q 139 217 153 0 l 106 738 l 385 738 l 396 271 q 447 217 397 219 l 567 547 q 603 739 594 624 l 861 739 q 865 682 865 711 z "},"z":{"ha":678,"x_min":44,"x_max":774,"o":"m 44 1 l 78 213 l 401 524 l 107 524 l 140 738 l 774 738 l 740 524 l 439 215 l 690 215 l 657 1 l 44 1 z "},"{":{"ha":446,"x_min":72,"x_max":615,"o":"m 418 263 q 417 238 418 250 l 372 -39 q 363 -107 363 -85 q 365 -142 363 -129 q 417 -175 372 -175 l 385 -375 q 140 -303 208 -375 q 89 -157 89 -249 q 94 -94 89 -128 l 143 211 q 144 235 144 219 q 130 268 144 251 q 82 285 115 285 q 72 285 78 285 l 103 475 q 197 549 186 482 l 249 869 q 353 1039 268 992 q 615 1086 439 1086 l 582 872 q 524 843 539 872 q 493 717 508 814 l 464 528 q 409 420 451 454 q 294 381 367 386 q 418 263 418 354 z "},"|":{"ha":347,"x_min":50,"x_max":449,"o":"m 50 -100 l 235 1069 l 449 1069 l 264 -100 l 50 -100 z "},"}":{"ha":447,"x_min":-31,"x_max":521,"o":"m 172 489 q 176 528 172 507 l 206 717 q 217 808 217 783 q 215 842 217 833 q 167 872 208 872 l 201 1086 q 431 1003 364 1086 q 481 849 481 940 q 475 788 481 819 l 449 549 q 449 539 449 543 q 521 475 449 482 l 490 285 q 481 285 485 285 q 397 211 410 285 l 336 -150 q 235 -330 313 -285 q -31 -375 157 -375 l 1 -175 q 60 -146 46 -175 q 88 -39 75 -117 l 132 238 q 299 381 150 351 q 200 415 228 386 q 172 489 172 444 z "},"~":{"ha":560,"x_min":169,"x_max":654,"o":"m 357 933 q 429 909 389 933 q 496 885 469 885 q 506 885 500 885 q 635 940 572 885 l 654 838 q 482 738 572 738 q 403 762 451 738 q 329 786 356 786 q 192 738 263 786 l 169 831 q 357 933 258 933 z "},"¡":{"ha":390,"x_min":6,"x_max":403,"o":"m 6 -375 l 151 368 l 356 368 l 264 -375 l 6 -375 m 342 411 l 181 411 q 151 439 151 411 q 153 449 151 443 l 178 608 q 217 640 182 638 l 375 640 q 396 628 388 639 q 403 604 404 618 l 378 449 q 342 411 372 411 z "},"¢":{"ha":671,"x_min":76,"x_max":742,"o":"m 717 536 q 558 544 635 544 q 469 544 481 544 q 437 538 457 543 q 409 523 417 533 q 389 493 401 513 q 347 294 363 447 q 346 271 346 283 q 349 242 346 258 q 358 216 353 226 q 379 200 363 206 q 456 193 400 193 q 647 201 568 193 l 674 204 l 649 46 q 415 -8 563 -8 l 396 -132 l 246 -132 l 267 -7 q 108 101 160 -4 q 76 250 76 167 q 91 424 76 333 q 134 584 106 515 q 204 687 163 653 q 288 733 246 721 q 390 744 331 744 l 413 881 l 563 881 l 540 742 q 742 694 656 732 l 717 536 z "},"£":{"ha":794,"x_min":39,"x_max":913,"o":"m 869 1000 l 913 994 l 879 776 l 624 776 q 535 759 560 776 q 501 676 511 742 l 488 586 l 735 563 l 713 417 l 461 417 l 433 242 l 793 242 l 754 0 l 39 0 l 72 207 l 164 242 l 192 417 l 106 417 l 126 549 l 218 586 l 235 688 q 317 914 261 851 q 378 970 347 949 q 461 1001 408 992 q 644 1017 544 1017 q 869 1000 743 1017 z "},"¤":{"ha":606,"x_min":85,"x_max":664,"o":"m 596 464 q 531 300 596 374 l 585 240 l 499 156 l 432 229 q 332 210 386 210 q 229 243 278 210 l 154 175 l 85 253 l 165 324 q 153 413 153 361 q 194 529 153 465 l 133 596 l 222 678 l 281 613 q 405 650 342 650 q 517 617 468 650 l 590 683 l 664 610 l 582 538 q 596 464 596 503 m 443 495 q 433 507 443 495 q 388 518 424 518 q 318 488 351 518 q 285 404 285 458 q 304 365 285 388 q 360 342 324 342 q 425 367 396 342 q 463 446 463 400 q 443 495 463 472 z "},"¥":{"ha":919,"x_min":175,"x_max":1064,"o":"m 181 178 l 203 315 l 363 315 l 368 350 l 208 350 l 231 488 l 304 488 l 175 1017 l 468 1017 l 531 567 l 743 1017 l 1064 1017 l 749 488 l 824 488 l 801 350 l 638 350 l 632 315 l 796 315 l 774 178 l 610 178 l 582 0 l 313 0 l 340 178 l 181 178 z "},"¦":{"ha":347,"x_min":50,"x_max":449,"o":"m 50 -100 l 122 356 l 336 356 l 264 -100 l 50 -100 m 160 596 l 235 1069 l 449 1069 l 374 596 l 160 596 z "},"§":{"ha":738,"x_min":96,"x_max":813,"o":"m 667 438 q 743 296 743 424 q 740 254 743 275 l 732 194 q 639 22 713 65 q 503 -11 581 -11 q 96 15 178 -11 l 125 203 l 422 203 q 453 209 444 203 q 465 232 463 215 l 468 249 q 463 271 471 264 q 433 278 454 278 l 322 278 q 163 323 214 278 q 111 438 111 368 q 114 476 111 456 l 117 493 q 181 619 131 585 q 249 650 207 638 q 169 794 169 692 q 174 847 169 819 l 178 889 q 422 1089 203 1089 q 813 1063 715 1089 l 783 875 l 486 875 q 444 842 449 875 q 476 799 438 799 l 583 799 q 800 647 800 799 q 797 611 800 631 l 794 594 q 667 438 775 472 m 394 524 q 393 504 393 515 q 438 478 393 478 l 451 478 q 495 487 483 478 q 511 525 507 496 l 515 550 q 517 569 517 558 q 510 588 517 579 q 469 597 504 597 l 456 597 q 404 574 413 597 q 399 547 401 565 l 394 524 z "},"¨":{"ha":613,"x_min":165,"x_max":704,"o":"m 200 869 q 217 884 200 869 q 272 899 235 899 q 330 875 310 899 q 350 833 350 851 q 315 747 350 778 q 243 717 281 717 q 185 741 206 717 q 165 783 165 765 q 200 869 165 840 m 554 869 q 572 884 554 869 q 626 899 589 899 q 684 875 664 899 q 704 833 704 851 q 669 747 704 778 q 597 717 635 717 q 540 740 560 717 q 519 782 519 764 q 554 869 519 840 z "},"©":{"ha":1099,"x_min":108,"x_max":1154,"o":"m 585 1017 l 863 1017 q 1154 660 1154 1017 q 1138 469 1154 575 q 988 107 1097 214 q 708 0 878 0 l 431 0 q 161 149 238 0 q 110 388 110 247 q 125 553 110 458 q 169 729 140 649 q 250 878 197 810 q 585 1017 356 1017 m 269 383 q 449 144 269 144 l 713 144 q 881 228 814 144 q 993 614 965 333 q 996 665 996 640 q 994 725 996 689 q 977 794 992 761 q 928 849 963 826 q 842 872 894 872 l 564 872 q 326 693 397 872 q 283 530 297 619 q 269 383 269 440 m 533 446 q 621 349 533 349 q 828 371 714 349 l 808 243 q 640 206 742 210 q 544 204 607 204 q 403 282 451 204 q 371 401 371 332 q 381 531 371 471 q 466 749 406 689 q 628 810 526 810 q 883 776 800 810 l 864 649 q 661 665 749 665 q 578 633 604 665 q 538 503 553 600 q 533 446 533 471 z "},"ª":{"ha":500,"x_min":79,"x_max":617,"o":"m 79 358 l 96 467 l 561 467 l 544 358 l 79 358 m 378 1019 q 617 963 558 1019 l 551 514 l 410 514 l 382 572 q 325 523 367 539 q 239 507 283 507 q 128 592 167 507 q 106 694 106 639 q 119 810 106 750 q 155 911 132 869 q 201 974 178 953 q 259 1006 224 994 q 317 1018 294 1017 q 378 1019 339 1019 m 286 721 q 324 668 286 668 q 376 680 354 668 q 399 711 397 692 l 424 878 q 395 886 413 886 q 357 881 378 886 q 319 858 336 876 q 296 788 303 839 q 286 721 286 751 z "},"«":{"ha":828,"x_min":117,"x_max":889,"o":"m 117 492 l 447 774 l 561 642 l 371 478 l 515 311 l 364 203 l 117 492 m 444 492 l 775 774 l 889 642 l 699 478 l 843 311 l 692 203 l 444 492 z "},"¬":{"ha":647,"x_min":76,"x_max":701,"o":"m 701 514 l 654 221 l 454 221 l 469 314 l 76 314 l 108 514 l 701 514 z "},"­":{"ha":490,"x_min":74,"x_max":543,"o":"m 74 296 l 107 510 l 543 510 l 510 296 l 74 296 z "},"®":{"ha":1099,"x_min":108,"x_max":1154,"o":"m 585 1017 l 863 1017 q 1154 660 1154 1017 q 1138 469 1154 575 q 988 107 1097 214 q 708 0 878 0 l 431 0 q 161 149 238 0 q 110 388 110 247 q 125 553 110 458 q 169 729 140 649 q 250 878 197 810 q 585 1017 356 1017 m 269 383 q 449 144 269 144 l 713 144 q 881 228 814 144 q 993 614 965 333 q 996 665 996 640 q 994 725 996 689 q 977 794 992 761 q 928 849 963 826 q 842 872 894 872 l 564 872 q 326 693 397 872 q 283 530 297 619 q 269 383 269 440 m 714 806 q 874 664 874 806 q 869 614 874 640 q 829 491 857 533 q 751 432 801 449 l 833 213 l 665 213 l 592 421 l 554 438 l 518 213 l 360 213 l 454 806 l 714 806 m 626 554 q 692 563 679 554 q 708 597 704 572 q 713 635 713 622 q 702 654 713 647 q 643 661 692 661 l 589 661 l 572 554 l 626 554 z "},"¯":{"ha":483,"x_min":156,"x_max":582,"o":"m 156 738 l 176 867 l 582 867 l 561 738 l 156 738 z "},"°":{"ha":356,"x_min":174,"x_max":458,"o":"m 222 973 q 245 994 222 973 q 328 1015 269 1015 q 422 978 386 1015 q 458 892 458 942 q 412 784 458 825 q 306 743 365 743 q 210 779 246 743 q 174 864 174 815 q 222 973 174 931 m 354 915 q 349 921 354 915 q 322 928 343 928 q 284 913 301 928 q 267 876 267 897 q 279 842 267 856 q 313 829 292 829 q 347 843 333 829 q 365 881 365 860 q 354 915 365 901 z "},"±":{"ha":667,"x_min":57,"x_max":740,"o":"m 57 79 l 90 293 l 668 293 l 635 79 l 57 79 m 129 524 l 163 738 l 343 738 l 372 919 l 586 919 l 557 738 l 740 738 l 707 524 l 524 524 l 494 342 l 281 342 l 310 524 l 129 524 z "},"²":{"ha":568,"x_min":85,"x_max":672,"o":"m 672 989 q 461 675 672 821 l 624 675 l 594 493 l 85 493 l 113 668 q 328 808 200 715 q 463 942 456 901 q 464 956 464 949 q 444 988 464 979 q 364 997 425 997 l 158 997 l 183 1149 q 472 1179 322 1179 q 632 1111 581 1179 q 672 989 672 1060 z "},"³":{"ha":569,"x_min":88,"x_max":664,"o":"m 315 668 q 391 674 374 668 q 411 701 408 679 q 400 735 417 729 q 332 743 383 740 l 182 749 l 207 914 l 361 919 q 442 930 432 922 q 453 951 451 938 l 453 957 q 438 985 457 979 q 372 990 418 990 l 157 990 l 181 1142 q 447 1174 268 1174 q 504 1172 475 1174 q 624 1124 585 1171 q 663 1021 663 1078 q 660 983 663 1003 l 654 947 q 546 831 638 843 q 615 721 615 813 q 611 669 615 697 l 606 642 q 389 486 581 486 q 302 486 339 486 q 257 487 265 486 q 227 489 249 488 q 195 492 206 490 q 167 495 185 493 q 139 500 150 497 q 88 515 111 507 l 113 668 l 315 668 z "},"´":{"ha":339,"x_min":132,"x_max":472,"o":"m 132 738 l 271 936 l 472 936 l 283 738 l 132 738 z "},"µ":{"ha":810,"x_min":11,"x_max":874,"o":"m 378 228 q 415 188 378 188 q 525 239 494 188 l 604 738 l 874 738 l 757 0 l 532 0 l 499 72 q 396 10 424 22 q 339 -8 368 -3 l 281 -375 l 11 -375 l 188 738 l 457 738 l 381 260 q 378 228 378 240 z "},"¶":{"ha":796,"x_min":136,"x_max":942,"o":"m 403 517 q 325 493 365 493 q 171 561 215 493 q 138 681 138 614 q 140 724 138 701 l 160 853 q 237 981 175 946 q 407 1017 299 1017 l 942 1017 l 914 842 l 860 842 l 726 0 l 554 0 l 689 844 l 628 844 l 435 -375 l 263 -375 l 403 517 m 317 721 q 315 694 315 708 q 324 673 315 681 q 365 665 332 665 l 426 665 l 456 844 l 394 844 q 343 833 354 844 q 325 775 332 821 l 317 721 z "},"·":{"ha":356,"x_min":138,"x_max":390,"o":"m 203 653 l 360 653 q 390 628 390 653 q 389 618 390 624 l 363 456 q 324 424 357 424 l 167 424 q 138 456 133 424 l 164 618 q 203 653 168 653 z "},"¸":{"ha":331,"x_min":0,"x_max":285,"o":"m 85 -254 l 0 -254 l 18 -144 l 72 -124 q 109 -101 103 -111 q 122 -51 115 -92 l 285 -51 q 224 -207 268 -160 q 85 -254 179 -254 z "},"¹":{"ha":392,"x_min":146,"x_max":504,"o":"m 272 972 q 185 951 247 951 q 169 953 176 951 l 146 954 l 167 1093 q 304 1169 260 1118 l 504 1169 l 397 493 l 194 493 l 272 972 z "},"º":{"ha":533,"x_min":100,"x_max":639,"o":"m 100 358 l 117 467 l 582 467 l 565 358 l 100 358 m 154 785 q 238 972 176 926 q 431 1018 300 1018 q 608 951 561 1018 q 639 828 639 907 q 631 738 639 788 q 551 562 610 606 q 359 518 492 518 q 181 583 226 518 q 147 708 147 629 q 154 785 147 743 m 350 817 q 349 814 350 817 q 346 792 349 811 q 339 748 343 774 q 335 706 335 722 q 336 683 335 690 q 379 668 343 668 q 424 678 415 668 q 443 763 432 688 q 454 831 454 817 q 453 850 454 846 q 410 868 450 868 q 390 867 397 868 q 376 865 382 865 q 365 858 369 864 q 358 849 361 853 q 353 835 356 846 q 350 817 351 824 z "},"»":{"ha":826,"x_min":92,"x_max":865,"o":"m 92 339 l 286 511 l 156 656 l 297 774 l 538 492 l 213 203 l 92 339 m 419 339 l 614 511 l 482 656 l 624 774 l 865 492 l 540 203 l 419 339 z "},"¼":{"ha":1418,"x_min":146,"x_max":1449,"o":"m 272 833 q 185 813 247 813 q 169 814 176 813 l 146 815 l 167 954 q 304 1031 260 979 l 504 1031 l 397 354 l 194 354 l 272 833 m 289 0 l 967 1069 l 1163 1069 l 485 0 l 289 0 m 829 200 l 1100 675 l 1313 675 l 1106 296 l 1199 296 l 1218 417 l 1258 488 l 1424 488 l 1393 296 l 1449 296 l 1424 140 l 1360 111 l 1347 1 l 1153 1 l 1169 110 l 861 110 l 829 200 z "},"½":{"ha":1444,"x_min":146,"x_max":1493,"o":"m 272 833 q 185 813 247 813 q 169 814 176 813 l 146 815 l 167 954 q 304 1031 260 979 l 504 1031 l 397 354 l 194 354 l 272 833 m 288 0 l 965 1069 l 1161 1069 l 483 0 l 288 0 m 1493 494 q 1282 181 1493 326 l 1444 181 l 1415 -1 l 906 -1 l 933 174 q 1149 314 1021 221 q 1283 447 1276 407 q 1285 469 1285 454 q 1266 494 1285 485 q 1186 503 1247 503 l 981 503 l 1004 654 q 1293 685 1143 685 q 1453 617 1401 685 q 1493 494 1493 565 z "},"¾":{"ha":1569,"x_min":88,"x_max":1576,"o":"m 315 529 q 391 535 374 529 q 411 563 408 540 q 400 596 417 590 q 332 604 383 601 l 182 610 l 207 775 l 361 781 q 442 791 432 783 q 453 813 451 799 l 453 818 q 438 846 457 840 q 372 851 418 851 l 157 851 l 181 1003 q 447 1035 268 1035 q 504 1033 475 1035 q 624 985 585 1032 q 663 882 663 939 q 660 844 663 864 l 654 808 q 546 692 638 704 q 615 582 615 674 q 611 531 615 558 l 606 503 q 389 347 581 347 q 302 347 339 347 q 257 348 265 347 q 227 350 249 349 q 195 353 206 351 q 167 356 185 354 q 139 361 150 358 q 88 376 111 368 l 113 529 l 315 529 m 431 0 l 1108 1069 l 1304 1069 l 626 0 l 431 0 m 957 200 l 1229 675 l 1442 675 l 1233 296 l 1326 296 l 1346 417 l 1386 488 l 1551 488 l 1521 296 l 1576 296 l 1553 140 l 1488 111 l 1475 1 l 1281 1 l 1297 110 l 989 110 l 957 200 z "},"¿":{"ha":753,"x_min":11,"x_max":719,"o":"m 289 -58 q 399 -128 289 -128 l 719 -128 l 688 -329 q 346 -372 518 -372 q 289 -371 318 -372 q 121 -319 189 -371 q 32 -209 53 -268 q 11 -114 11 -150 q 15 -56 11 -78 l 26 15 q 121 216 49 160 q 340 272 193 272 q 368 272 354 272 l 386 385 l 588 385 l 539 76 l 411 76 q 330 53 357 74 q 294 -21 303 32 l 290 -42 q 289 -58 289 -51 m 453 656 l 610 656 q 638 631 638 656 q 638 624 638 628 l 613 461 q 574 426 608 426 l 417 426 q 386 451 386 426 q 388 461 386 456 l 413 624 q 453 656 418 656 z "},"À":{"ha":988,"x_min":35,"x_max":979,"o":"m 486 1306 l 688 1306 l 763 1107 l 611 1107 l 486 1306 m 35 0 l 514 1017 l 832 1017 l 979 0 l 703 0 l 674 178 l 413 178 l 333 0 l 35 0 m 510 407 l 656 407 l 624 679 l 510 407 z "},"Á":{"ha":988,"x_min":35,"x_max":979,"o":"m 611 1107 l 750 1306 l 951 1306 l 763 1107 l 611 1107 m 35 0 l 514 1017 l 832 1017 l 979 0 l 703 0 l 674 178 l 413 178 l 333 0 l 35 0 m 510 407 l 656 407 l 624 679 l 510 407 z "},"Â":{"ha":988,"x_min":35,"x_max":979,"o":"m 464 1107 l 633 1301 l 815 1301 l 911 1107 l 757 1107 l 714 1178 l 633 1107 l 464 1107 m 35 0 l 514 1017 l 832 1017 l 979 0 l 703 0 l 674 178 l 413 178 l 333 0 l 35 0 m 510 407 l 656 407 l 624 679 l 510 407 z "},"Ã":{"ha":988,"x_min":35,"x_max":979,"o":"m 649 1303 q 720 1278 679 1303 q 788 1254 761 1254 q 797 1254 792 1254 q 926 1310 864 1254 l 946 1207 q 774 1107 864 1107 q 695 1131 743 1107 q 621 1156 647 1156 q 483 1107 554 1156 l 461 1200 q 649 1303 550 1303 m 35 0 l 514 1017 l 832 1017 l 979 0 l 703 0 l 674 178 l 413 178 l 333 0 l 35 0 m 510 407 l 656 407 l 624 679 l 510 407 z "},"Ä":{"ha":988,"x_min":35,"x_max":979,"o":"m 468 1260 q 485 1274 468 1260 q 540 1289 503 1289 q 598 1265 578 1289 q 618 1224 618 1242 q 583 1138 618 1168 q 511 1107 549 1107 q 453 1131 474 1107 q 433 1172 433 1154 q 468 1260 433 1231 m 822 1260 q 840 1274 822 1260 q 894 1289 857 1289 q 952 1265 932 1289 q 972 1224 972 1242 q 938 1138 972 1168 q 865 1107 903 1107 q 808 1131 828 1107 q 788 1174 788 1156 q 822 1260 788 1231 m 35 0 l 514 1017 l 832 1017 l 979 0 l 703 0 l 674 178 l 413 178 l 333 0 l 35 0 m 510 407 l 656 407 l 624 679 l 510 407 z "},"Å":{"ha":988,"x_min":35,"x_max":979,"o":"m 789 1254 q 771 1273 789 1254 q 694 1292 753 1292 q 590 1249 636 1292 q 543 1139 543 1207 q 580 1051 543 1089 q 676 1014 617 1014 q 780 1056 735 1014 q 825 1167 825 1099 q 789 1254 825 1217 m 714 1120 q 707 1114 714 1120 q 681 1107 700 1107 q 649 1120 661 1107 q 638 1153 636 1133 q 655 1186 640 1172 q 689 1200 669 1200 q 721 1186 708 1200 q 731 1153 733 1172 q 714 1120 728 1133 m 35 0 l 514 1017 l 832 1017 l 979 0 l 703 0 l 674 178 l 413 178 l 333 0 l 35 0 m 510 407 l 656 407 l 624 679 l 510 407 z "},"Æ":{"ha":1519,"x_min":24,"x_max":1485,"o":"m 778 981 q 904 1012 850 1006 q 997 1018 958 1018 q 1063 1017 1035 1018 q 1485 994 1326 1017 l 1450 768 l 1107 768 q 1028 719 1040 768 q 1022 690 1025 708 l 1013 629 l 1356 614 l 1321 390 l 972 378 l 963 317 q 981 253 954 263 q 1038 244 1003 244 l 1367 244 l 1331 19 q 989 -3 1188 1 l 919 -4 q 897 -4 908 -4 l 853 -3 q 678 94 714 8 q 667 138 667 117 q 669 172 667 158 l 679 232 l 475 232 l 322 0 l 24 0 l 521 767 q 778 981 631 932 m 619 460 l 715 460 l 749 669 l 619 460 z "},"Ç":{"ha":786,"x_min":104,"x_max":914,"o":"m 556 1028 q 763 1017 700 1028 q 914 972 825 1007 l 881 763 q 850 767 864 765 l 815 772 q 644 786 718 786 l 561 786 q 499 776 513 786 q 470 753 486 767 q 447 721 454 740 q 428 672 439 701 q 393 519 410 624 q 376 362 376 415 q 386 286 376 308 q 514 233 410 233 q 760 242 658 233 l 799 246 l 765 36 q 626 0 694 8 q 492 -8 558 -8 q 392 -8 425 -8 q 106 358 106 -4 q 122 554 106 446 q 258 917 161 806 q 556 1028 354 1028 m 314 -253 l 229 -253 l 247 -143 l 301 -122 q 339 -100 332 -110 q 353 -50 346 -90 l 515 -50 q 453 -206 499 -158 q 314 -253 408 -253 z "},"È":{"ha":771,"x_min":85,"x_max":894,"o":"m 376 1299 l 578 1299 l 653 1100 l 501 1100 l 376 1299 m 472 1017 q 894 994 735 1017 l 858 768 l 515 768 q 438 719 451 768 q 432 690 435 710 l 424 635 l 765 619 l 729 396 l 383 383 l 372 317 q 392 253 364 263 q 447 244 413 244 l 776 244 l 740 19 q 394 -3 597 1 l 324 -4 q 296 -4 318 -4 q 236 4 274 -4 q 85 188 85 38 q 89 240 85 213 l 176 794 q 292 981 199 936 q 472 1017 365 1017 z "},"É":{"ha":771,"x_min":85,"x_max":894,"o":"m 511 1100 l 650 1299 l 851 1299 l 663 1100 l 511 1100 m 472 1017 q 894 994 735 1017 l 858 768 l 515 768 q 438 719 451 768 q 432 690 435 710 l 424 635 l 765 619 l 729 396 l 383 383 l 372 317 q 392 253 364 263 q 447 244 413 244 l 776 244 l 740 19 q 394 -3 597 1 l 324 -4 q 296 -4 318 -4 q 236 4 274 -4 q 85 188 85 38 q 89 240 85 213 l 176 794 q 292 981 199 936 q 472 1017 365 1017 z "},"Ê":{"ha":771,"x_min":85,"x_max":894,"o":"m 371 1100 l 540 1294 l 722 1294 l 818 1100 l 664 1100 l 621 1171 l 554 1100 l 371 1100 m 472 1017 q 894 994 735 1017 l 858 768 l 515 768 q 438 719 451 768 q 432 690 435 710 l 424 635 l 765 619 l 729 396 l 383 383 l 372 317 q 392 253 364 263 q 447 244 413 244 l 776 244 l 740 19 q 394 -3 597 1 l 324 -4 q 296 -4 318 -4 q 236 4 274 -4 q 85 188 85 38 q 89 240 85 213 l 176 794 q 292 981 199 936 q 472 1017 365 1017 z "},"Ë":{"ha":771,"x_min":85,"x_max":894,"o":"m 354 1232 q 372 1247 354 1232 q 426 1261 389 1261 q 484 1238 464 1261 q 504 1196 504 1214 q 469 1110 504 1140 q 397 1079 435 1079 q 340 1103 360 1079 q 319 1144 319 1126 q 354 1232 319 1203 m 708 1232 q 726 1247 708 1232 q 781 1261 743 1261 q 838 1238 818 1261 q 858 1196 858 1214 q 824 1110 858 1140 q 751 1079 789 1079 q 694 1103 714 1079 q 674 1146 674 1128 q 708 1232 674 1203 m 472 1017 q 894 994 735 1017 l 858 768 l 515 768 q 438 719 451 768 q 432 690 435 710 l 424 635 l 765 619 l 729 396 l 383 383 l 372 317 q 392 253 364 263 q 447 244 413 244 l 776 244 l 740 19 q 394 -3 597 1 l 324 -4 q 296 -4 318 -4 q 236 4 274 -4 q 85 188 85 38 q 89 240 85 213 l 176 794 q 292 981 199 936 q 472 1017 365 1017 z "},"Ì":{"ha":392,"x_min":63,"x_max":493,"o":"m 172 1306 l 374 1306 l 449 1107 l 297 1107 l 172 1306 m 63 0 l 224 1017 l 493 1017 l 332 0 l 63 0 z "},"Í":{"ha":392,"x_min":63,"x_max":638,"o":"m 297 1107 l 436 1306 l 638 1306 l 449 1107 l 297 1107 m 63 0 l 224 1017 l 493 1017 l 332 0 l 63 0 z "},"Î":{"ha":392,"x_min":63,"x_max":596,"o":"m 149 1107 l 318 1301 l 500 1301 l 596 1107 l 442 1107 l 399 1178 l 318 1107 l 149 1107 m 63 0 l 224 1017 l 493 1017 l 332 0 l 63 0 z "},"Ï":{"ha":392,"x_min":63,"x_max":657,"o":"m 153 1260 q 170 1274 153 1260 q 225 1289 188 1289 q 283 1265 263 1289 q 303 1224 303 1242 q 268 1138 303 1168 q 196 1107 233 1107 q 138 1131 158 1107 q 118 1172 118 1154 q 153 1260 118 1231 m 507 1260 q 524 1274 507 1260 q 579 1289 542 1289 q 637 1265 617 1289 q 657 1224 657 1242 q 622 1138 657 1168 q 550 1107 588 1107 q 492 1131 513 1107 q 472 1172 472 1154 q 507 1260 472 1231 m 63 0 l 224 1017 l 493 1017 l 332 0 l 63 0 z "},"Ð":{"ha":889,"x_min":46,"x_max":954,"o":"m 672 1017 q 837 971 772 1017 q 925 847 901 925 q 953 654 953 756 q 936 463 953 553 q 806 100 894 200 q 539 0 717 0 l 63 0 l 136 467 l 46 467 l 63 569 l 153 569 l 224 1017 l 672 1017 m 519 228 q 610 292 578 228 q 667 506 643 356 q 685 640 685 603 q 665 767 685 746 q 608 789 644 789 l 457 789 l 422 569 l 546 569 l 529 467 l 406 467 l 368 228 l 519 228 z "},"Ñ":{"ha":940,"x_min":63,"x_max":1056,"o":"m 615 1303 q 688 1278 647 1303 q 754 1254 728 1254 q 764 1254 758 1254 q 893 1310 831 1254 l 913 1207 q 740 1107 831 1107 q 662 1131 710 1107 q 588 1156 614 1156 q 450 1107 521 1156 l 428 1200 q 615 1303 517 1303 m 63 0 l 224 1017 l 496 1017 l 704 490 l 786 1017 l 1056 1017 l 894 0 l 625 0 l 414 513 l 333 0 l 63 0 z "},"Ò":{"ha":925,"x_min":113,"x_max":990,"o":"m 446 1306 l 647 1306 l 722 1107 l 571 1107 l 446 1306 m 446 1010 q 472 1015 446 1010 q 535 1022 499 1019 q 630 1024 571 1024 q 732 1018 689 1024 q 818 997 775 1013 q 892 954 861 981 q 989 665 989 869 q 973 474 989 576 q 934 299 957 372 q 886 176 911 226 q 824 92 861 126 q 752 39 786 58 q 667 10 718 19 q 500 -6 586 -6 q 369 0 414 -6 q 282 21 325 6 q 208 61 239 36 q 113 335 113 144 q 129 530 113 424 q 171 713 146 636 q 222 842 196 790 q 288 928 247 893 q 360 982 328 964 q 446 1010 393 1000 m 498 763 q 482 754 498 763 q 442 686 465 744 q 401 517 419 628 q 383 358 383 406 q 392 289 383 310 q 504 236 410 236 q 638 289 599 236 q 703 501 676 342 q 721 631 721 593 q 691 759 721 736 q 596 782 661 782 q 498 763 531 782 z "},"Ó":{"ha":925,"x_min":113,"x_max":990,"o":"m 571 1107 l 710 1306 l 911 1306 l 722 1107 l 571 1107 m 446 1010 q 472 1015 446 1010 q 535 1022 499 1019 q 630 1024 571 1024 q 732 1018 689 1024 q 818 997 775 1013 q 892 954 861 981 q 989 665 989 869 q 973 474 989 576 q 934 299 957 372 q 886 176 911 226 q 824 92 861 126 q 752 39 786 58 q 667 10 718 19 q 500 -6 586 -6 q 369 0 414 -6 q 282 21 325 6 q 208 61 239 36 q 113 335 113 144 q 129 530 113 424 q 171 713 146 636 q 222 842 196 790 q 288 928 247 893 q 360 982 328 964 q 446 1010 393 1000 m 498 763 q 482 754 498 763 q 442 686 465 744 q 401 517 419 628 q 383 358 383 406 q 392 289 383 310 q 504 236 410 236 q 638 289 599 236 q 703 501 676 342 q 721 631 721 593 q 691 759 721 736 q 596 782 661 782 q 498 763 531 782 z "},"Ô":{"ha":925,"x_min":113,"x_max":990,"o":"m 424 1107 l 593 1301 l 775 1301 l 871 1107 l 717 1107 l 674 1178 l 593 1107 l 424 1107 m 446 1010 q 472 1015 446 1010 q 535 1022 499 1019 q 630 1024 571 1024 q 732 1018 689 1024 q 818 997 775 1013 q 892 954 861 981 q 989 665 989 869 q 973 474 989 576 q 934 299 957 372 q 886 176 911 226 q 824 92 861 126 q 752 39 786 58 q 667 10 718 19 q 500 -6 586 -6 q 369 0 414 -6 q 282 21 325 6 q 208 61 239 36 q 113 335 113 144 q 129 530 113 424 q 171 713 146 636 q 222 842 196 790 q 288 928 247 893 q 360 982 328 964 q 446 1010 393 1000 m 498 763 q 482 754 498 763 q 442 686 465 744 q 401 517 419 628 q 383 358 383 406 q 392 289 383 310 q 504 236 410 236 q 638 289 599 236 q 703 501 676 342 q 721 631 721 593 q 691 759 721 736 q 596 782 661 782 q 498 763 531 782 z "},"Õ":{"ha":925,"x_min":113,"x_max":990,"o":"m 607 1303 q 679 1278 639 1303 q 746 1254 719 1254 q 756 1254 750 1254 q 885 1310 822 1254 l 904 1207 q 732 1107 822 1107 q 653 1131 701 1107 q 579 1156 606 1156 q 442 1107 513 1156 l 419 1200 q 607 1303 508 1303 m 446 1010 q 472 1015 446 1010 q 535 1022 499 1019 q 630 1024 571 1024 q 732 1018 689 1024 q 818 997 775 1013 q 892 954 861 981 q 989 665 989 869 q 973 474 989 576 q 934 299 957 372 q 886 176 911 226 q 824 92 861 126 q 752 39 786 58 q 667 10 718 19 q 500 -6 586 -6 q 369 0 414 -6 q 282 21 325 6 q 208 61 239 36 q 113 335 113 144 q 129 530 113 424 q 171 713 146 636 q 222 842 196 790 q 288 928 247 893 q 360 982 328 964 q 446 1010 393 1000 m 498 763 q 482 754 498 763 q 442 686 465 744 q 401 517 419 628 q 383 358 383 406 q 392 289 383 310 q 504 236 410 236 q 638 289 599 236 q 703 501 676 342 q 721 631 721 593 q 691 759 721 736 q 596 782 661 782 q 498 763 531 782 z "},"Ö":{"ha":925,"x_min":113,"x_max":990,"o":"m 428 1260 q 445 1274 428 1260 q 500 1289 463 1289 q 558 1265 538 1289 q 578 1224 578 1242 q 543 1138 578 1168 q 471 1107 508 1107 q 413 1131 433 1107 q 393 1174 393 1156 q 428 1260 393 1231 m 782 1260 q 799 1274 782 1260 q 854 1289 817 1289 q 912 1265 892 1289 q 932 1224 932 1242 q 897 1138 932 1168 q 825 1107 863 1107 q 767 1131 788 1107 q 747 1172 747 1154 q 782 1260 747 1231 m 446 1010 q 472 1015 446 1010 q 535 1022 499 1019 q 630 1024 571 1024 q 732 1018 689 1024 q 818 997 775 1013 q 892 954 861 981 q 989 665 989 869 q 973 474 989 576 q 934 299 957 372 q 886 176 911 226 q 824 92 861 126 q 752 39 786 58 q 667 10 718 19 q 500 -6 586 -6 q 369 0 414 -6 q 282 21 325 6 q 208 61 239 36 q 113 335 113 144 q 129 530 113 424 q 171 713 146 636 q 222 842 196 790 q 288 928 247 893 q 360 982 328 964 q 446 1010 393 1000 m 498 763 q 482 754 498 763 q 442 686 465 744 q 401 517 419 628 q 383 358 383 406 q 392 289 383 310 q 504 236 410 236 q 638 289 599 236 q 703 501 676 342 q 721 631 721 593 q 691 759 721 736 q 596 782 661 782 q 498 763 531 782 z "},"×":{"ha":644,"x_min":101,"x_max":701,"o":"m 101 365 l 249 493 l 142 622 l 307 769 l 415 640 l 575 775 l 701 624 l 539 485 l 647 357 l 485 222 l 381 343 l 232 207 l 101 365 z "},"Ø":{"ha":925,"x_min":29,"x_max":1039,"o":"m 143 129 q 111 313 111 199 q 131 555 111 428 q 190 776 151 682 q 269 918 229 869 q 379 991 310 967 q 496 1019 449 1015 q 633 1024 543 1024 q 882 974 807 1024 l 919 1017 l 1039 1017 l 944 908 q 989 674 989 835 q 972 472 989 578 q 933 293 956 365 q 885 172 910 221 q 822 88 860 122 q 750 36 783 54 q 664 8 717 18 q 469 -6 590 -6 q 197 56 271 -6 l 149 0 l 29 0 l 143 129 m 692 757 q 598 782 667 782 q 497 763 529 782 q 441 686 464 744 q 402 524 418 628 q 385 407 386 419 l 692 757 m 394 281 q 508 236 417 236 q 637 288 599 236 q 697 474 675 340 q 718 651 718 608 l 394 281 z "},"Ù":{"ha":906,"x_min":117,"x_max":1021,"o":"m 433 1306 l 635 1306 l 710 1107 l 558 1107 l 433 1306 m 582 -7 l 539 -7 q 497 -7 519 -7 q 447 -7 474 -7 q 389 -5 419 -7 q 320 5 358 -3 q 255 28 282 13 q 200 67 228 43 q 128 214 150 106 q 118 290 118 257 q 119 363 118 324 q 133 486 119 401 l 219 1017 l 489 1017 l 399 444 q 386 324 386 358 q 500 235 386 235 q 574 248 544 235 q 619 294 603 261 q 660 444 646 346 l 750 1017 l 1021 1017 l 938 403 q 789 65 900 167 q 719 22 756 35 q 582 -7 642 -7 z "},"Ú":{"ha":906,"x_min":117,"x_max":1021,"o":"m 558 1107 l 697 1306 l 899 1306 l 710 1107 l 558 1107 m 582 -7 l 539 -7 q 497 -7 519 -7 q 447 -7 474 -7 q 389 -5 419 -7 q 320 5 358 -3 q 255 28 282 13 q 200 67 228 43 q 128 214 150 106 q 118 290 118 257 q 119 363 118 324 q 133 486 119 401 l 219 1017 l 489 1017 l 399 444 q 386 324 386 358 q 500 235 386 235 q 574 248 544 235 q 619 294 603 261 q 660 444 646 346 l 750 1017 l 1021 1017 l 938 403 q 789 65 900 167 q 719 22 756 35 q 582 -7 642 -7 z "},"Û":{"ha":906,"x_min":117,"x_max":1021,"o":"m 411 1107 l 581 1301 l 763 1301 l 858 1107 l 704 1107 l 661 1178 l 581 1107 l 411 1107 m 582 -7 l 539 -7 q 497 -7 519 -7 q 447 -7 474 -7 q 389 -5 419 -7 q 320 5 358 -3 q 255 28 282 13 q 200 67 228 43 q 128 214 150 106 q 118 290 118 257 q 119 363 118 324 q 133 486 119 401 l 219 1017 l 489 1017 l 399 444 q 386 324 386 358 q 500 235 386 235 q 574 248 544 235 q 619 294 603 261 q 660 444 646 346 l 750 1017 l 1021 1017 l 938 403 q 789 65 900 167 q 719 22 756 35 q 582 -7 642 -7 z "},"Ü":{"ha":906,"x_min":117,"x_max":1021,"o":"m 415 1260 q 433 1274 415 1260 q 488 1289 450 1289 q 545 1265 525 1289 q 565 1224 565 1242 q 531 1138 565 1168 q 458 1107 496 1107 q 401 1131 421 1107 q 381 1172 381 1154 q 415 1260 381 1231 m 769 1260 q 787 1274 769 1260 q 842 1289 804 1289 q 899 1265 879 1289 q 919 1224 919 1242 q 885 1138 919 1168 q 813 1107 850 1107 q 755 1131 775 1107 q 735 1174 735 1156 q 769 1260 735 1231 m 582 -7 l 539 -7 q 497 -7 519 -7 q 447 -7 474 -7 q 389 -5 419 -7 q 320 5 358 -3 q 255 28 282 13 q 200 67 228 43 q 128 214 150 106 q 118 290 118 257 q 119 363 118 324 q 133 486 119 401 l 219 1017 l 489 1017 l 399 444 q 386 324 386 358 q 500 235 386 235 q 574 248 544 235 q 619 294 603 261 q 660 444 646 346 l 750 1017 l 1021 1017 l 938 403 q 789 65 900 167 q 719 22 756 35 q 582 -7 642 -7 z "},"Ý":{"ha":943,"x_min":181,"x_max":1069,"o":"m 564 1107 l 703 1306 l 904 1306 l 715 1107 l 564 1107 m 181 1017 l 474 1017 l 540 567 l 765 1017 l 1069 1017 l 632 278 l 588 0 l 318 0 l 363 278 l 181 1017 z "},"Þ":{"ha":747,"x_min":47,"x_max":799,"o":"m 47 0 q 207 1013 47 0 l 476 1013 l 446 817 l 594 817 q 749 753 686 817 q 797 593 797 704 q 788 488 797 553 q 753 364 779 422 q 700 277 726 306 q 632 232 674 249 q 565 211 590 215 q 478 206 522 206 q 414 209 435 206 q 354 233 393 213 l 317 0 l 47 0 m 424 435 q 495 448 479 435 q 517 496 511 461 q 524 544 524 531 q 517 571 524 558 q 495 586 510 583 q 447 589 481 589 l 410 589 l 386 435 l 424 435 z "},"ß":{"ha":797,"x_min":47,"x_max":896,"o":"m 571 1089 q 792 1038 710 1089 q 889 911 874 988 q 896 840 896 881 q 875 731 896 800 q 790 586 854 661 q 734 535 774 567 q 694 483 694 504 q 715 439 694 461 q 763 394 735 417 q 807 335 790 372 q 824 274 824 299 q 821 235 824 250 l 817 211 q 722 38 796 86 q 543 -11 649 -11 q 361 15 438 -11 l 389 197 q 475 189 453 189 q 554 256 544 189 q 547 304 560 285 q 514 340 533 324 q 475 374 494 356 q 439 464 439 410 q 462 555 439 514 q 501 613 485 596 q 564 669 518 631 q 618 792 618 715 q 604 835 618 819 q 538 851 590 851 q 463 813 486 851 q 421 661 439 774 l 317 0 l 47 0 l 172 786 q 290 1004 193 919 q 571 1089 388 1089 z "},"à":{"ha":758,"x_min":76,"x_max":819,"o":"m 281 1033 l 482 1033 l 557 835 l 406 835 l 281 1033 m 469 751 q 819 665 729 751 l 722 3 l 510 3 l 468 72 q 274 -7 425 -7 q 110 114 167 -7 q 78 265 78 183 q 94 422 78 347 q 131 548 110 497 q 173 631 151 599 q 225 688 194 664 q 281 724 256 711 q 344 742 307 736 q 469 751 397 751 m 417 534 q 409 529 417 534 q 385 490 401 524 q 359 394 368 457 q 350 306 350 331 q 351 260 350 282 q 365 223 351 238 q 403 208 378 208 q 493 281 486 208 l 531 544 q 499 556 518 556 q 456 550 479 556 q 417 534 432 544 z "},"á":{"ha":758,"x_min":76,"x_max":819,"o":"m 413 835 l 551 1033 l 753 1033 l 564 835 l 413 835 m 469 751 q 819 665 729 751 l 722 3 l 510 3 l 468 72 q 274 -7 425 -7 q 110 114 167 -7 q 78 265 78 183 q 94 422 78 347 q 131 548 110 497 q 173 631 151 599 q 225 688 194 664 q 281 724 256 711 q 344 742 307 736 q 469 751 397 751 m 417 534 q 409 529 417 534 q 385 490 401 524 q 359 394 368 457 q 350 306 350 331 q 351 260 350 282 q 365 223 351 238 q 403 208 378 208 q 493 281 486 208 l 531 544 q 499 556 518 556 q 456 550 479 556 q 417 534 432 544 z "},"â":{"ha":758,"x_min":76,"x_max":819,"o":"m 272 835 l 442 1029 l 624 1029 l 719 835 l 565 835 l 522 906 l 442 835 l 272 835 m 469 751 q 819 665 729 751 l 722 3 l 510 3 l 468 72 q 274 -7 425 -7 q 110 114 167 -7 q 78 265 78 183 q 94 422 78 347 q 131 548 110 497 q 173 631 151 599 q 225 688 194 664 q 281 724 256 711 q 344 742 307 736 q 469 751 397 751 m 417 534 q 409 529 417 534 q 385 490 401 524 q 359 394 368 457 q 350 306 350 331 q 351 260 350 282 q 365 223 351 238 q 403 208 378 208 q 493 281 486 208 l 531 544 q 499 556 518 556 q 456 550 479 556 q 417 534 432 544 z "},"ã":{"ha":758,"x_min":76,"x_max":819,"o":"m 451 1031 q 524 1006 483 1031 q 590 982 564 982 q 600 982 594 982 q 729 1038 667 982 l 749 935 q 576 835 667 835 q 498 859 546 835 q 424 883 450 883 q 286 835 357 883 l 264 928 q 451 1031 353 1031 m 469 751 q 819 665 729 751 l 722 3 l 510 3 l 468 72 q 274 -7 425 -7 q 110 114 167 -7 q 78 265 78 183 q 94 422 78 347 q 131 548 110 497 q 173 631 151 599 q 225 688 194 664 q 281 724 256 711 q 344 742 307 736 q 469 751 397 751 m 417 534 q 409 529 417 534 q 385 490 401 524 q 359 394 368 457 q 350 306 350 331 q 351 260 350 282 q 365 223 351 238 q 403 208 378 208 q 493 281 486 208 l 531 544 q 499 556 518 556 q 456 550 479 556 q 417 534 432 544 z "},"ä":{"ha":758,"x_min":76,"x_max":819,"o":"m 272 988 q 290 1002 272 988 q 344 1017 307 1017 q 402 993 382 1017 q 422 951 422 969 q 388 865 422 896 q 315 835 353 835 q 258 859 278 835 q 238 901 238 883 q 272 988 238 958 m 626 988 q 644 1002 626 988 q 699 1017 661 1017 q 756 993 736 1017 q 776 951 776 969 q 742 865 776 896 q 669 835 707 835 q 612 858 632 835 q 592 900 592 882 q 626 988 592 958 m 469 751 q 819 665 729 751 l 722 3 l 510 3 l 468 72 q 274 -7 425 -7 q 110 114 167 -7 q 78 265 78 183 q 94 422 78 347 q 131 548 110 497 q 173 631 151 599 q 225 688 194 664 q 281 724 256 711 q 344 742 307 736 q 469 751 397 751 m 417 534 q 409 529 417 534 q 385 490 401 524 q 359 394 368 457 q 350 306 350 331 q 351 260 350 282 q 365 223 351 238 q 403 208 378 208 q 493 281 486 208 l 531 544 q 499 556 518 556 q 456 550 479 556 q 417 534 432 544 z "},"å":{"ha":758,"x_min":76,"x_max":819,"o":"m 420 1070 q 443 1091 420 1070 q 525 1113 467 1113 q 619 1075 583 1113 q 656 988 656 1038 q 610 877 656 919 q 506 835 565 835 q 410 872 447 835 q 374 960 374 910 q 420 1070 374 1028 m 479 941 q 485 934 479 941 q 511 928 492 928 q 544 941 531 928 q 561 974 558 954 q 551 1007 564 993 q 519 1021 539 1021 q 485 1007 500 1021 q 469 974 471 993 q 479 941 467 954 m 469 751 q 819 665 729 751 l 722 3 l 510 3 l 468 72 q 274 -7 425 -7 q 110 114 167 -7 q 78 265 78 183 q 94 422 78 347 q 131 548 110 497 q 173 631 151 599 q 225 688 194 664 q 281 724 256 711 q 344 742 307 736 q 469 751 397 751 m 417 534 q 409 529 417 534 q 385 490 401 524 q 359 394 368 457 q 350 306 350 331 q 351 260 350 282 q 365 223 351 238 q 403 208 378 208 q 493 281 486 208 l 531 544 q 499 556 518 556 q 456 550 479 556 q 417 534 432 544 z "},"æ":{"ha":1135,"x_min":75,"x_max":1189,"o":"m 1144 371 q 946 251 1079 263 q 852 247 900 247 q 757 267 804 247 q 756 247 756 256 q 776 206 756 218 q 896 193 797 193 q 1124 219 994 193 l 1090 31 q 794 -14 951 -14 q 689 -10 743 -14 q 526 86 579 0 q 274 -10 457 -10 q 108 117 167 -10 q 76 272 76 188 q 92 431 76 356 q 128 556 108 506 q 170 638 149 606 q 223 693 192 671 q 278 726 254 715 q 339 744 301 738 q 493 751 386 751 q 683 725 600 751 q 839 751 757 750 q 975 743 921 751 q 1188 544 1188 710 q 1144 371 1188 440 m 482 278 q 525 547 482 410 q 493 554 511 554 q 447 548 475 554 q 394 510 418 542 q 360 403 371 479 q 350 288 350 328 q 357 232 350 249 q 401 206 369 206 q 483 244 464 206 q 482 278 482 261 m 776 439 q 822 432 799 432 q 859 435 844 432 q 890 451 874 438 q 913 507 913 469 q 864 551 913 551 q 802 523 819 551 q 776 439 785 494 z "},"ç":{"ha":679,"x_min":83,"x_max":750,"o":"m 418 -8 l 281 -7 q 117 99 171 -7 q 85 248 85 164 q 99 424 85 332 q 142 584 114 515 q 213 687 171 653 q 297 733 254 721 q 371 744 339 744 q 448 744 418 744 q 506 744 478 744 q 551 741 533 743 q 599 735 569 739 q 650 726 628 732 q 750 694 707 713 l 725 536 q 566 544 643 544 q 477 544 489 544 q 445 538 465 543 q 417 523 425 533 q 397 493 410 513 q 356 294 371 447 q 354 271 354 283 q 358 242 354 258 q 366 216 361 226 q 388 200 371 206 q 464 193 408 193 q 656 201 576 193 l 682 204 l 657 46 q 561 7 617 19 q 418 -8 492 -8 m 243 -256 l 158 -256 l 175 -146 l 231 -125 q 267 -103 261 -112 q 281 -53 274 -93 l 443 -53 q 382 -208 426 -161 q 243 -256 338 -256 z "},"è":{"ha":735,"x_min":82,"x_max":789,"o":"m 296 1033 l 497 1033 l 572 835 l 421 835 l 296 1033 m 479 751 q 788 544 788 751 q 758 393 788 456 q 683 303 728 331 q 506 247 597 247 l 489 247 q 356 267 389 253 q 354 247 354 256 q 375 206 354 218 q 502 193 396 193 q 738 219 608 193 l 704 31 q 403 -15 564 -15 q 289 -10 347 -15 q 110 119 158 1 q 82 269 82 186 q 99 442 82 353 q 207 684 132 618 q 479 751 282 750 m 376 439 q 422 432 399 432 q 459 435 444 432 q 489 451 474 438 q 511 508 511 471 q 464 551 511 551 q 402 523 419 551 q 376 439 385 494 z "},"é":{"ha":735,"x_min":82,"x_max":789,"o":"m 421 835 l 560 1033 l 761 1033 l 572 835 l 421 835 m 479 751 q 788 544 788 751 q 758 393 788 456 q 683 303 728 331 q 506 247 597 247 l 489 247 q 356 267 389 253 q 354 247 354 256 q 375 206 354 218 q 502 193 396 193 q 738 219 608 193 l 704 31 q 403 -15 564 -15 q 289 -10 347 -15 q 110 119 158 1 q 82 269 82 186 q 99 442 82 353 q 207 684 132 618 q 479 751 282 750 m 376 439 q 422 432 399 432 q 459 435 444 432 q 489 451 474 438 q 511 508 511 471 q 464 551 511 551 q 402 523 419 551 q 376 439 385 494 z "},"ê":{"ha":735,"x_min":82,"x_max":789,"o":"m 274 835 l 443 1029 l 625 1029 l 721 835 l 567 835 l 524 906 l 443 835 l 274 835 m 479 751 q 788 544 788 751 q 758 393 788 456 q 683 303 728 331 q 506 247 597 247 l 489 247 q 356 267 389 253 q 354 247 354 256 q 375 206 354 218 q 502 193 396 193 q 738 219 608 193 l 704 31 q 403 -15 564 -15 q 289 -10 347 -15 q 110 119 158 1 q 82 269 82 186 q 99 442 82 353 q 207 684 132 618 q 479 751 282 750 m 376 439 q 422 432 399 432 q 459 435 444 432 q 489 451 474 438 q 511 508 511 471 q 464 551 511 551 q 402 523 419 551 q 376 439 385 494 z "},"ë":{"ha":735,"x_min":82,"x_max":789,"o":"m 276 988 q 294 1002 276 988 q 349 1017 311 1017 q 406 993 386 1017 q 426 951 426 969 q 392 865 426 896 q 319 835 357 835 q 262 858 282 835 q 242 900 242 882 q 276 988 242 958 m 631 988 q 648 1002 631 988 q 703 1017 665 1017 q 760 993 740 1017 q 781 951 781 969 q 746 865 781 896 q 674 835 711 835 q 616 859 636 835 q 596 901 596 883 q 631 988 596 958 m 479 751 q 788 544 788 751 q 758 393 788 456 q 683 303 728 331 q 506 247 597 247 l 489 247 q 356 267 389 253 q 354 247 354 256 q 375 206 354 218 q 502 193 396 193 q 738 219 608 193 l 704 31 q 403 -15 564 -15 q 289 -10 347 -15 q 110 119 158 1 q 82 269 82 186 q 99 442 82 353 q 207 684 132 618 q 479 751 282 750 m 376 439 q 422 432 399 432 q 459 435 444 432 q 489 451 474 438 q 511 508 511 471 q 464 551 511 551 q 402 523 419 551 q 376 439 385 494 z "},"ì":{"ha":350,"x_min":28,"x_max":414,"o":"m 90 1031 l 292 1031 l 367 832 l 215 832 l 90 1031 m 28 0 l 144 738 l 414 738 l 297 0 l 28 0 z "},"í":{"ha":350,"x_min":28,"x_max":556,"o":"m 215 832 l 354 1031 l 556 1031 l 367 832 l 215 832 m 28 0 l 144 738 l 414 738 l 297 0 l 28 0 z "},"î":{"ha":350,"x_min":28,"x_max":515,"o":"m 68 832 l 238 1026 l 419 1026 l 515 832 l 361 832 l 318 903 l 238 832 l 68 832 m 28 0 l 144 738 l 414 738 l 297 0 l 28 0 z "},"ï":{"ha":350,"x_min":28,"x_max":576,"o":"m 72 985 q 90 999 72 985 q 144 1014 107 1014 q 202 990 182 1014 q 222 949 222 967 q 188 863 222 893 q 115 832 153 832 q 58 856 78 832 q 38 897 38 879 q 72 985 38 956 m 426 985 q 444 999 426 985 q 499 1014 461 1014 q 556 990 536 1014 q 576 949 576 967 q 542 863 576 893 q 469 832 507 832 q 412 856 432 832 q 392 897 392 879 q 426 985 392 956 m 28 0 l 144 738 l 414 738 l 297 0 l 28 0 z "},"ð":{"ha":753,"x_min":75,"x_max":808,"o":"m 415 738 l 443 738 q 553 731 526 738 q 507 825 546 789 l 374 756 l 342 833 l 404 867 q 315 872 365 872 q 236 872 265 872 l 271 1088 q 667 1003 538 1088 l 774 1058 l 807 981 l 733 943 q 807 638 807 851 q 779 325 807 504 q 653 58 746 126 q 560 13 607 25 q 451 0 513 0 l 299 0 q 76 264 76 0 q 88 399 76 325 q 194 656 115 575 q 415 738 274 738 m 436 496 q 385 472 400 496 q 358 380 369 447 q 347 294 347 313 q 349 268 347 275 q 396 244 354 244 l 433 244 q 485 263 474 244 q 508 358 496 281 q 521 454 521 436 q 519 478 521 472 q 474 496 515 496 l 436 496 z "},"ñ":{"ha":771,"x_min":47,"x_max":819,"o":"m 479 1029 q 551 1005 511 1029 q 618 981 592 981 q 628 981 622 981 q 757 1036 694 981 l 776 933 q 604 833 694 833 q 526 858 574 833 q 451 882 478 882 q 314 833 385 882 l 292 926 q 479 1029 381 1029 m 542 510 q 506 550 542 550 q 396 499 426 550 l 317 0 l 47 0 l 164 738 l 389 738 l 422 665 q 478 708 457 693 q 543 736 500 722 q 639 750 586 750 q 772 713 729 750 q 818 608 818 674 q 808 472 818 543 l 733 0 l 464 0 l 539 478 q 542 510 542 497 z "},"ò":{"ha":768,"x_min":83,"x_max":799,"o":"m 299 1031 l 500 1031 l 575 832 l 424 832 l 299 1031 m 501 749 q 756 647 692 749 q 799 465 799 582 q 784 310 799 401 q 743 156 769 219 q 667 56 717 93 q 551 6 617 19 q 382 -7 486 -7 q 128 92 193 -7 q 83 271 83 157 q 98 417 83 326 q 141 576 113 507 q 221 684 169 646 q 335 735 272 722 q 501 749 399 749 m 470 549 q 443 549 470 549 q 401 523 415 549 q 369 392 386 497 q 351 258 351 288 q 353 221 351 229 q 415 193 361 193 q 483 217 469 193 q 515 345 497 240 q 533 477 533 450 q 532 514 533 504 q 470 549 525 549 z "},"ó":{"ha":768,"x_min":83,"x_max":799,"o":"m 432 832 l 571 1031 l 772 1031 l 583 832 l 432 832 m 501 749 q 756 647 692 749 q 799 465 799 582 q 784 310 799 401 q 743 156 769 219 q 667 56 717 93 q 551 6 617 19 q 382 -7 486 -7 q 128 92 193 -7 q 83 271 83 157 q 98 417 83 326 q 141 576 113 507 q 221 684 169 646 q 335 735 272 722 q 501 749 399 749 m 470 549 q 443 549 470 549 q 401 523 415 549 q 369 392 386 497 q 351 258 351 288 q 353 221 351 229 q 415 193 361 193 q 483 217 469 193 q 515 345 497 240 q 533 477 533 450 q 532 514 533 504 q 470 549 525 549 z "},"ô":{"ha":768,"x_min":83,"x_max":799,"o":"m 271 832 l 440 1026 l 622 1026 l 718 832 l 564 832 l 521 903 l 440 832 l 271 832 m 501 749 q 756 647 692 749 q 799 465 799 582 q 784 310 799 401 q 743 156 769 219 q 667 56 717 93 q 551 6 617 19 q 382 -7 486 -7 q 128 92 193 -7 q 83 271 83 157 q 98 417 83 326 q 141 576 113 507 q 221 684 169 646 q 335 735 272 722 q 501 749 399 749 m 470 549 q 443 549 470 549 q 401 523 415 549 q 369 392 386 497 q 351 258 351 288 q 353 221 351 229 q 415 193 361 193 q 483 217 469 193 q 515 345 497 240 q 533 477 533 450 q 532 514 533 504 q 470 549 525 549 z "},"õ":{"ha":768,"x_min":83,"x_max":799,"o":"m 461 1028 q 532 1003 492 1028 q 600 979 572 979 q 610 979 604 979 q 739 1035 676 979 l 758 932 q 586 832 676 832 q 508 856 556 832 q 433 881 460 881 q 296 832 367 881 l 274 925 q 461 1028 363 1028 m 501 749 q 756 647 692 749 q 799 465 799 582 q 784 310 799 401 q 743 156 769 219 q 667 56 717 93 q 551 6 617 19 q 382 -7 486 -7 q 128 92 193 -7 q 83 271 83 157 q 98 417 83 326 q 141 576 113 507 q 221 684 169 646 q 335 735 272 722 q 501 749 399 749 m 470 549 q 443 549 470 549 q 401 523 415 549 q 369 392 386 497 q 351 258 351 288 q 353 221 351 229 q 415 193 361 193 q 483 217 469 193 q 515 345 497 240 q 533 477 533 450 q 532 514 533 504 q 470 549 525 549 z "},"ö":{"ha":768,"x_min":83,"x_max":799,"o":"m 285 985 q 302 999 285 985 q 357 1014 319 1014 q 415 990 394 1014 q 435 949 435 967 q 400 863 435 893 q 328 832 365 832 q 270 856 290 832 q 250 897 250 879 q 285 985 250 956 m 639 985 q 656 999 639 985 q 711 1014 674 1014 q 769 990 749 1014 q 789 949 789 967 q 754 863 789 893 q 682 832 719 832 q 624 856 644 832 q 604 899 604 881 q 639 985 604 956 m 501 749 q 756 647 692 749 q 799 465 799 582 q 784 310 799 401 q 743 156 769 219 q 667 56 717 93 q 551 6 617 19 q 382 -7 486 -7 q 128 92 193 -7 q 83 271 83 157 q 98 417 83 326 q 141 576 113 507 q 221 684 169 646 q 335 735 272 722 q 501 749 399 749 m 470 549 q 443 549 470 549 q 401 523 415 549 q 369 392 386 497 q 351 258 351 288 q 353 221 351 229 q 415 193 361 193 q 483 217 469 193 q 515 345 497 240 q 533 477 533 450 q 532 514 533 504 q 470 549 525 549 z "},"÷":{"ha":669,"x_min":99,"x_max":725,"o":"m 99 383 l 132 597 l 725 597 l 692 383 l 99 383 m 315 336 l 444 336 q 475 311 475 336 q 474 301 475 307 l 456 194 q 417 163 450 163 l 288 163 q 258 194 254 163 l 276 301 q 315 336 281 336 m 351 778 q 390 813 356 813 l 519 813 q 550 788 550 813 q 549 778 550 783 l 532 671 q 492 639 526 639 l 363 639 q 335 664 335 639 q 335 671 335 667 l 351 778 z "},"ø":{"ha":768,"x_min":11,"x_max":872,"o":"m 111 100 q 83 231 83 153 q 99 406 83 308 q 142 573 114 504 q 222 680 171 642 q 337 731 274 718 q 524 744 400 744 q 717 701 649 744 l 753 738 l 872 738 l 774 639 q 801 500 801 583 q 786 319 801 417 q 744 158 771 221 q 668 57 718 94 q 553 6 618 19 q 363 -7 488 -7 q 168 38 239 -7 l 131 0 l 11 0 l 111 100 m 532 517 q 470 544 525 544 q 400 518 415 544 q 365 358 383 488 q 365 354 365 357 q 364 350 364 351 l 532 517 m 354 222 q 372 199 358 204 q 428 193 386 193 q 483 217 471 193 q 524 390 499 242 l 354 222 z "},"ù":{"ha":769,"x_min":69,"x_max":842,"o":"m 313 1031 l 514 1031 l 589 832 l 438 832 l 313 1031 m 346 228 q 383 188 346 188 q 493 239 463 188 l 572 738 l 842 738 l 724 0 l 499 0 l 467 72 q 373 7 418 26 q 244 -12 328 -12 q 117 25 160 -12 q 71 129 71 64 q 81 265 71 194 l 156 738 l 425 738 l 349 260 q 346 228 346 240 z "},"ú":{"ha":769,"x_min":69,"x_max":842,"o":"m 438 832 l 576 1031 l 778 1031 l 589 832 l 438 832 m 346 228 q 383 188 346 188 q 493 239 463 188 l 572 738 l 842 738 l 724 0 l 499 0 l 467 72 q 373 7 418 26 q 244 -12 328 -12 q 117 25 160 -12 q 71 129 71 64 q 81 265 71 194 l 156 738 l 425 738 l 349 260 q 346 228 346 240 z "},"û":{"ha":769,"x_min":69,"x_max":842,"o":"m 290 832 l 460 1026 l 642 1026 l 738 832 l 583 832 l 540 903 l 460 832 l 290 832 m 346 228 q 383 188 346 188 q 493 239 463 188 l 572 738 l 842 738 l 724 0 l 499 0 l 467 72 q 373 7 418 26 q 244 -12 328 -12 q 117 25 160 -12 q 71 129 71 64 q 81 265 71 194 l 156 738 l 425 738 l 349 260 q 346 228 346 240 z "},"ü":{"ha":769,"x_min":69,"x_max":842,"o":"m 293 985 q 310 999 293 985 q 365 1014 328 1014 q 423 990 403 1014 q 443 949 443 967 q 408 863 443 893 q 336 832 374 832 q 278 856 299 832 q 258 897 258 879 q 293 985 258 956 m 647 985 q 665 999 647 985 q 719 1014 682 1014 q 777 990 757 1014 q 797 949 797 967 q 763 863 797 893 q 690 832 728 832 q 633 856 653 832 q 613 899 613 881 q 647 985 613 956 m 346 228 q 383 188 346 188 q 493 239 463 188 l 572 738 l 842 738 l 724 0 l 499 0 l 467 72 q 373 7 418 26 q 244 -12 328 -12 q 117 25 160 -12 q 71 129 71 64 q 81 265 71 194 l 156 738 l 425 738 l 349 260 q 346 228 346 240 z "},"ý":{"ha":799,"x_min":106,"x_max":867,"o":"m 436 828 l 575 1026 l 776 1026 l 588 828 l 436 828 m 865 682 q 811 450 865 581 l 631 0 q 138 -419 468 -381 q 121 -422 126 -421 l 121 -233 q 272 -135 217 -189 q 367 0 326 -82 q 139 217 153 0 l 106 738 l 385 738 l 396 271 q 447 217 397 219 l 567 547 q 603 739 594 624 l 861 739 q 865 682 865 711 z "},"þ":{"ha":776,"x_min":-4,"x_max":817,"o":"m 624 736 q 817 481 817 736 q 803 328 817 413 q 709 60 772 142 q 503 -21 646 -21 q 329 26 393 -21 l 265 -375 l -4 -375 l 228 1086 l 497 1086 l 429 660 q 524 717 482 699 q 624 736 567 736 m 442 172 q 494 206 475 172 q 528 323 514 239 q 543 430 543 407 q 541 475 543 453 q 529 508 539 497 q 497 518 519 518 q 401 488 425 518 l 356 193 q 442 172 371 172 z "},"ÿ":{"ha":799,"x_min":106,"x_max":867,"o":"m 296 953 q 313 967 296 953 q 368 982 331 982 q 426 958 406 982 q 446 917 446 935 q 411 831 446 861 q 339 800 376 800 q 281 824 301 800 q 261 865 261 847 q 296 953 261 924 m 650 953 q 667 967 650 953 q 722 982 685 982 q 780 958 760 982 q 800 917 800 935 q 765 831 800 861 q 693 800 731 800 q 635 824 656 800 q 615 867 615 849 q 650 953 615 924 m 865 682 q 811 450 865 581 l 631 0 q 138 -419 468 -381 q 121 -422 126 -421 l 121 -233 q 272 -135 217 -189 q 367 0 326 -82 q 139 217 153 0 l 106 738 l 385 738 l 396 271 q 447 217 397 219 l 567 547 q 603 739 594 624 l 861 739 q 865 682 865 711 z "},"Ā":{"ha":988,"x_min":35,"x_max":979,"o":"m 485 1107 l 506 1236 l 911 1236 l 890 1107 l 485 1107 m 35 0 l 514 1017 l 832 1017 l 979 0 l 703 0 l 674 178 l 413 178 l 333 0 l 35 0 m 510 407 l 656 407 l 624 679 l 510 407 z "},"ā":{"ha":758,"x_min":76,"x_max":819,"o":"m 294 835 l 315 964 l 721 964 l 700 835 l 294 835 m 469 751 q 819 665 729 751 l 722 3 l 510 3 l 468 72 q 274 -7 425 -7 q 110 114 167 -7 q 78 265 78 183 q 94 422 78 347 q 131 548 110 497 q 173 631 151 599 q 225 688 194 664 q 281 724 256 711 q 344 742 307 736 q 469 751 397 751 m 417 534 q 409 529 417 534 q 385 490 401 524 q 359 394 368 457 q 350 306 350 331 q 351 260 350 282 q 365 223 351 238 q 403 208 378 208 q 493 281 486 208 l 531 544 q 499 556 518 556 q 456 550 479 556 q 417 534 432 544 z "},"Ă":{"ha":988,"x_min":35,"x_max":979,"o":"m 646 1250 q 710 1197 646 1197 q 779 1263 775 1197 l 872 1263 q 821 1149 865 1190 q 703 1107 776 1107 q 592 1147 631 1107 q 553 1246 553 1186 q 553 1263 553 1254 l 646 1263 q 646 1250 646 1256 m 35 0 l 514 1017 l 832 1017 l 979 0 l 703 0 l 674 178 l 413 178 l 333 0 l 35 0 m 510 407 l 656 407 l 624 679 l 510 407 z "},"ă":{"ha":758,"x_min":76,"x_max":819,"o":"m 432 981 q 497 928 432 928 q 565 993 561 928 l 658 993 q 607 879 651 921 q 490 838 563 838 q 378 877 417 838 q 339 976 339 917 q 339 993 339 985 l 432 993 q 432 981 432 986 m 469 751 q 819 665 729 751 l 722 3 l 510 3 l 468 72 q 274 -7 425 -7 q 110 114 167 -7 q 78 265 78 183 q 94 422 78 347 q 131 548 110 497 q 173 631 151 599 q 225 688 194 664 q 281 724 256 711 q 344 742 307 736 q 469 751 397 751 m 417 534 q 409 529 417 534 q 385 490 401 524 q 359 394 368 457 q 350 306 350 331 q 351 260 350 282 q 365 223 351 238 q 403 208 378 208 q 493 281 486 208 l 531 544 q 499 556 518 556 q 456 550 479 556 q 417 534 432 544 z "},"Ą":{"ha":988,"x_min":35,"x_max":979,"o":"m 694 -143 q 800 1 694 -54 l 896 1 q 828 -83 828 -40 q 832 -103 828 -93 q 879 -139 843 -136 q 892 -139 886 -140 l 872 -264 q 815 -272 847 -272 q 738 -238 782 -272 q 694 -143 694 -204 m 35 0 l 514 1017 l 832 1017 l 979 0 l 703 0 l 674 178 l 413 178 l 333 0 l 35 0 m 510 407 l 656 407 l 624 679 l 510 407 z "},"ą":{"ha":758,"x_min":76,"x_max":819,"o":"m 465 -143 q 571 1 465 -54 l 667 1 q 599 -83 599 -40 q 603 -103 599 -93 q 650 -139 614 -136 q 663 -139 657 -140 l 643 -264 q 585 -272 618 -272 q 509 -238 553 -272 q 465 -143 465 -204 m 469 751 q 819 665 729 751 l 722 3 l 510 3 l 468 72 q 274 -7 425 -7 q 110 114 167 -7 q 78 265 78 183 q 94 422 78 347 q 131 548 110 497 q 173 631 151 599 q 225 688 194 664 q 281 724 256 711 q 344 742 307 736 q 469 751 397 751 m 417 534 q 409 529 417 534 q 385 490 401 524 q 359 394 368 457 q 350 306 350 331 q 351 260 350 282 q 365 223 351 238 q 403 208 378 208 q 493 281 486 208 l 531 544 q 499 556 518 556 q 456 550 479 556 q 417 534 432 544 z "},"Ć":{"ha":786,"x_min":104,"x_max":914,"o":"m 563 1111 l 701 1310 l 903 1310 l 714 1111 l 563 1111 m 556 1028 q 763 1017 700 1028 q 914 972 825 1007 l 881 763 q 850 767 864 765 l 815 772 q 644 786 718 786 l 561 786 q 499 776 513 786 q 470 753 486 767 q 447 721 454 740 q 428 672 439 701 q 393 519 410 624 q 376 362 376 415 q 386 286 376 308 q 514 233 410 233 q 760 242 658 233 l 799 246 l 765 36 q 626 0 694 8 q 492 -8 558 -8 q 392 -8 425 -8 q 106 358 106 -4 q 122 554 106 446 q 258 917 161 806 q 556 1028 354 1028 z "},"ć":{"ha":679,"x_min":83,"x_max":761,"o":"m 421 832 l 560 1031 l 761 1031 l 572 832 l 421 832 m 399 751 q 750 701 624 751 l 725 543 q 560 551 643 551 q 458 548 478 551 q 419 526 439 544 q 388 472 399 508 q 360 342 365 400 q 354 271 354 283 q 358 242 354 258 q 366 216 361 226 q 388 200 371 206 q 464 193 408 193 q 656 201 576 193 l 682 204 l 657 46 q 511 3 583 13 q 374 -7 439 -7 q 281 -7 308 -7 q 117 100 171 -6 q 85 248 85 164 q 99 424 85 332 q 143 585 114 515 q 213 690 172 656 q 297 738 254 725 q 399 751 340 751 z "},"Ĉ":{"ha":786,"x_min":104,"x_max":914,"o":"m 388 1111 l 557 1306 l 739 1306 l 835 1111 l 681 1111 l 638 1182 l 557 1111 l 388 1111 m 556 1028 q 763 1017 700 1028 q 914 972 825 1007 l 881 763 q 850 767 864 765 l 815 772 q 644 786 718 786 l 561 786 q 499 776 513 786 q 470 753 486 767 q 447 721 454 740 q 428 672 439 701 q 393 519 410 624 q 376 362 376 415 q 386 286 376 308 q 514 233 410 233 q 760 242 658 233 l 799 246 l 765 36 q 626 0 694 8 q 492 -8 558 -8 q 392 -8 425 -8 q 106 358 106 -4 q 122 554 106 446 q 258 917 161 806 q 556 1028 354 1028 z "},"ĉ":{"ha":679,"x_min":83,"x_max":750,"o":"m 256 831 l 425 1025 l 607 1025 l 703 831 l 549 831 l 506 901 l 425 831 l 256 831 m 399 751 q 750 701 624 751 l 725 543 q 560 551 643 551 q 458 548 478 551 q 419 526 439 544 q 388 472 399 508 q 360 342 365 400 q 354 271 354 283 q 358 242 354 258 q 366 216 361 226 q 388 200 371 206 q 464 193 408 193 q 656 201 576 193 l 682 204 l 657 46 q 511 3 583 13 q 374 -7 439 -7 q 281 -7 308 -7 q 117 100 171 -6 q 85 248 85 164 q 99 424 85 332 q 143 585 114 515 q 213 690 172 656 q 297 738 254 725 q 399 751 340 751 z "},"Ċ":{"ha":786,"x_min":104,"x_max":914,"o":"m 594 1308 l 719 1308 q 747 1283 747 1308 q 746 1274 747 1279 l 725 1143 q 689 1111 721 1111 l 564 1111 q 535 1143 531 1111 l 556 1274 q 594 1308 560 1308 m 258 917 q 306 972 258 917 q 556 1028 354 1028 q 763 1017 700 1028 q 914 972 825 1007 l 881 763 q 850 767 864 765 q 815 772 850 767 q 644 786 718 786 l 561 786 q 499 776 513 786 q 470 753 486 767 q 447 721 454 740 q 428 672 439 701 q 393 519 410 624 q 376 362 376 415 q 386 286 376 308 q 514 233 410 233 q 760 242 658 233 l 799 246 l 765 36 q 626 0 694 8 q 492 -8 558 -8 q 392 -8 425 -8 q 106 358 106 -4 q 122 554 106 446 q 258 917 161 806 z "},"ċ":{"ha":679,"x_min":83,"x_max":750,"o":"m 446 1029 l 571 1029 q 599 1004 599 1029 q 597 994 599 1000 l 576 864 q 540 832 572 832 l 415 832 q 386 864 382 832 l 407 994 q 446 1029 411 1029 m 399 751 q 750 701 624 751 l 725 543 q 560 551 643 551 q 458 548 478 551 q 419 526 439 544 q 388 472 399 508 q 360 342 365 400 q 354 271 354 283 q 358 242 354 258 q 366 216 361 226 q 388 200 371 206 q 464 193 408 193 q 656 201 576 193 l 682 204 l 657 46 q 511 3 583 13 q 374 -7 439 -7 q 281 -7 308 -7 q 117 100 171 -6 q 85 248 85 164 q 99 424 85 332 q 143 585 114 515 q 213 690 172 656 q 297 738 254 725 q 399 751 340 751 z "},"Č":{"ha":786,"x_min":104,"x_max":914,"o":"m 453 1306 l 607 1306 l 656 1235 l 731 1306 l 900 1306 l 731 1111 l 556 1111 l 453 1306 m 556 1028 q 763 1017 700 1028 q 914 972 825 1007 l 881 763 q 850 767 864 765 l 815 772 q 644 786 718 786 l 561 786 q 499 776 513 786 q 470 753 486 767 q 447 721 454 740 q 428 672 439 701 q 393 519 410 624 q 376 362 376 415 q 386 286 376 308 q 514 233 410 233 q 760 242 658 233 l 799 246 l 765 36 q 626 0 694 8 q 492 -8 558 -8 q 392 -8 425 -8 q 106 358 106 -4 q 122 554 106 446 q 258 917 161 806 q 556 1028 354 1028 z "},"č":{"ha":679,"x_min":83,"x_max":751,"o":"m 304 1026 l 458 1026 l 507 956 l 582 1026 l 751 1026 l 582 832 l 407 832 l 304 1026 m 399 751 q 750 701 624 751 l 725 543 q 560 551 643 551 q 458 548 478 551 q 419 526 439 544 q 388 472 399 508 q 360 342 365 400 q 354 271 354 283 q 358 242 354 258 q 366 216 361 226 q 388 200 371 206 q 464 193 408 193 q 656 201 576 193 l 682 204 l 657 46 q 511 3 583 13 q 374 -7 439 -7 q 281 -7 308 -7 q 117 100 171 -6 q 85 248 85 164 q 99 424 85 332 q 143 585 114 515 q 213 690 172 656 q 297 738 254 725 q 399 751 340 751 z "},"Ď":{"ha":897,"x_min":63,"x_max":953,"o":"m 404 1301 l 558 1301 l 607 1231 l 682 1301 l 851 1301 l 682 1107 l 507 1107 l 404 1301 m 663 1017 q 951 650 951 1017 q 933 442 951 567 q 882 226 915 318 q 795 85 849 135 q 680 18 742 36 q 525 0 618 0 l 63 0 l 224 1017 l 663 1017 m 513 228 q 611 291 578 228 q 668 506 644 354 q 685 633 685 594 q 653 772 685 744 q 588 789 632 789 l 457 789 l 368 228 l 513 228 z "},"ď":{"ha":1082,"x_min":81,"x_max":1133,"o":"m 396 749 q 572 707 500 749 l 633 1090 l 903 1090 l 731 0 l 500 0 l 469 68 q 375 10 417 29 q 276 -8 333 -8 q 107 89 151 -8 q 82 225 82 144 q 96 394 82 306 q 189 676 129 603 q 396 749 249 749 m 457 556 q 406 522 425 556 q 372 403 386 489 q 357 297 357 318 q 358 253 357 275 q 401 210 361 210 q 497 240 474 210 l 544 535 q 457 556 529 556 m 947 807 l 961 993 l 975 1086 l 1133 1086 l 1119 993 l 1076 807 l 947 807 z "},"Đ":{"ha":889,"x_min":61,"x_max":969,"o":"m 688 1017 q 852 971 788 1017 q 940 847 917 925 q 969 654 969 756 q 951 463 969 553 q 821 100 910 200 q 554 0 732 0 l 78 0 l 151 467 l 61 467 l 78 569 l 168 569 l 239 1017 l 688 1017 m 535 228 q 626 292 593 228 q 682 506 658 356 q 700 640 700 603 q 680 767 700 746 q 624 789 660 789 l 472 789 l 438 569 l 561 569 l 544 467 l 421 467 l 383 228 l 535 228 z "},"đ":{"ha":771,"x_min":81,"x_max":960,"o":"m 276 -8 q 82 239 82 -8 q 96 397 82 308 q 188 677 129 606 q 396 749 247 749 q 572 707 500 749 l 592 828 l 461 828 l 478 931 l 608 931 l 633 1090 l 903 1090 l 878 931 l 960 931 l 943 828 l 861 828 l 731 0 l 500 0 l 469 68 q 375 10 417 29 q 276 -8 333 -8 m 457 556 q 406 522 425 556 q 372 403 386 489 q 357 297 357 318 q 358 253 357 275 q 401 210 361 210 q 497 240 474 210 l 544 535 q 457 556 529 556 z "},"Ē":{"ha":771,"x_min":85,"x_max":894,"o":"m 382 1100 l 403 1229 l 808 1229 l 788 1100 l 382 1100 m 472 1017 q 894 994 735 1017 l 858 768 l 515 768 q 438 719 451 768 q 432 690 435 710 l 424 635 l 765 619 l 729 396 l 383 383 l 372 317 q 392 253 364 263 q 447 244 413 244 l 776 244 l 740 19 q 394 -3 597 1 l 324 -4 q 296 -4 318 -4 q 236 4 274 -4 q 85 188 85 38 q 89 240 85 213 l 176 794 q 292 981 199 936 q 472 1017 365 1017 z "},"ē":{"ha":735,"x_min":82,"x_max":789,"o":"m 288 821 l 308 950 l 714 950 l 693 821 l 288 821 m 479 751 q 788 544 788 751 q 758 393 788 456 q 683 303 728 331 q 506 247 597 247 l 489 247 q 356 267 389 253 q 354 247 354 256 q 375 206 354 218 q 502 193 396 193 q 738 219 608 193 l 704 31 q 403 -15 564 -15 q 289 -10 347 -15 q 110 119 158 1 q 82 269 82 186 q 99 442 82 353 q 207 684 132 618 q 479 751 282 750 m 376 439 q 422 432 399 432 q 459 435 444 432 q 489 451 474 438 q 511 508 511 471 q 464 551 511 551 q 402 523 419 551 q 376 439 385 494 z "},"Ė":{"ha":771,"x_min":85,"x_max":894,"o":"m 564 1304 l 689 1304 q 717 1279 717 1304 q 715 1269 717 1275 l 694 1139 q 658 1107 690 1107 l 533 1107 q 504 1139 500 1107 l 525 1269 q 564 1304 529 1304 m 472 1017 q 894 994 735 1017 l 858 768 l 515 768 q 438 719 451 768 q 432 690 435 710 l 424 635 l 765 619 l 729 396 l 383 383 l 372 317 q 392 253 364 263 q 447 244 413 244 l 776 244 l 740 19 q 394 -3 597 1 l 324 -4 q 296 -4 318 -4 q 236 4 274 -4 q 85 188 85 38 q 89 240 85 213 l 176 794 q 292 981 199 936 q 472 1017 365 1017 z "},"ė":{"ha":735,"x_min":82,"x_max":789,"o":"m 465 1032 l 590 1032 q 618 1007 618 1032 q 617 997 618 1003 l 596 867 q 560 835 592 835 l 435 835 q 406 867 401 835 l 426 997 q 465 1032 431 1032 m 207 684 q 244 717 207 684 q 479 751 282 750 q 788 544 788 751 q 758 393 788 456 q 683 303 728 331 q 506 247 597 247 l 489 247 q 356 267 389 253 q 354 247 354 256 q 375 206 354 218 q 502 193 396 193 q 738 219 608 193 l 704 31 q 403 -15 564 -15 q 289 -10 347 -15 q 110 119 158 1 q 82 269 82 186 q 99 442 82 353 q 207 684 132 618 m 376 439 q 422 432 399 432 q 459 435 444 432 q 489 451 474 438 q 511 508 511 471 q 464 551 511 551 q 402 523 419 551 q 376 439 385 494 z "},"Ę":{"ha":771,"x_min":85,"x_max":894,"o":"m 538 -125 q 643 19 538 -36 l 739 19 q 671 -65 671 -22 q 675 -85 671 -75 q 722 -121 686 -118 q 735 -121 729 -122 l 715 -246 q 658 -254 690 -254 q 581 -220 625 -254 q 538 -125 538 -186 m 472 1017 q 894 994 735 1017 l 858 768 l 515 768 q 438 719 451 768 q 432 690 435 710 l 424 635 l 765 619 l 729 396 l 383 383 l 372 317 q 392 253 364 263 q 447 244 413 244 l 776 244 l 740 19 q 394 -3 597 1 l 324 -4 q 296 -4 318 -4 q 236 4 274 -4 q 85 188 85 38 q 89 240 85 213 l 176 794 q 292 981 199 936 q 472 1017 365 1017 z "},"ę":{"ha":735,"x_min":82,"x_max":789,"o":"m 503 -114 q 608 31 503 -25 l 704 31 q 636 -54 636 -11 q 640 -74 636 -64 q 688 -110 651 -107 q 700 -110 694 -111 l 681 -235 q 623 -243 656 -243 q 547 -209 590 -243 q 503 -114 503 -175 m 479 751 q 788 544 788 751 q 758 393 788 456 q 683 303 728 331 q 506 247 597 247 l 489 247 q 356 267 389 253 q 354 247 354 256 q 375 206 354 218 q 502 193 396 193 q 738 219 608 193 l 704 31 q 403 -15 564 -15 q 289 -10 347 -15 q 110 119 158 1 q 82 269 82 186 q 99 442 82 353 q 207 684 132 618 q 479 751 282 750 m 376 439 q 422 432 399 432 q 459 435 444 432 q 489 451 474 438 q 511 508 511 471 q 464 551 511 551 q 402 523 419 551 q 376 439 385 494 z "},"Ě":{"ha":771,"x_min":85,"x_max":894,"o":"m 389 1301 l 543 1301 l 592 1231 l 667 1301 l 836 1301 l 667 1107 l 492 1107 l 389 1301 m 472 1017 q 894 994 735 1017 l 858 768 l 515 768 q 438 719 451 768 q 432 690 435 710 l 424 635 l 765 619 l 729 396 l 383 383 l 372 317 q 392 253 364 263 q 447 244 413 244 l 776 244 l 740 19 q 394 -3 597 1 l 324 -4 q 296 -4 318 -4 q 236 4 274 -4 q 85 188 85 38 q 89 240 85 213 l 176 794 q 292 981 199 936 q 472 1017 365 1017 z "},"ě":{"ha":735,"x_min":82,"x_max":789,"o":"m 304 1029 l 458 1029 l 507 958 l 582 1029 l 751 1029 l 582 835 l 407 835 l 304 1029 m 479 751 q 788 544 788 751 q 758 393 788 456 q 683 303 728 331 q 506 247 597 247 l 489 247 q 356 267 389 253 q 354 247 354 256 q 375 206 354 218 q 502 193 396 193 q 738 219 608 193 l 704 31 q 403 -15 564 -15 q 289 -10 347 -15 q 110 119 158 1 q 82 269 82 186 q 99 442 82 353 q 207 684 132 618 q 479 751 282 750 m 376 439 q 422 432 399 432 q 459 435 444 432 q 489 451 474 438 q 511 508 511 471 q 464 551 511 551 q 402 523 419 551 q 376 439 385 494 z "},"Ĝ":{"ha":858,"x_min":103,"x_max":963,"o":"m 393 1111 l 563 1306 l 744 1306 l 840 1111 l 686 1111 l 643 1182 l 563 1111 l 393 1111 m 259 919 q 283 948 259 919 q 376 1003 307 978 q 579 1028 446 1028 q 769 1020 713 1028 q 963 974 826 1013 l 929 769 q 909 773 928 769 q 858 781 890 776 q 788 789 826 785 q 592 800 683 800 q 464 742 501 800 q 399 511 426 685 q 378 356 378 388 q 378 303 378 324 q 392 269 379 283 q 426 248 406 256 q 486 240 447 240 q 552 256 525 240 q 588 289 579 272 l 596 304 l 613 408 l 544 408 l 571 575 q 819 610 642 610 q 914 606 864 610 l 817 0 l 626 0 l 561 68 q 490 14 524 28 q 353 -8 442 -8 q 206 36 265 -8 q 103 338 103 111 q 128 570 103 442 q 183 779 154 699 q 259 919 211 860 z "},"ĝ":{"ha":778,"x_min":7,"x_max":839,"o":"m 296 838 l 465 1032 l 647 1032 l 743 838 l 589 838 l 546 908 l 465 838 l 296 838 m 310 -165 q 449 -33 428 -165 l 464 61 q 321 8 415 8 q 117 117 168 8 q 86 267 86 182 q 100 435 86 351 q 213 687 129 619 q 425 754 296 754 q 671 740 554 754 q 839 704 788 726 l 715 -75 q 486 -371 675 -326 q 397 -382 440 -382 q 318 -378 353 -382 l 7 -344 l 35 -165 l 310 -165 m 400 515 q 383 467 388 488 q 367 383 378 446 q 356 289 356 321 q 358 244 356 257 q 416 203 367 203 q 490 229 465 203 l 544 568 l 479 568 q 400 515 422 568 z "},"Ğ":{"ha":858,"x_min":103,"x_max":963,"o":"m 572 1254 q 637 1201 572 1201 q 706 1267 701 1201 l 799 1267 q 747 1153 792 1194 q 630 1111 703 1111 q 518 1151 557 1111 q 479 1250 479 1190 q 479 1267 479 1258 l 572 1267 q 572 1254 572 1260 m 259 919 q 283 948 259 919 q 376 1003 307 978 q 579 1028 446 1028 q 769 1020 713 1028 q 963 974 826 1013 l 929 769 q 909 773 928 769 q 858 781 890 776 q 788 789 826 785 q 592 800 683 800 q 464 742 501 800 q 399 511 426 685 q 378 356 378 388 q 378 303 378 324 q 392 269 379 283 q 426 248 406 256 q 486 240 447 240 q 552 256 525 240 q 588 289 579 272 l 596 304 l 613 408 l 544 408 l 571 575 q 819 610 642 610 q 914 606 864 610 l 817 0 l 626 0 l 561 68 q 490 14 524 28 q 353 -8 442 -8 q 206 36 265 -8 q 103 338 103 111 q 128 570 103 442 q 183 779 154 699 q 259 919 211 860 z "},"ğ":{"ha":778,"x_min":7,"x_max":839,"o":"m 467 981 q 531 928 467 928 q 600 993 596 928 l 693 993 q 642 879 686 921 q 524 838 597 838 q 413 877 451 838 q 374 976 374 917 q 374 993 374 985 l 467 993 q 467 981 467 986 m 310 -165 q 449 -33 428 -165 l 464 61 q 321 8 415 8 q 117 117 168 8 q 86 267 86 182 q 100 435 86 351 q 213 687 129 619 q 425 754 296 754 q 671 740 554 754 q 839 704 788 726 l 715 -75 q 486 -371 675 -326 q 397 -382 440 -382 q 318 -378 353 -382 l 7 -344 l 35 -165 l 310 -165 m 400 515 q 383 467 388 488 q 367 383 378 446 q 356 289 356 321 q 358 244 356 257 q 416 203 367 203 q 490 229 465 203 l 544 568 l 479 568 q 400 515 422 568 z "},"Ġ":{"ha":858,"x_min":103,"x_max":963,"o":"m 590 1308 l 715 1308 q 743 1283 743 1308 q 742 1274 743 1279 l 721 1143 q 685 1111 717 1111 l 560 1111 q 531 1143 526 1111 l 551 1274 q 590 1308 556 1308 m 259 919 q 283 948 259 919 q 376 1003 307 978 q 579 1028 446 1028 q 769 1020 713 1028 q 963 974 826 1013 l 929 769 q 909 773 928 769 q 858 781 890 776 q 788 789 826 785 q 592 800 683 800 q 464 742 501 800 q 399 511 426 685 q 378 356 378 388 q 378 303 378 324 q 392 269 379 283 q 426 248 406 256 q 486 240 447 240 q 552 256 525 240 q 588 289 579 272 l 596 304 l 613 408 l 544 408 l 571 575 q 819 610 642 610 q 914 606 864 610 l 817 0 l 626 0 l 561 68 q 490 14 524 28 q 353 -8 442 -8 q 206 36 265 -8 q 103 338 103 111 q 128 570 103 442 q 183 779 154 699 q 259 919 211 860 z "},"ġ":{"ha":778,"x_min":7,"x_max":839,"o":"m 478 1035 l 603 1035 q 631 1010 631 1035 q 629 1000 631 1006 l 608 869 q 572 838 604 838 l 447 838 q 418 869 414 838 l 439 1000 q 478 1035 443 1035 m 310 -165 q 449 -33 428 -165 l 464 61 q 321 8 415 8 q 117 117 168 8 q 86 267 86 182 q 100 435 86 351 q 213 687 129 619 q 425 754 296 754 q 671 740 554 754 q 839 704 788 726 l 715 -75 q 486 -371 675 -326 q 397 -382 440 -382 q 318 -378 353 -382 l 7 -344 l 35 -165 l 310 -165 m 400 515 q 383 467 388 488 q 367 383 378 446 q 356 289 356 321 q 358 244 356 257 q 416 203 367 203 q 490 229 465 203 l 544 568 l 479 568 q 400 515 422 568 z "},"Ģ":{"ha":858,"x_min":103,"x_max":963,"o":"m 361 -292 q 340 -283 347 -292 q 335 -261 332 -275 l 357 -118 q 393 -85 363 -85 l 532 -85 q 557 -110 557 -85 q 557 -118 557 -114 l 526 -306 q 496 -374 519 -349 q 443 -406 472 -400 q 400 -412 414 -412 q 338 -407 357 -412 l 318 -401 l 331 -324 q 371 -306 365 -325 q 375 -292 372 -303 l 361 -292 m 259 919 q 283 948 259 919 q 376 1003 307 978 q 579 1028 446 1028 q 769 1020 713 1028 q 963 974 826 1013 l 929 769 q 909 773 928 769 q 858 781 890 776 q 788 789 826 785 q 592 800 683 800 q 464 742 501 800 q 399 511 426 685 q 378 356 378 388 q 378 303 378 324 q 392 269 379 283 q 426 248 406 256 q 486 240 447 240 q 552 256 525 240 q 588 289 579 272 l 596 304 l 613 408 l 544 408 l 571 575 q 819 610 642 610 q 914 606 864 610 l 817 0 l 626 0 l 561 68 q 490 14 524 28 q 353 -8 442 -8 q 206 36 265 -8 q 103 338 103 111 q 128 570 103 442 q 183 779 154 699 q 259 919 211 860 z "},"ģ":{"ha":907,"x_min":39,"x_max":871,"o":"m 342 -165 q 481 -33 460 -165 l 496 61 q 353 8 447 8 q 150 117 200 8 q 118 267 118 182 q 132 435 118 351 q 244 687 161 619 q 457 754 328 754 q 703 740 586 754 q 871 704 819 726 l 747 -75 q 517 -371 707 -326 q 428 -382 472 -382 q 350 -378 385 -382 l 39 -344 l 67 -165 l 342 -165 m 431 515 q 415 467 419 488 q 399 383 410 446 q 388 289 388 321 q 390 244 388 257 q 448 203 399 203 q 522 229 497 203 l 576 568 l 511 568 q 431 515 454 568 m 576 1165 q 591 1168 576 1165 q 634 1171 606 1171 q 682 1165 663 1171 l 701 1160 l 689 1082 q 685 1082 688 1082 q 646 1056 649 1082 l 644 1050 l 658 1050 q 685 1019 689 1050 l 663 876 q 625 843 656 843 l 486 843 q 463 868 463 843 q 463 876 463 872 l 492 1064 q 523 1133 499 1107 q 576 1165 547 1160 z "},"Ĥ":{"ha":883,"x_min":63,"x_max":999,"o":"m 401 1107 l 571 1301 l 753 1301 l 849 1107 l 694 1107 l 651 1178 l 571 1107 l 401 1107 m 63 0 l 224 1017 l 493 1017 l 429 613 l 665 613 l 729 1017 l 999 1017 l 838 0 l 568 0 l 626 371 l 390 371 l 332 0 l 63 0 z "},"ĥ":{"ha":771,"x_min":-43,"x_max":729,"o":"m 43 1169 l 213 1364 l 394 1364 l 490 1169 l 336 1169 l 293 1240 l 213 1169 l 43 1169 m 451 510 q 415 550 451 550 q 306 499 336 550 l 226 0 l -43 0 l 129 1086 l 397 1086 l 331 665 q 384 706 361 690 q 451 736 407 722 q 549 750 496 750 q 683 713 639 750 q 728 608 728 674 q 718 472 728 543 l 643 0 l 374 0 l 449 478 q 451 510 451 497 z "},"Ħ":{"ha":944,"x_min":64,"x_max":1058,"o":"m 64 0 l 178 717 l 88 717 l 103 819 l 193 819 l 225 1017 l 494 1017 l 463 819 l 699 819 l 731 1017 l 1000 1017 l 968 819 l 1058 819 l 1043 717 l 953 717 l 839 0 l 569 0 l 628 371 l 392 371 l 333 0 l 64 0 m 431 613 l 667 613 l 683 717 l 447 717 l 431 613 z "},"ħ":{"ha":807,"x_min":83,"x_max":856,"o":"m 578 510 q 542 550 578 550 q 432 499 463 550 l 353 0 l 83 0 l 215 833 l 132 833 l 149 936 l 232 936 l 256 1086 l 524 1086 l 500 936 l 632 936 l 615 833 l 483 833 l 457 665 q 503 694 471 674 q 551 724 535 715 q 685 750 604 750 q 808 713 765 750 q 854 608 854 674 q 844 472 854 543 l 769 0 l 500 0 l 575 478 q 578 510 578 497 z "},"Ĩ":{"ha":392,"x_min":63,"x_max":631,"o":"m 333 1303 q 404 1278 364 1303 q 472 1254 444 1254 q 482 1254 476 1254 q 611 1310 549 1254 l 631 1207 q 458 1107 549 1107 q 380 1131 428 1107 q 306 1156 332 1156 q 168 1107 239 1156 l 146 1200 q 333 1303 235 1303 m 63 0 l 224 1017 l 493 1017 l 332 0 l 63 0 z "},"ĩ":{"ha":350,"x_min":28,"x_max":538,"o":"m 240 1028 q 313 1003 272 1028 q 379 979 353 979 q 389 979 383 979 q 518 1035 456 979 l 538 932 q 365 832 456 832 q 287 856 335 832 q 213 881 239 881 q 75 832 146 881 l 53 925 q 240 1028 142 1028 m 28 0 l 144 738 l 414 738 l 297 0 l 28 0 z "},"Ī":{"ha":392,"x_min":63,"x_max":596,"o":"m 169 1107 l 190 1236 l 596 1236 l 575 1107 l 169 1107 m 63 0 l 224 1017 l 493 1017 l 332 0 l 63 0 z "},"ī":{"ha":350,"x_min":28,"x_max":511,"o":"m 85 832 l 106 961 l 511 961 l 490 832 l 85 832 m 28 0 l 144 738 l 414 738 l 297 0 l 28 0 z "},"Į":{"ha":392,"x_min":54,"x_max":493,"o":"m 189 -83 q 192 -103 189 -93 q 240 -139 204 -136 q 251 -139 246 -140 l 232 -264 q 190 -269 211 -269 q 140 -262 169 -269 q 86 -222 110 -254 q 54 -142 54 -178 q 78 -67 54 -106 q 161 1 103 -29 l 256 1 q 189 -83 189 -40 m 63 0 l 224 1017 l 493 1017 l 332 0 l 63 0 z "},"į":{"ha":350,"x_min":33,"x_max":471,"o":"m 35 -140 q 140 4 35 -51 l 236 4 q 168 -81 168 -37 q 172 -100 168 -90 q 219 -136 183 -133 q 232 -136 226 -137 l 213 -261 q 155 -269 188 -269 q 78 -235 122 -269 q 35 -140 35 -201 m 40 0 l 157 738 l 426 738 l 310 0 l 40 0 m 236 1036 l 444 1036 q 471 1011 471 1036 q 469 1001 471 1007 l 444 839 q 408 807 440 807 l 200 807 q 172 832 172 807 q 172 839 172 835 l 197 1001 q 236 1036 201 1036 z "},"İ":{"ha":392,"x_min":63,"x_max":494,"o":"m 342 1304 l 467 1304 q 494 1279 494 1304 q 493 1269 494 1275 l 472 1139 q 436 1107 468 1107 l 311 1107 q 282 1139 278 1107 l 303 1269 q 342 1304 307 1304 m 63 0 l 224 1017 l 493 1017 l 332 0 l 63 0 z "},"ı":{"ha":350,"x_min":28,"x_max":414,"o":"m 28 0 l 144 738 l 414 738 l 297 0 l 28 0 z "},"Ĵ":{"ha":492,"x_min":32,"x_max":710,"o":"m 263 1107 l 432 1301 l 614 1301 l 710 1107 l 556 1107 l 513 1178 l 432 1107 l 263 1107 m 32 35 l 65 249 q 217 299 193 249 q 238 383 228 322 l 338 1017 l 607 1017 l 482 229 q 375 25 458 74 q 205 -6 321 -6 q 32 35 89 -6 z "},"ĵ":{"ha":368,"x_min":0,"x_max":540,"o":"m 0 -375 l 176 738 l 446 738 l 328 -6 q 306 -133 317 -82 q 269 -255 294 -185 q 206 -375 243 -325 l 0 -375 m 93 825 l 263 1019 l 444 1019 l 540 825 l 386 825 l 328 896 l 249 825 l 93 825 z "},"Ķ":{"ha":917,"x_min":63,"x_max":1051,"o":"m 343 -285 q 322 -276 329 -285 q 317 -253 314 -268 l 339 -111 q 375 -78 344 -78 l 514 -78 q 539 -103 539 -78 q 539 -111 539 -107 l 508 -299 q 478 -367 501 -342 q 425 -399 454 -393 q 382 -406 396 -406 q 319 -400 339 -406 l 300 -394 l 313 -317 q 346 -311 339 -318 q 357 -285 353 -303 l 343 -285 m 63 0 l 224 1017 l 479 1017 l 415 617 l 457 617 l 728 1017 l 1051 1017 l 692 485 l 890 0 l 588 0 l 449 389 l 381 389 l 319 0 l 63 0 z "},"ķ":{"ha":783,"x_min":47,"x_max":885,"o":"m 321 -285 q 299 -276 307 -285 q 294 -253 292 -268 l 317 -111 q 353 -78 322 -78 l 492 -78 q 517 -103 517 -78 q 517 -111 517 -107 l 486 -299 q 456 -367 479 -342 q 403 -399 432 -393 q 360 -406 374 -406 q 297 -400 317 -406 l 278 -394 l 290 -317 q 324 -311 317 -318 q 335 -285 331 -303 l 321 -285 m 47 -3 l 219 1083 l 489 1083 l 394 492 q 603 735 543 556 l 885 735 q 788 517 846 593 q 658 397 731 442 l 840 -3 l 549 -3 l 419 308 l 367 307 l 317 -3 l 47 -3 z "},"ĸ":{"ha":835,"x_min":47,"x_max":936,"o":"m 47 0 l 164 738 l 435 738 l 390 458 l 422 458 l 631 738 l 936 738 l 653 342 l 800 0 l 507 0 l 403 272 l 361 272 l 318 0 l 47 0 z "},"Ĺ":{"ha":729,"x_min":33,"x_max":685,"o":"m 226 1100 l 365 1299 l 567 1299 l 378 1100 l 226 1100 m 399 242 l 685 242 l 646 0 l 235 0 q 76 53 132 0 q 35 165 35 93 q 39 217 35 189 l 165 1017 l 435 1017 l 324 314 q 342 250 315 260 q 399 242 364 242 z "},"ĺ":{"ha":447,"x_min":78,"x_max":628,"o":"m 288 1171 l 426 1369 l 628 1369 l 439 1171 l 288 1171 m 364 318 q 360 256 360 278 q 365 217 360 233 q 394 186 369 201 q 457 157 447 157 l 432 0 l 282 0 q 118 63 174 0 q 78 190 78 107 q 85 263 78 224 l 215 1088 l 485 1088 l 364 318 z "},"Ļ":{"ha":729,"x_min":90,"x_max":742,"o":"m 289 -285 q 267 -276 275 -285 q 263 -253 260 -268 l 285 -111 q 321 -78 290 -78 l 460 -78 q 485 -103 485 -78 q 485 -111 485 -107 l 454 -299 q 424 -367 447 -342 q 371 -399 400 -393 q 328 -406 342 -406 q 265 -400 285 -406 l 246 -394 l 258 -317 q 292 -311 285 -318 q 303 -285 299 -303 l 289 -285 m 456 242 l 742 242 l 703 0 l 292 0 q 133 53 189 0 q 92 165 92 93 q 96 217 92 189 l 222 1017 l 492 1017 l 381 314 q 400 250 372 260 q 456 242 421 242 z "},"ļ":{"ha":447,"x_min":78,"x_max":485,"o":"m 129 -285 q 108 -276 115 -285 q 103 -253 100 -268 l 125 -111 q 161 -78 131 -78 l 300 -78 q 325 -103 325 -78 q 325 -111 325 -107 l 294 -299 q 264 -367 288 -342 q 211 -399 240 -393 q 168 -406 182 -406 q 106 -400 125 -406 l 86 -394 l 99 -317 q 132 -311 125 -318 q 143 -285 139 -303 l 129 -285 m 364 318 q 360 256 360 278 q 365 217 360 233 q 394 186 369 201 q 457 157 447 157 l 432 0 l 282 0 q 118 63 174 0 q 78 190 78 107 q 85 263 78 224 l 215 1088 l 485 1088 l 364 318 z "},"Ľ":{"ha":729,"x_min":90,"x_max":742,"o":"m 456 242 l 742 242 l 703 0 l 292 0 q 133 53 189 0 q 92 165 92 93 q 96 217 92 189 l 222 1017 l 492 1017 l 381 314 q 400 250 372 260 q 456 242 421 242 m 542 793 l 556 979 l 569 1072 l 728 1072 l 714 979 l 671 793 l 542 793 z "},"ľ":{"ha":585,"x_min":79,"x_max":722,"o":"m 364 318 q 360 256 360 278 q 365 217 360 233 q 394 186 369 201 q 458 157 449 157 l 433 0 l 269 0 q 81 189 81 0 q 86 263 81 222 l 217 1088 l 486 1088 l 364 318 m 535 807 l 549 993 l 564 1086 l 722 1086 l 707 993 l 664 807 l 535 807 z "},"Ł":{"ha":732,"x_min":25,"x_max":743,"o":"m 457 242 l 743 242 l 706 0 l 294 0 q 136 53 192 0 q 93 167 93 93 q 97 217 93 190 l 135 450 l 25 407 l 43 519 l 153 563 l 224 1017 l 493 1017 l 440 678 l 574 731 l 556 618 l 422 565 l 382 314 q 400 250 374 260 q 457 242 422 242 z "},"ł":{"ha":458,"x_min":26,"x_max":575,"o":"m 371 318 q 367 256 367 278 q 372 217 367 233 q 401 186 376 201 q 465 157 456 157 l 440 0 l 290 0 q 126 63 182 0 q 86 190 86 107 q 93 263 86 224 l 132 507 l 26 465 l 44 578 l 149 619 l 224 1088 l 493 1088 l 438 733 l 575 789 l 557 676 l 419 621 l 371 318 z "},"Ń":{"ha":940,"x_min":63,"x_max":1056,"o":"m 578 1107 l 717 1306 l 918 1306 l 729 1107 l 578 1107 m 63 0 l 224 1017 l 496 1017 l 704 490 l 786 1017 l 1056 1017 l 894 0 l 625 0 l 414 513 l 333 0 l 63 0 z "},"ń":{"ha":771,"x_min":47,"x_max":819,"o":"m 447 833 l 586 1032 l 788 1032 l 599 833 l 447 833 m 542 510 q 506 550 542 550 q 396 499 426 550 l 317 0 l 47 0 l 164 738 l 389 738 l 422 665 q 478 708 457 693 q 543 736 500 722 q 639 750 586 750 q 772 713 729 750 q 818 608 818 674 q 808 472 818 543 l 733 0 l 464 0 l 539 478 q 542 510 542 497 z "},"Ņ":{"ha":940,"x_min":63,"x_max":1056,"o":"m 378 -285 q 356 -276 364 -285 q 351 -253 349 -268 l 374 -111 q 410 -78 379 -78 l 549 -78 q 574 -103 574 -78 q 574 -111 574 -107 l 543 -299 q 513 -367 536 -342 q 460 -399 489 -393 q 417 -406 431 -406 q 354 -400 374 -406 l 335 -394 l 347 -317 q 381 -311 374 -318 q 392 -285 388 -303 l 378 -285 m 63 0 l 224 1017 l 496 1017 l 704 490 l 786 1017 l 1056 1017 l 894 0 l 625 0 l 414 513 l 333 0 l 63 0 z "},"ņ":{"ha":771,"x_min":47,"x_max":819,"o":"m 281 -285 q 259 -276 267 -285 q 254 -253 251 -268 l 276 -111 q 313 -78 282 -78 l 451 -78 q 476 -103 476 -78 q 476 -111 476 -107 l 446 -299 q 415 -367 439 -342 q 363 -399 392 -393 q 319 -406 333 -406 q 257 -400 276 -406 l 238 -394 l 250 -317 q 283 -311 276 -318 q 294 -285 290 -303 l 281 -285 m 542 510 q 506 550 542 550 q 396 499 426 550 l 317 0 l 47 0 l 164 738 l 389 738 l 422 665 q 478 708 457 693 q 543 736 500 722 q 639 750 586 750 q 772 713 729 750 q 818 608 818 674 q 808 472 818 543 l 733 0 l 464 0 l 539 478 q 542 510 542 497 z "},"Ň":{"ha":940,"x_min":63,"x_max":1056,"o":"m 461 1301 l 615 1301 l 664 1231 l 739 1301 l 908 1301 l 739 1107 l 564 1107 l 461 1301 m 63 0 l 224 1017 l 496 1017 l 704 490 l 786 1017 l 1056 1017 l 894 0 l 625 0 l 414 513 l 333 0 l 63 0 z "},"ň":{"ha":771,"x_min":47,"x_max":819,"o":"m 329 1028 l 483 1028 l 532 957 l 607 1028 l 776 1028 l 607 833 l 432 833 l 329 1028 m 542 510 q 506 550 542 550 q 396 499 426 550 l 317 0 l 47 0 l 164 738 l 389 738 l 422 665 q 478 708 457 693 q 543 736 500 722 q 639 750 586 750 q 772 713 729 750 q 818 608 818 674 q 808 472 818 543 l 733 0 l 464 0 l 539 478 q 542 510 542 497 z "},"Ŋ":{"ha":940,"x_min":63,"x_max":1056,"o":"m 532 -362 q 443 -357 490 -362 l 474 -167 q 596 -131 572 -167 q 611 -83 607 -112 l 625 0 l 414 506 l 333 0 l 63 0 l 224 1017 l 496 1017 l 704 497 l 786 1017 l 1056 1017 l 881 -89 q 532 -362 836 -362 z "},"ŋ":{"ha":779,"x_min":47,"x_max":819,"o":"m 542 510 q 506 550 542 550 q 396 499 426 550 l 317 0 l 47 0 l 164 738 l 389 738 l 422 665 q 468 694 438 674 q 515 725 499 715 q 646 750 563 750 q 772 713 729 750 q 818 608 818 674 q 808 472 818 543 l 733 0 l 721 -69 q 662 -220 707 -156 q 560 -315 617 -285 q 371 -372 453 -372 q 364 -372 368 -372 l 332 -222 q 415 -182 394 -206 q 451 -75 436 -158 l 539 478 q 542 510 542 497 z "},"Ō":{"ha":925,"x_min":113,"x_max":990,"o":"m 444 1107 l 465 1236 l 871 1236 l 850 1107 l 444 1107 m 446 1010 q 472 1015 446 1010 q 535 1022 499 1019 q 630 1024 571 1024 q 732 1018 689 1024 q 818 997 775 1013 q 892 954 861 981 q 989 665 989 869 q 973 474 989 576 q 934 299 957 372 q 886 176 911 226 q 824 92 861 126 q 752 39 786 58 q 667 10 718 19 q 500 -6 586 -6 q 369 0 414 -6 q 282 21 325 6 q 208 61 239 36 q 113 335 113 144 q 129 530 113 424 q 171 713 146 636 q 222 842 196 790 q 288 928 247 893 q 360 982 328 964 q 446 1010 393 1000 m 498 763 q 482 754 498 763 q 442 686 465 744 q 401 517 419 628 q 383 358 383 406 q 392 289 383 310 q 504 236 410 236 q 638 289 599 236 q 703 501 676 342 q 721 631 721 593 q 691 759 721 736 q 596 782 661 782 q 498 763 531 782 z "},"ō":{"ha":768,"x_min":83,"x_max":799,"o":"m 313 832 l 333 961 l 739 961 l 718 832 l 313 832 m 501 749 q 756 647 692 749 q 799 465 799 582 q 784 310 799 401 q 743 156 769 219 q 667 56 717 93 q 551 6 617 19 q 382 -7 486 -7 q 128 92 193 -7 q 83 271 83 157 q 98 417 83 326 q 141 576 113 507 q 221 684 169 646 q 335 735 272 722 q 501 749 399 749 m 470 549 q 443 549 470 549 q 401 523 415 549 q 369 392 386 497 q 351 258 351 288 q 353 221 351 229 q 415 193 361 193 q 483 217 469 193 q 515 345 497 240 q 533 477 533 450 q 532 514 533 504 q 470 549 525 549 z "},"Ő":{"ha":925,"x_min":113,"x_max":1032,"o":"m 451 1107 l 590 1306 l 792 1306 l 603 1107 l 451 1107 m 692 1107 l 831 1306 l 1032 1306 l 843 1107 l 692 1107 m 446 1010 q 472 1015 446 1010 q 535 1022 499 1019 q 630 1024 571 1024 q 732 1018 689 1024 q 818 997 775 1013 q 892 954 861 981 q 989 665 989 869 q 973 474 989 576 q 934 299 957 372 q 886 176 911 226 q 824 92 861 126 q 752 39 786 58 q 667 10 718 19 q 500 -6 586 -6 q 369 0 414 -6 q 282 21 325 6 q 208 61 239 36 q 113 335 113 144 q 129 530 113 424 q 171 713 146 636 q 222 842 196 790 q 288 928 247 893 q 360 982 328 964 q 446 1010 393 1000 m 498 763 q 482 754 498 763 q 442 686 465 744 q 401 517 419 628 q 383 358 383 406 q 392 289 383 310 q 504 236 410 236 q 638 289 599 236 q 703 501 676 342 q 721 631 721 593 q 691 759 721 736 q 596 782 661 782 q 498 763 531 782 z "},"ő":{"ha":768,"x_min":83,"x_max":900,"o":"m 319 832 l 458 1031 l 660 1031 l 471 832 l 319 832 m 560 832 l 699 1031 l 900 1031 l 711 832 l 560 832 m 501 749 q 756 647 692 749 q 799 465 799 582 q 784 310 799 401 q 743 156 769 219 q 667 56 717 93 q 551 6 617 19 q 382 -7 486 -7 q 128 92 193 -7 q 83 271 83 157 q 98 417 83 326 q 141 576 113 507 q 221 684 169 646 q 335 735 272 722 q 501 749 399 749 m 470 549 q 443 549 470 549 q 401 523 415 549 q 369 392 386 497 q 351 258 351 288 q 353 221 351 229 q 415 193 361 193 q 483 217 469 193 q 515 345 497 240 q 533 477 533 450 q 532 514 533 504 q 470 549 525 549 z "},"Œ":{"ha":1399,"x_min":83,"x_max":1451,"o":"m 833 975 q 994 1018 896 1018 q 1028 1017 1010 1018 q 1451 994 1292 1017 l 1415 768 l 1072 768 q 993 719 1006 768 q 988 690 990 708 l 979 635 l 1321 619 l 1286 396 l 940 383 l 929 317 q 947 253 921 264 q 1003 244 968 244 l 1332 244 l 1297 19 q 953 -3 1154 1 l 881 -4 q 860 -4 869 -4 q 715 36 776 -4 q 442 -6 629 -6 q 181 61 258 -6 q 83 335 83 144 q 100 530 83 424 q 142 713 117 636 q 192 842 167 790 q 258 928 218 893 q 331 982 299 964 q 417 1010 364 1000 q 623 1024 492 1024 q 833 975 754 1024 m 469 763 q 452 754 469 763 q 413 686 436 744 q 372 517 390 628 q 354 358 354 406 q 361 289 354 310 q 475 236 381 236 q 608 289 569 236 q 674 501 647 342 q 692 631 692 593 q 662 759 692 736 q 567 782 632 782 q 469 763 501 782 z "},"œ":{"ha":1151,"x_min":76,"x_max":1222,"o":"m 913 751 q 1221 544 1221 751 q 1191 393 1221 456 q 1117 303 1161 331 q 939 247 1031 247 l 922 247 q 789 267 822 253 q 788 247 788 256 q 808 206 788 218 q 935 193 829 193 q 1171 219 1042 193 l 1138 31 q 836 -15 997 -15 q 719 -9 781 -15 q 614 28 658 -3 q 362 -7 538 -7 q 121 92 186 -7 q 76 271 76 157 q 91 417 76 326 q 134 576 106 507 q 214 684 163 646 q 328 735 265 722 q 503 749 392 749 q 682 711 614 749 q 913 751 757 749 m 463 549 q 436 549 463 549 q 394 523 408 549 q 362 392 379 497 q 344 258 344 288 q 347 221 344 229 q 408 193 354 193 q 476 217 463 193 q 508 345 490 240 q 526 477 526 450 q 525 514 526 504 q 463 549 518 549 m 808 439 q 853 432 831 432 q 891 435 876 432 q 922 451 906 438 q 944 508 944 469 q 897 551 944 551 q 835 522 853 551 q 808 439 817 493 z "},"Ŕ":{"ha":832,"x_min":44,"x_max":900,"o":"m 489 1100 l 628 1299 l 829 1299 l 640 1100 l 489 1100 m 632 1017 q 847 928 775 1017 q 900 751 900 863 q 861 536 900 636 q 822 458 842 485 q 775 414 803 432 q 693 385 738 390 l 835 0 l 528 0 l 424 374 l 374 379 l 314 0 l 44 0 l 206 1017 l 632 1017 m 528 582 q 594 606 578 582 q 617 669 611 629 q 624 731 624 710 q 561 788 624 788 l 440 788 l 407 582 l 528 582 z "},"ŕ":{"ha":569,"x_min":47,"x_max":690,"o":"m 350 832 l 489 1031 l 690 1031 l 501 832 l 350 832 m 418 644 q 493 715 444 685 q 590 744 542 744 q 658 738 638 744 l 618 479 l 508 479 q 397 444 419 479 q 379 396 385 425 l 317 0 l 47 0 l 164 738 l 403 738 l 418 644 z "},"Ŗ":{"ha":832,"x_min":61,"x_max":917,"o":"m 328 -285 q 306 -276 314 -285 q 301 -253 299 -268 l 324 -111 q 360 -78 329 -78 l 499 -78 q 524 -103 524 -78 q 524 -111 524 -107 l 493 -299 q 463 -367 486 -342 q 410 -399 439 -393 q 367 -406 381 -406 q 304 -400 324 -406 l 285 -394 l 297 -317 q 331 -311 324 -318 q 342 -285 338 -303 l 328 -285 m 649 1017 q 864 928 792 1017 q 917 751 917 863 q 878 536 917 636 q 839 458 858 485 q 792 414 819 432 q 710 385 754 390 l 851 0 l 544 0 l 440 374 l 390 379 l 331 0 l 61 0 l 222 1017 l 649 1017 m 544 582 q 611 606 594 582 q 634 669 628 629 q 640 731 640 710 q 578 788 640 788 l 457 788 l 424 582 l 544 582 z "},"ŗ":{"ha":569,"x_min":50,"x_max":679,"o":"m 93 -285 q 72 -276 79 -285 q 67 -253 64 -268 l 89 -111 q 125 -78 94 -78 l 264 -78 q 289 -103 289 -78 q 289 -111 289 -107 l 258 -299 q 228 -367 251 -342 q 175 -399 204 -393 q 132 -406 146 -406 q 69 -400 89 -406 l 50 -394 l 63 -317 q 96 -311 89 -318 q 107 -285 103 -303 l 93 -285 m 439 644 q 514 715 465 685 q 610 744 563 744 q 679 738 658 744 l 639 479 l 529 479 q 417 444 440 479 q 400 396 406 425 l 338 0 l 68 0 l 185 738 l 424 738 l 439 644 z "},"Ř":{"ha":832,"x_min":61,"x_max":917,"o":"m 399 1301 l 553 1301 l 601 1231 l 676 1301 l 846 1301 l 676 1107 l 501 1107 l 399 1301 m 649 1017 q 864 928 792 1017 q 917 751 917 863 q 878 536 917 636 q 839 458 858 485 q 792 414 819 432 q 710 385 754 390 l 851 0 l 544 0 l 440 374 l 390 379 l 331 0 l 61 0 l 222 1017 l 649 1017 m 544 582 q 611 606 594 582 q 634 669 628 629 q 640 731 640 710 q 578 788 640 788 l 457 788 l 424 582 l 544 582 z "},"ř":{"ha":569,"x_min":47,"x_max":681,"o":"m 233 1026 l 388 1026 l 436 956 l 511 1026 l 681 1026 l 511 832 l 336 832 l 233 1026 m 418 644 q 493 715 444 685 q 590 744 542 744 q 658 738 638 744 l 618 479 l 508 479 q 397 444 419 479 q 379 396 385 425 l 317 0 l 47 0 l 164 738 l 403 738 l 418 644 z "},"Ś":{"ha":814,"x_min":89,"x_max":899,"o":"m 493 1110 l 632 1308 l 833 1308 l 644 1110 l 493 1110 m 465 231 q 531 244 510 231 q 557 288 551 257 l 560 310 q 561 332 561 319 q 496 371 561 371 l 399 371 q 214 436 271 371 q 153 565 160 500 q 150 626 150 603 q 153 672 150 650 l 168 789 q 317 997 192 953 q 550 1026 396 1026 q 899 979 778 1026 l 865 769 q 547 783 740 783 q 464 774 486 783 q 435 722 442 764 l 432 707 q 431 681 431 696 q 442 653 431 667 q 506 640 453 640 l 608 640 q 734 610 683 640 q 803 535 785 579 q 836 392 836 458 q 831 346 836 368 l 828 258 q 800 131 825 183 q 743 51 775 78 q 660 9 711 24 q 573 -8 608 -6 q 427 -11 538 -11 q 249 -4 317 -11 q 89 36 182 3 l 122 246 q 465 231 271 231 z "},"ś":{"ha":708,"x_min":68,"x_max":750,"o":"m 401 832 l 540 1031 l 742 1031 l 553 832 l 401 832 m 414 203 q 444 226 440 203 q 422 258 451 258 l 290 258 q 139 325 192 258 q 100 447 100 374 q 104 497 100 471 l 115 561 q 340 744 144 744 q 667 733 601 744 q 750 694 733 721 l 725 536 l 415 536 q 389 531 394 536 q 381 510 383 525 q 379 490 378 494 q 386 483 381 485 q 407 481 394 481 l 546 481 q 696 414 654 481 q 726 301 726 364 q 722 253 726 278 l 710 171 q 496 -7 682 -7 q 419 -7 479 -7 q 314 -6 358 -7 q 208 -1 269 -6 q 68 44 97 6 l 93 203 l 414 203 z "},"Ŝ":{"ha":814,"x_min":89,"x_max":899,"o":"m 346 1110 l 515 1304 l 697 1304 l 793 1110 l 639 1110 l 596 1181 l 515 1110 l 346 1110 m 465 231 q 531 244 510 231 q 557 288 551 257 l 560 310 q 561 332 561 319 q 496 371 561 371 l 399 371 q 214 436 271 371 q 153 565 160 500 q 150 626 150 603 q 153 672 150 650 l 168 789 q 317 997 192 953 q 550 1026 396 1026 q 899 979 778 1026 l 865 769 q 547 783 740 783 q 464 774 486 783 q 435 722 442 764 l 432 707 q 431 681 431 696 q 442 653 431 667 q 506 640 453 640 l 608 640 q 734 610 683 640 q 803 535 785 579 q 836 392 836 458 q 831 346 836 368 l 828 258 q 800 131 825 183 q 743 51 775 78 q 660 9 711 24 q 573 -8 608 -6 q 427 -11 538 -11 q 249 -4 317 -11 q 89 36 182 3 l 122 246 q 465 231 271 231 z "},"ŝ":{"ha":708,"x_min":68,"x_max":750,"o":"m 253 832 l 422 1026 l 604 1026 l 700 832 l 546 832 l 503 903 l 422 832 l 253 832 m 414 203 q 444 226 440 203 q 422 258 451 258 l 290 258 q 139 325 192 258 q 100 447 100 374 q 104 497 100 471 l 115 561 q 340 744 144 744 q 667 733 601 744 q 750 694 733 721 l 725 536 l 415 536 q 389 531 394 536 q 381 510 383 525 q 379 490 378 494 q 386 483 381 485 q 407 481 394 481 l 546 481 q 696 414 654 481 q 726 301 726 364 q 722 253 726 278 l 710 171 q 496 -7 682 -7 q 419 -7 479 -7 q 314 -6 358 -7 q 208 -1 269 -6 q 68 44 97 6 l 93 203 l 414 203 z "},"Ş":{"ha":814,"x_min":89,"x_max":899,"o":"m 346 -265 l 261 -265 l 279 -156 l 333 -135 q 370 -112 364 -122 q 383 -62 376 -103 l 546 -62 q 485 -218 529 -171 q 346 -265 440 -265 m 465 231 q 531 244 510 231 q 557 288 551 257 l 560 310 q 561 332 561 319 q 496 371 561 371 l 399 371 q 214 436 271 371 q 153 565 160 500 q 150 626 150 603 q 153 672 150 650 l 168 789 q 317 997 192 953 q 550 1026 396 1026 q 899 979 778 1026 l 865 769 q 547 783 740 783 q 464 774 486 783 q 435 722 442 764 l 432 707 q 431 681 431 696 q 442 653 431 667 q 506 640 453 640 l 608 640 q 734 610 683 640 q 803 535 785 579 q 836 392 836 458 q 831 346 836 368 l 828 258 q 800 131 825 183 q 743 51 775 78 q 660 9 711 24 q 573 -8 608 -6 q 427 -11 538 -11 q 249 -4 317 -11 q 89 36 182 3 l 122 246 q 465 231 271 231 z "},"ş":{"ha":708,"x_min":68,"x_max":750,"o":"m 285 -257 l 200 -257 l 218 -147 l 272 -126 q 309 -104 303 -114 q 322 -54 315 -94 l 485 -54 q 424 -210 468 -162 q 285 -257 379 -257 m 414 203 q 444 226 440 203 q 422 258 451 258 l 290 258 q 139 325 192 258 q 100 447 100 374 q 104 497 100 471 l 115 561 q 340 744 144 744 q 667 733 601 744 q 750 694 733 721 l 725 536 l 415 536 q 389 531 394 536 q 381 510 383 525 q 379 490 378 494 q 386 483 381 485 q 407 481 394 481 l 546 481 q 696 414 654 481 q 726 301 726 364 q 722 253 726 278 l 710 171 q 496 -7 682 -7 q 419 -7 479 -7 q 314 -6 358 -7 q 208 -1 269 -6 q 68 44 97 6 l 93 203 l 414 203 z "},"Š":{"ha":814,"x_min":89,"x_max":899,"o":"m 376 1304 l 531 1304 l 579 1233 l 654 1304 l 824 1304 l 654 1110 l 479 1110 l 376 1304 m 465 231 q 531 244 510 231 q 557 288 551 257 l 560 310 q 561 332 561 319 q 496 371 561 371 l 399 371 q 214 436 271 371 q 153 565 160 500 q 150 626 150 603 q 153 672 150 650 l 168 789 q 317 997 192 953 q 550 1026 396 1026 q 899 979 778 1026 l 865 769 q 547 783 740 783 q 464 774 486 783 q 435 722 442 764 l 432 707 q 431 681 431 696 q 442 653 431 667 q 506 640 453 640 l 608 640 q 734 610 683 640 q 803 535 785 579 q 836 392 836 458 q 831 346 836 368 l 828 258 q 800 131 825 183 q 743 51 775 78 q 660 9 711 24 q 573 -8 608 -6 q 427 -11 538 -11 q 249 -4 317 -11 q 89 36 182 3 l 122 246 q 465 231 271 231 z "},"š":{"ha":708,"x_min":68,"x_max":750,"o":"m 281 1026 l 435 1026 l 483 956 l 558 1026 l 728 1026 l 558 832 l 383 832 l 281 1026 m 414 203 q 444 226 440 203 q 422 258 451 258 l 290 258 q 139 325 192 258 q 100 447 100 374 q 104 497 100 471 l 115 561 q 340 744 144 744 q 667 733 601 744 q 750 694 733 721 l 725 536 l 415 536 q 389 531 394 536 q 381 510 383 525 q 379 490 378 494 q 386 483 381 485 q 407 481 394 481 l 546 481 q 696 414 654 481 q 726 301 726 364 q 722 253 726 278 l 710 171 q 496 -7 682 -7 q 419 -7 479 -7 q 314 -6 358 -7 q 208 -1 269 -6 q 68 44 97 6 l 93 203 l 414 203 z "},"Ţ":{"ha":829,"x_min":118,"x_max":946,"o":"m 260 -251 l 175 -251 l 193 -142 l 247 -121 q 284 -99 278 -108 q 297 -49 290 -89 l 460 -49 q 399 -204 443 -157 q 260 -251 354 -251 m 118 775 l 157 1017 l 946 1017 l 907 775 l 643 775 l 521 0 l 251 0 l 374 775 l 118 775 z "},"ţ":{"ha":521,"x_min":56,"x_max":582,"o":"m 185 -253 l 100 -253 l 118 -143 l 172 -122 q 209 -100 203 -110 q 222 -50 215 -90 l 385 -50 q 324 -206 368 -158 q 185 -253 279 -253 m 392 319 q 388 254 388 278 q 392 215 388 231 q 421 185 397 199 q 485 156 475 156 l 460 -1 l 293 -1 q 147 64 200 -1 q 108 193 108 110 q 114 264 108 226 l 160 553 l 56 553 l 76 686 l 189 739 l 261 944 l 492 944 l 458 739 l 582 739 l 553 553 l 429 553 l 392 319 z "},"Ť":{"ha":829,"x_min":150,"x_max":978,"o":"m 404 1301 l 558 1301 l 607 1231 l 682 1301 l 851 1301 l 682 1107 l 507 1107 l 404 1301 m 150 775 l 189 1017 l 978 1017 l 939 775 l 675 775 l 553 0 l 283 0 l 406 775 l 150 775 z "},"ť":{"ha":535,"x_min":103,"x_max":788,"o":"m 439 319 q 435 254 435 278 q 440 215 435 231 q 468 185 444 199 q 532 156 522 156 l 507 -1 l 340 -1 q 194 64 247 -1 q 156 193 156 110 q 161 264 156 226 l 207 553 l 103 553 l 124 686 l 236 739 l 308 944 l 539 944 l 506 739 l 629 739 l 600 553 l 476 553 l 439 319 m 600 833 l 614 1019 l 629 1113 l 788 1113 l 772 1019 l 729 833 l 600 833 z "},"Ŧ":{"ha":857,"x_min":150,"x_max":978,"o":"m 150 775 l 189 1017 l 978 1017 l 939 775 l 675 775 l 646 589 l 757 589 l 740 486 l 629 486 l 553 0 l 283 0 l 360 486 l 249 486 l 265 589 l 376 589 l 406 775 l 150 775 z "},"ŧ":{"ha":521,"x_min":74,"x_max":615,"o":"m 425 319 q 421 254 421 278 q 426 215 421 231 q 454 185 431 199 q 518 156 508 156 l 493 -1 l 326 -1 q 181 64 233 -1 q 142 193 142 110 q 147 264 142 226 l 160 344 l 74 344 l 90 447 l 176 447 l 193 553 l 89 553 l 110 686 l 222 739 l 293 944 l 524 944 l 492 739 l 615 739 l 586 553 l 463 553 l 446 447 l 535 447 l 518 344 l 429 344 l 425 319 z "},"Ũ":{"ha":906,"x_min":117,"x_max":1021,"o":"m 594 1303 q 665 1278 625 1303 q 733 1254 706 1254 q 743 1254 738 1254 q 872 1310 810 1254 l 892 1207 q 719 1107 810 1107 q 641 1131 689 1107 q 567 1156 593 1156 q 429 1107 500 1156 l 407 1200 q 594 1303 496 1303 m 582 -7 l 539 -7 q 497 -7 519 -7 q 447 -7 474 -7 q 389 -5 419 -7 q 320 5 358 -3 q 255 28 282 13 q 200 67 228 43 q 128 214 150 106 q 118 290 118 257 q 119 363 118 324 q 133 486 119 401 l 219 1017 l 489 1017 l 399 444 q 386 324 386 358 q 500 235 386 235 q 574 248 544 235 q 619 294 603 261 q 660 444 646 346 l 750 1017 l 1021 1017 l 938 403 q 789 65 900 167 q 719 22 756 35 q 582 -7 642 -7 z "},"ũ":{"ha":769,"x_min":69,"x_max":842,"o":"m 474 1028 q 546 1003 506 1028 q 613 979 586 979 q 622 979 617 979 q 751 1035 689 979 l 771 932 q 599 832 689 832 q 520 856 568 832 q 446 881 472 881 q 308 832 379 881 l 286 925 q 474 1028 375 1028 m 346 228 q 383 188 346 188 q 493 239 463 188 l 572 738 l 842 738 l 724 0 l 499 0 l 467 72 q 373 7 418 26 q 244 -12 328 -12 q 117 25 160 -12 q 71 129 71 64 q 81 265 71 194 l 156 738 l 425 738 l 349 260 q 346 228 346 240 z "},"Ū":{"ha":906,"x_min":117,"x_max":1021,"o":"m 432 1107 l 453 1236 l 858 1236 l 838 1107 l 432 1107 m 582 -7 l 539 -7 q 497 -7 519 -7 q 447 -7 474 -7 q 389 -5 419 -7 q 320 5 358 -3 q 255 28 282 13 q 200 67 228 43 q 128 214 150 106 q 118 290 118 257 q 119 363 118 324 q 133 486 119 401 l 219 1017 l 489 1017 l 399 444 q 386 324 386 358 q 500 235 386 235 q 574 248 544 235 q 619 294 603 261 q 660 444 646 346 l 750 1017 l 1021 1017 l 938 403 q 789 65 900 167 q 719 22 756 35 q 582 -7 642 -7 z "},"ū":{"ha":769,"x_min":69,"x_max":842,"o":"m 311 832 l 332 961 l 738 961 l 717 832 l 311 832 m 346 228 q 383 188 346 188 q 493 239 463 188 l 572 738 l 842 738 l 724 0 l 499 0 l 467 72 q 373 7 418 26 q 244 -12 328 -12 q 117 25 160 -12 q 71 129 71 64 q 81 265 71 194 l 156 738 l 425 738 l 349 260 q 346 228 346 240 z "},"Ŭ":{"ha":906,"x_min":117,"x_max":1021,"o":"m 593 1250 q 658 1197 593 1197 q 726 1263 722 1197 l 819 1263 q 768 1149 813 1190 q 651 1107 724 1107 q 539 1147 578 1107 q 500 1246 500 1186 q 500 1263 500 1254 l 593 1263 q 593 1250 593 1256 m 582 -7 l 539 -7 q 497 -7 519 -7 q 447 -7 474 -7 q 389 -5 419 -7 q 320 5 358 -3 q 255 28 282 13 q 200 67 228 43 q 128 214 150 106 q 118 290 118 257 q 119 363 118 324 q 133 486 119 401 l 219 1017 l 489 1017 l 399 444 q 386 324 386 358 q 500 235 386 235 q 574 248 544 235 q 619 294 603 261 q 660 444 646 346 l 750 1017 l 1021 1017 l 938 403 q 789 65 900 167 q 719 22 756 35 q 582 -7 642 -7 z "},"ŭ":{"ha":769,"x_min":69,"x_max":842,"o":"m 472 975 q 537 922 472 922 q 606 988 601 922 l 699 988 q 647 874 692 915 q 530 832 603 832 q 418 872 457 832 q 379 971 379 911 q 379 988 379 979 l 472 988 q 472 975 472 981 m 346 228 q 383 188 346 188 q 493 239 463 188 l 572 738 l 842 738 l 724 0 l 499 0 l 467 72 q 373 7 418 26 q 244 -12 328 -12 q 117 25 160 -12 q 71 129 71 64 q 81 265 71 194 l 156 738 l 425 738 l 349 260 q 346 228 346 240 z "},"Ů":{"ha":906,"x_min":117,"x_max":1021,"o":"m 562 1342 q 585 1364 562 1342 q 667 1385 608 1385 q 761 1347 725 1385 q 797 1260 797 1310 q 752 1149 797 1192 q 648 1107 707 1107 q 552 1144 589 1107 q 515 1232 515 1182 q 562 1342 515 1300 m 621 1213 q 627 1207 621 1213 q 653 1200 633 1200 q 686 1213 672 1200 q 703 1246 700 1226 q 693 1279 706 1265 q 661 1293 681 1293 q 627 1279 642 1293 q 610 1246 613 1265 q 621 1213 608 1226 m 582 -7 l 539 -7 q 497 -7 519 -7 q 447 -7 474 -7 q 389 -5 419 -7 q 320 5 358 -3 q 255 28 282 13 q 200 67 228 43 q 128 214 150 106 q 118 290 118 257 q 119 363 118 324 q 133 486 119 401 l 219 1017 l 489 1017 l 399 444 q 386 324 386 358 q 500 235 386 235 q 574 248 544 235 q 619 294 603 261 q 660 444 646 346 l 750 1017 l 1021 1017 l 938 403 q 789 65 900 167 q 719 22 756 35 q 582 -7 642 -7 z "},"ů":{"ha":769,"x_min":69,"x_max":842,"o":"m 440 1067 q 463 1089 440 1067 q 544 1110 486 1110 q 639 1072 603 1110 q 675 985 675 1035 q 630 874 675 917 q 526 832 585 832 q 430 869 467 832 q 393 957 393 907 q 440 1067 393 1025 m 499 938 q 505 932 499 938 q 531 925 511 925 q 564 938 550 925 q 581 971 578 951 q 571 1004 583 990 q 539 1018 558 1018 q 505 1004 519 1018 q 488 971 490 990 q 499 938 486 951 m 346 228 q 383 188 346 188 q 493 239 463 188 l 572 738 l 842 738 l 724 0 l 499 0 l 467 72 q 373 7 418 26 q 244 -12 328 -12 q 117 25 160 -12 q 71 129 71 64 q 81 265 71 194 l 156 738 l 425 738 l 349 260 q 346 228 346 240 z "},"Ű":{"ha":906,"x_min":117,"x_max":1021,"o":"m 439 1107 l 578 1306 l 779 1306 l 590 1107 l 439 1107 m 679 1107 l 818 1306 l 1019 1306 l 831 1107 l 679 1107 m 582 -7 l 539 -7 q 497 -7 519 -7 q 447 -7 474 -7 q 389 -5 419 -7 q 320 5 358 -3 q 255 28 282 13 q 200 67 228 43 q 128 214 150 106 q 118 290 118 257 q 119 363 118 324 q 133 486 119 401 l 219 1017 l 489 1017 l 399 444 q 386 324 386 358 q 500 235 386 235 q 574 248 544 235 q 619 294 603 261 q 660 444 646 346 l 750 1017 l 1021 1017 l 938 403 q 789 65 900 167 q 719 22 756 35 q 582 -7 642 -7 z "},"ű":{"ha":769,"x_min":69,"x_max":899,"o":"m 318 832 l 457 1031 l 658 1031 l 469 832 l 318 832 m 558 832 l 697 1031 l 899 1031 l 710 832 l 558 832 m 346 228 q 383 188 346 188 q 493 239 463 188 l 572 738 l 842 738 l 724 0 l 499 0 l 467 72 q 373 7 418 26 q 244 -12 328 -12 q 117 25 160 -12 q 71 129 71 64 q 81 265 71 194 l 156 738 l 425 738 l 349 260 q 346 228 346 240 z "},"Ų":{"ha":906,"x_min":117,"x_max":1021,"o":"m 324 -143 q 429 1 324 -54 l 525 1 q 457 -83 457 -40 q 461 -103 457 -93 q 508 -139 472 -136 q 521 -139 515 -140 l 501 -264 q 444 -272 476 -272 q 367 -238 411 -272 q 324 -143 324 -204 m 582 -7 l 539 -7 q 497 -7 519 -7 q 447 -7 474 -7 q 389 -5 419 -7 q 320 5 358 -3 q 255 28 282 13 q 200 67 228 43 q 128 214 150 106 q 118 290 118 257 q 119 363 118 324 q 133 486 119 401 l 219 1017 l 489 1017 l 399 444 q 386 324 386 358 q 500 235 386 235 q 574 248 544 235 q 619 294 603 261 q 660 444 646 346 l 750 1017 l 1021 1017 l 938 403 q 789 65 900 167 q 719 22 756 35 q 582 -7 642 -7 z "},"ų":{"ha":769,"x_min":69,"x_max":842,"o":"m 456 -147 q 561 -3 456 -58 l 657 -3 q 589 -87 589 -44 q 593 -107 589 -97 q 640 -143 604 -140 q 653 -143 647 -144 l 633 -268 q 576 -276 608 -276 q 499 -242 543 -276 q 456 -147 456 -208 m 346 228 q 383 188 346 188 q 493 239 463 188 l 572 738 l 842 738 l 724 0 l 499 0 l 467 72 q 373 7 418 26 q 244 -12 328 -12 q 117 25 160 -12 q 71 129 71 64 q 81 265 71 194 l 156 738 l 425 738 l 349 260 q 346 228 346 240 z "},"Ŵ":{"ha":1413,"x_min":181,"x_max":1542,"o":"m 593 1107 l 763 1301 l 944 1301 l 1040 1107 l 886 1107 l 843 1178 l 763 1107 l 593 1107 m 181 1017 l 464 1017 l 521 344 l 758 1017 l 1042 1017 l 953 792 l 1014 344 l 1258 1017 l 1542 1017 l 1132 0 l 818 0 l 769 335 l 642 0 l 307 0 l 181 1017 z "},"ŵ":{"ha":1185,"x_min":104,"x_max":1261,"o":"m 476 828 l 646 1022 l 828 1022 l 924 828 l 769 828 l 726 899 l 646 828 l 476 828 m 839 694 q 808 536 839 622 l 800 514 l 839 290 l 947 549 q 999 740 992 639 l 1257 740 q 1261 690 1261 717 q 1192 451 1261 585 l 964 0 l 656 0 l 624 197 l 543 0 l 218 0 l 104 738 l 390 738 l 418 290 l 526 549 q 578 740 571 639 l 836 740 q 839 694 839 718 z "},"Ŷ":{"ha":943,"x_min":181,"x_max":1069,"o":"m 415 1107 l 585 1301 l 767 1301 l 863 1107 l 708 1107 l 665 1178 l 585 1107 l 415 1107 m 181 1017 l 474 1017 l 540 567 l 765 1017 l 1069 1017 l 632 278 l 588 0 l 318 0 l 363 278 l 181 1017 z "},"ŷ":{"ha":799,"x_min":106,"x_max":867,"o":"m 268 828 l 438 1022 l 619 1022 l 715 828 l 561 828 l 518 899 l 438 828 l 268 828 m 865 682 q 811 450 865 581 l 631 0 q 138 -419 468 -381 q 121 -422 126 -421 l 121 -233 q 272 -135 217 -189 q 367 0 326 -82 q 139 217 153 0 l 106 738 l 385 738 l 396 271 q 447 217 397 219 l 567 547 q 603 739 594 624 l 861 739 q 865 682 865 711 z "},"Ÿ":{"ha":943,"x_min":181,"x_max":1069,"o":"m 419 1260 q 437 1274 419 1260 q 492 1289 454 1289 q 549 1265 529 1289 q 569 1224 569 1242 q 535 1138 569 1168 q 463 1107 500 1107 q 405 1131 425 1107 q 385 1174 385 1156 q 419 1260 385 1231 m 774 1260 q 791 1274 774 1260 q 846 1289 808 1289 q 903 1265 883 1289 q 924 1224 924 1242 q 889 1138 924 1168 q 817 1107 854 1107 q 759 1131 779 1107 q 739 1172 739 1154 q 774 1260 739 1231 m 181 1017 l 474 1017 l 540 567 l 765 1017 l 1069 1017 l 632 278 l 588 0 l 318 0 l 363 278 l 181 1017 z "},"Ź":{"ha":767,"x_min":28,"x_max":901,"o":"m 483 1107 l 622 1306 l 824 1306 l 635 1107 l 483 1107 m 28 0 l 67 242 l 540 775 l 150 775 l 189 1017 l 901 1017 l 863 775 l 415 242 l 779 242 l 740 0 l 28 0 z "},"ź":{"ha":678,"x_min":44,"x_max":774,"o":"m 396 832 l 535 1031 l 736 1031 l 547 832 l 396 832 m 44 1 l 78 213 l 401 524 l 107 524 l 140 738 l 774 738 l 740 524 l 439 215 l 690 215 l 657 1 l 44 1 z "},"Ż":{"ha":767,"x_min":28,"x_max":901,"o":"m 529 1304 l 654 1304 q 682 1279 682 1304 q 681 1269 682 1275 l 660 1139 q 624 1107 656 1107 l 499 1107 q 469 1139 465 1107 l 490 1269 q 529 1304 494 1304 m 28 0 l 67 242 l 540 775 l 150 775 l 189 1017 l 901 1017 l 863 775 l 415 242 l 779 242 l 740 0 l 28 0 z "},"ż":{"ha":678,"x_min":44,"x_max":774,"o":"m 442 1029 l 567 1029 q 594 1004 594 1029 q 593 994 594 1000 l 572 864 q 536 832 568 832 l 411 832 q 382 864 378 832 l 403 994 q 442 1029 407 1029 m 44 1 l 78 213 l 401 524 l 107 524 l 140 738 l 774 738 l 740 524 l 439 215 l 690 215 l 657 1 l 44 1 z "},"Ž":{"ha":767,"x_min":28,"x_max":901,"o":"m 367 1301 l 521 1301 l 569 1231 l 644 1301 l 814 1301 l 644 1107 l 469 1107 l 367 1301 m 28 0 l 67 242 l 540 775 l 150 775 l 189 1017 l 901 1017 l 863 775 l 415 242 l 779 242 l 740 0 l 28 0 z "},"ž":{"ha":678,"x_min":44,"x_max":774,"o":"m 279 1026 l 433 1026 l 482 956 l 557 1026 l 726 1026 l 557 832 l 382 832 l 279 1026 m 44 1 l 78 213 l 401 524 l 107 524 l 140 738 l 774 738 l 740 524 l 439 215 l 690 215 l 657 1 l 44 1 z "},"ƒ":{"ha":826,"x_min":-24,"x_max":981,"o":"m 771 1111 l 835 1114 q 868 1110 849 1114 q 899 1106 888 1107 q 928 1097 911 1104 q 981 1076 956 1089 l 929 911 l 876 911 q 775 860 811 911 q 704 703 739 810 l 697 682 l 829 682 l 771 496 l 639 496 l 521 122 q 379 -161 467 -50 q 175 -283 292 -272 q 117 -286 149 -286 q 42 -276 86 -286 q -24 -249 -3 -267 l 29 -83 l 85 -83 q 194 -17 154 -83 q 251 122 226 39 l 369 496 l 267 496 l 325 682 l 428 682 l 435 703 q 573 988 489 875 q 771 1111 657 1101 z "},"ˆ":{"ha":424,"x_min":51,"x_max":499,"o":"m 51 738 l 221 932 l 403 932 l 499 738 l 344 738 l 301 808 l 221 738 l 51 738 z "},"ˇ":{"ha":518,"x_min":15,"x_max":463,"o":"m 15 932 l 169 932 l 218 861 l 293 932 l 463 932 l 293 738 l 118 738 l 15 932 z "},"˘":{"ha":340,"x_min":74,"x_max":394,"o":"m 168 882 q 233 829 168 829 q 301 894 297 829 l 394 894 q 343 781 388 822 q 226 739 299 739 q 114 778 153 739 q 75 878 75 818 q 75 894 75 886 l 168 894 q 168 882 168 888 z "},"˙":{"ha":214,"x_min":132,"x_max":344,"o":"m 192 910 l 317 910 q 344 885 344 910 q 343 875 344 881 l 322 744 q 286 713 318 713 l 161 713 q 132 744 128 713 l 153 875 q 192 910 157 910 z "},"˚":{"ha":358,"x_min":168,"x_max":453,"o":"m 216 974 q 239 995 216 974 q 321 1017 263 1017 q 416 979 379 1017 q 453 892 453 942 q 407 781 453 824 q 302 739 361 739 q 206 776 243 739 q 169 864 169 814 q 216 974 169 932 m 346 913 q 340 919 346 913 q 315 925 335 925 q 280 910 296 925 q 264 876 264 894 q 276 844 264 857 q 307 832 288 832 q 340 844 326 832 q 357 881 357 861 q 346 913 357 900 z "},"˛":{"ha":275,"x_min":176,"x_max":379,"o":"m 178 -144 q 283 0 178 -56 l 379 0 q 311 -85 311 -42 q 315 -104 311 -94 q 363 -140 326 -137 q 375 -140 369 -142 l 356 -265 q 298 -274 331 -274 q 222 -240 265 -274 q 178 -144 178 -206 z "},"˜":{"ha":561,"x_min":156,"x_max":640,"o":"m 343 933 q 415 909 375 933 q 482 885 456 885 q 492 885 486 885 q 621 940 558 885 l 640 838 q 468 738 558 738 q 390 762 438 738 q 315 786 342 786 q 178 738 249 786 l 156 831 q 343 933 244 933 z "},"˝":{"ha":657,"x_min":186,"x_max":767,"o":"m 186 738 l 325 936 l 526 936 l 338 738 l 186 738 m 426 738 l 565 936 l 767 936 l 578 738 l 426 738 z "},"̸":{"ha":857,"x_min":89,"x_max":929,"o":"m 711 1017 q 928 792 928 1017 q 921 722 928 757 l 849 239 q 549 0 813 0 l 321 0 q 133 82 190 0 q 89 232 89 143 q 94 294 89 261 l 164 764 q 483 1017 204 1017 l 711 1017 m 593 775 l 514 775 q 447 740 463 775 q 432 694 433 713 l 390 428 l 628 767 q 593 775 615 775 m 440 242 l 499 242 q 560 256 539 242 q 589 322 581 271 l 633 604 l 388 256 q 440 242 404 242 z "},"Ω":{"ha":1043,"x_min":58,"x_max":1083,"o":"m 392 424 q 457 233 392 311 l 419 0 l 58 0 l 93 219 l 225 233 q 144 383 167 278 q 132 497 132 440 q 142 615 132 554 q 174 735 151 676 q 238 848 196 793 q 336 942 279 903 q 671 1026 464 1026 q 885 987 796 1026 q 1017 881 974 947 q 1083 646 1083 775 q 1072 546 1083 597 q 1016 370 1054 435 q 907 232 978 306 l 1028 218 l 993 0 l 621 0 l 658 233 q 753 360 722 288 q 801 535 785 432 q 807 578 807 558 q 805 627 807 599 q 792 694 803 656 q 742 758 781 732 q 646 785 704 785 q 403 528 443 785 q 392 424 392 474 z "},"π":{"ha":901,"x_min":93,"x_max":938,"o":"m 783 286 q 781 244 781 267 q 795 208 781 222 q 865 194 810 194 l 918 194 l 893 36 q 708 -7 822 -7 q 542 65 594 -7 q 504 197 504 117 q 511 272 504 232 l 547 496 l 454 496 l 375 0 l 106 0 l 185 496 l 93 496 l 132 738 l 938 738 l 899 496 l 817 496 l 783 286 z "},"Ḃ":{"ha":835,"x_min":63,"x_max":919,"o":"m 547 1304 l 672 1304 q 700 1279 700 1304 q 699 1269 700 1275 l 678 1139 q 642 1107 674 1107 l 517 1107 q 488 1139 483 1107 l 508 1269 q 547 1304 513 1304 m 651 1017 q 871 933 807 1017 q 918 779 918 871 q 853 588 918 660 q 731 528 803 533 q 844 444 806 515 q 874 322 874 392 q 851 181 874 247 q 803 84 829 114 q 751 37 776 54 q 679 11 725 19 q 497 0 608 0 l 63 0 l 224 1017 l 651 1017 m 519 228 q 575 253 557 228 q 606 358 606 292 q 550 425 606 425 l 399 425 l 368 228 l 519 228 m 571 639 q 621 658 601 639 q 647 733 647 686 q 594 789 647 789 l 457 789 l 433 639 l 571 639 z "},"ḃ":{"ha":776,"x_min":33,"x_max":801,"o":"m 318 1371 l 443 1371 q 471 1346 471 1371 q 469 1336 471 1342 l 449 1206 q 413 1174 444 1174 l 288 1174 q 258 1206 254 1174 l 279 1336 q 318 1371 283 1371 m 604 749 q 800 515 800 749 q 784 319 800 426 q 743 147 768 211 q 679 50 718 83 q 596 4 640 17 q 490 -8 551 -8 q 392 10 428 -8 q 315 68 356 28 l 264 0 l 33 0 l 206 1090 l 475 1090 l 415 707 q 604 749 501 749 m 428 210 q 480 242 461 210 q 513 358 499 274 q 526 465 526 443 q 525 510 526 488 q 514 544 524 533 q 482 556 504 556 q 389 535 411 556 l 342 240 q 428 210 354 210 z "},"Ḋ":{"ha":897,"x_min":63,"x_max":953,"o":"m 549 1283 l 674 1283 q 701 1258 701 1283 q 700 1249 701 1254 l 679 1118 q 643 1086 675 1086 l 518 1086 q 489 1118 485 1086 l 510 1249 q 549 1283 514 1283 m 663 1017 q 951 650 951 1017 q 933 442 951 567 q 882 226 915 318 q 795 85 849 135 q 680 18 742 36 q 525 0 618 0 l 63 0 l 224 1017 l 663 1017 m 513 228 q 611 291 578 228 q 668 506 644 354 q 685 633 685 594 q 653 772 685 744 q 588 789 632 789 l 457 789 l 368 228 l 513 228 z "},"ḋ":{"ha":763,"x_min":81,"x_max":903,"o":"m 750 1371 l 875 1371 q 903 1346 903 1371 q 901 1336 903 1342 l 881 1206 q 844 1174 876 1174 l 719 1174 q 690 1206 686 1174 l 711 1336 q 750 1371 715 1371 m 190 670 q 222 709 190 670 q 396 749 254 749 q 572 707 500 749 l 633 1090 l 903 1090 l 731 0 l 500 0 l 469 68 q 375 10 417 29 q 276 -8 333 -8 q 108 111 156 -8 q 81 260 81 179 q 96 421 81 340 q 190 670 126 592 m 457 556 q 406 522 425 556 q 372 405 386 489 q 357 298 357 321 q 359 253 357 275 q 371 220 361 231 q 403 210 381 210 q 497 240 474 210 l 544 535 q 457 556 529 556 z "},"Ḟ":{"ha":774,"x_min":56,"x_max":897,"o":"m 554 1304 l 679 1304 q 707 1279 707 1304 q 706 1269 707 1275 l 685 1139 q 649 1107 681 1107 l 524 1107 q 494 1139 490 1107 l 515 1269 q 554 1304 519 1304 m 475 1017 q 897 994 738 1017 l 863 768 l 519 768 q 440 719 453 768 q 435 690 438 708 l 425 629 l 768 614 l 733 390 l 385 378 l 325 0 l 56 0 l 176 767 q 292 967 199 910 q 475 1017 374 1017 z "},"ḟ":{"ha":564,"x_min":101,"x_max":717,"o":"m 499 1372 l 624 1372 q 651 1347 651 1372 q 650 1338 651 1343 l 629 1207 q 593 1175 625 1175 l 468 1175 q 439 1207 435 1175 l 460 1338 q 499 1372 464 1372 m 253 875 q 342 1044 272 996 q 534 1092 411 1092 q 717 1058 657 1092 l 692 904 l 590 906 q 585 906 588 906 q 533 888 544 906 q 516 838 521 869 q 511 806 511 807 q 508 792 508 799 l 500 738 l 636 738 l 607 551 l 471 551 l 383 0 l 114 0 l 201 551 l 101 551 l 128 714 l 231 738 l 253 875 z "},"Ṁ":{"ha":1179,"x_min":43,"x_max":1240,"o":"m 760 1304 l 885 1304 q 913 1279 913 1304 q 911 1269 913 1275 l 890 1139 q 854 1107 886 1107 l 729 1107 q 700 1139 696 1107 l 721 1269 q 760 1304 725 1304 m 43 0 l 313 1017 l 688 1017 l 683 446 l 858 1017 l 1240 1017 l 1189 0 l 924 0 l 951 554 l 776 0 l 461 0 l 460 554 l 315 0 l 43 0 z "},"ṁ":{"ha":1190,"x_min":47,"x_max":1239,"o":"m 674 1031 l 799 1031 q 826 1006 826 1031 q 825 996 826 1001 l 804 865 q 768 833 800 833 l 643 833 q 614 865 610 833 l 635 996 q 674 1031 639 1031 m 542 510 q 506 550 542 550 q 396 499 426 550 l 317 0 l 47 0 l 164 738 l 389 738 l 422 665 q 482 709 463 696 q 544 736 501 722 q 639 750 586 750 q 806 665 772 750 q 879 706 851 692 q 958 735 907 721 q 1058 750 1008 750 q 1192 713 1149 750 q 1238 608 1238 674 q 1228 472 1238 543 l 1153 0 l 883 0 l 960 478 q 963 510 963 497 q 925 550 963 550 q 814 508 846 550 q 808 472 814 500 l 733 0 l 464 0 l 539 478 q 542 510 542 497 z "},"Ṗ":{"ha":833,"x_min":61,"x_max":917,"o":"m 547 1304 l 672 1304 q 700 1279 700 1304 q 699 1269 700 1275 l 678 1139 q 642 1107 674 1107 l 517 1107 q 488 1139 483 1107 l 508 1269 q 547 1304 513 1304 m 647 1017 q 847 942 765 1017 q 917 744 917 881 q 878 525 917 628 q 835 441 857 474 q 781 387 814 408 q 722 356 747 365 q 608 340 686 340 q 466 354 536 340 q 389 372 396 368 l 331 0 l 61 0 l 222 1017 l 647 1017 m 549 572 q 638 683 619 572 q 640 719 640 703 q 583 788 640 788 l 456 788 l 421 572 l 549 572 z "},"ṗ":{"ha":771,"x_min":-11,"x_max":804,"o":"m 457 1040 l 582 1040 q 610 1015 610 1040 q 608 1006 610 1011 l 588 875 q 551 843 583 843 l 426 843 q 397 875 393 843 l 418 1006 q 457 1040 422 1040 m 158 696 q 335 732 215 718 q 580 746 456 746 q 764 639 704 746 q 804 460 804 569 q 793 331 804 400 q 687 60 763 133 q 450 -14 611 -14 q 324 40 356 -14 l 258 -375 l -11 -375 l 158 696 m 350 207 q 417 181 368 181 q 485 219 465 181 q 525 382 506 258 q 536 454 536 425 q 533 503 536 483 q 472 560 526 560 l 407 560 l 350 207 z "},"Ṡ":{"ha":814,"x_min":89,"x_max":899,"o":"m 543 1307 l 668 1307 q 696 1282 696 1307 q 694 1272 696 1278 l 674 1142 q 638 1110 669 1110 l 513 1110 q 483 1142 479 1110 l 504 1272 q 543 1307 508 1307 m 122 246 q 465 231 271 231 q 531 244 510 231 q 557 288 551 257 l 560 310 q 561 332 561 319 q 496 371 561 371 l 399 371 q 214 436 271 371 q 153 565 160 500 q 150 626 150 603 q 153 672 150 650 l 168 789 q 317 997 192 953 q 550 1026 396 1026 q 899 979 778 1026 l 865 769 q 547 783 740 783 q 464 774 486 783 q 435 722 442 764 l 432 707 q 431 681 431 696 q 442 653 431 667 q 506 640 453 640 l 608 640 q 734 610 683 640 q 803 535 785 579 q 836 392 836 458 q 831 346 836 368 l 828 258 q 800 131 825 183 q 743 51 775 78 q 660 9 711 24 q 573 -8 608 -6 q 427 -11 538 -11 q 249 -4 317 -11 q 89 36 182 3 l 122 246 z "},"ṡ":{"ha":708,"x_min":68,"x_max":750,"o":"m 418 1025 l 543 1025 q 571 1000 571 1025 q 569 990 571 996 l 549 860 q 513 828 544 828 l 388 828 q 358 860 354 828 l 379 990 q 418 1025 383 1025 m 414 203 q 444 226 440 203 q 422 258 451 258 l 290 258 q 139 325 192 258 q 100 447 100 374 q 104 497 100 471 l 115 561 q 340 744 144 744 q 667 733 601 744 q 750 694 733 721 l 725 536 l 415 536 q 389 531 394 536 q 381 510 383 525 q 379 490 378 494 q 386 483 381 485 q 407 481 394 481 l 546 481 q 696 414 654 481 q 726 301 726 364 q 722 253 726 278 l 710 171 q 496 -7 682 -7 q 419 -7 479 -7 q 314 -6 358 -7 q 208 -1 269 -6 q 68 44 97 6 l 93 203 l 414 203 z "},"Ṫ":{"ha":829,"x_min":150,"x_max":978,"o":"m 567 1304 l 692 1304 q 719 1279 719 1304 q 718 1269 719 1275 l 697 1139 q 661 1107 693 1107 l 536 1107 q 507 1139 503 1107 l 528 1269 q 567 1304 532 1304 m 150 775 l 189 1017 l 978 1017 l 939 775 l 675 775 l 553 0 l 283 0 l 406 775 l 150 775 z "},"ṫ":{"ha":521,"x_min":89,"x_max":615,"o":"m 407 1225 l 532 1225 q 560 1200 560 1225 q 558 1190 560 1196 l 538 1060 q 501 1028 533 1028 l 376 1028 q 347 1060 343 1028 l 368 1190 q 407 1225 372 1225 m 425 319 q 421 254 421 278 q 426 215 421 231 q 454 185 431 199 q 518 156 508 156 l 493 -1 l 326 -1 q 181 64 233 -1 q 142 193 142 110 q 147 264 142 226 l 193 553 l 89 553 l 110 686 l 222 739 l 294 944 l 525 944 l 492 739 l 615 739 l 586 553 l 463 553 l 425 319 z "},"Ẁ":{"ha":1413,"x_min":181,"x_max":1542,"o":"m 675 1306 l 876 1306 l 951 1107 l 800 1107 l 675 1306 m 181 1017 l 464 1017 l 521 344 l 758 1017 l 1042 1017 l 953 792 l 1014 344 l 1258 1017 l 1542 1017 l 1132 0 l 818 0 l 769 335 l 642 0 l 307 0 l 181 1017 z "},"ẁ":{"ha":1185,"x_min":104,"x_max":1261,"o":"m 521 1026 l 722 1026 l 797 828 l 646 828 l 521 1026 m 839 694 q 808 536 839 622 l 800 514 l 839 290 l 947 549 q 999 740 992 639 l 1257 740 q 1261 690 1261 717 q 1192 451 1261 585 l 964 0 l 656 0 l 624 197 l 543 0 l 218 0 l 104 738 l 390 738 l 418 290 l 526 549 q 578 740 571 639 l 836 740 q 839 694 839 718 z "},"Ẃ":{"ha":1413,"x_min":181,"x_max":1542,"o":"m 800 1107 l 939 1306 l 1140 1306 l 951 1107 l 800 1107 m 181 1017 l 464 1017 l 521 344 l 758 1017 l 1042 1017 l 953 792 l 1014 344 l 1258 1017 l 1542 1017 l 1132 0 l 818 0 l 769 335 l 642 0 l 307 0 l 181 1017 z "},"ẃ":{"ha":1185,"x_min":104,"x_max":1261,"o":"m 660 821 l 799 1019 l 1000 1019 l 811 821 l 660 821 m 839 694 q 808 536 839 622 l 800 514 l 839 290 l 947 549 q 999 740 992 639 l 1257 740 q 1261 690 1261 717 q 1192 451 1261 585 l 964 0 l 656 0 l 624 197 l 543 0 l 218 0 l 104 738 l 390 738 l 418 290 l 526 549 q 578 740 571 639 l 836 740 q 839 694 839 718 z "},"Ẅ":{"ha":1413,"x_min":181,"x_max":1542,"o":"m 669 1260 q 687 1274 669 1260 q 742 1289 704 1289 q 799 1265 779 1289 q 819 1224 819 1242 q 785 1138 819 1168 q 713 1107 750 1107 q 655 1131 675 1107 q 635 1172 635 1154 q 669 1260 635 1231 m 1024 1260 q 1041 1274 1024 1260 q 1096 1289 1058 1289 q 1153 1265 1133 1289 q 1174 1224 1174 1242 q 1139 1138 1174 1168 q 1067 1107 1104 1107 q 1009 1131 1029 1107 q 989 1172 989 1154 q 1024 1260 989 1231 m 181 1017 l 464 1017 l 521 344 l 758 1017 l 1042 1017 l 953 792 l 1014 344 l 1258 1017 l 1542 1017 l 1132 0 l 818 0 l 769 335 l 642 0 l 307 0 l 181 1017 z "},"ẅ":{"ha":1185,"x_min":104,"x_max":1261,"o":"m 508 981 q 526 995 508 981 q 581 1010 543 1010 q 638 986 618 1010 q 658 944 658 963 q 624 858 658 889 q 551 828 589 828 q 494 852 514 828 q 474 894 474 876 q 508 981 474 951 m 863 981 q 880 995 863 981 q 935 1010 897 1010 q 992 986 972 1010 q 1013 944 1013 963 q 978 858 1013 889 q 906 828 943 828 q 848 851 868 828 q 828 893 828 875 q 863 981 828 951 m 839 694 q 808 536 839 622 l 800 514 l 839 290 l 947 549 q 999 740 992 639 l 1257 740 q 1261 690 1261 717 q 1192 451 1261 585 l 964 0 l 656 0 l 624 197 l 543 0 l 218 0 l 104 738 l 390 738 l 418 290 l 526 549 q 578 740 571 639 l 836 740 q 839 694 839 718 z "},"Ỳ":{"ha":943,"x_min":181,"x_max":1069,"o":"m 439 1306 l 640 1306 l 715 1107 l 564 1107 l 439 1306 m 181 1017 l 474 1017 l 540 567 l 765 1017 l 1069 1017 l 632 278 l 588 0 l 318 0 l 363 278 l 181 1017 z "},"ỳ":{"ha":799,"x_min":106,"x_max":867,"o":"m 308 1026 l 510 1026 l 585 828 l 433 828 l 308 1026 m 865 682 q 811 450 865 581 l 631 0 q 138 -419 468 -381 q 121 -422 126 -421 l 121 -233 q 272 -135 217 -189 q 367 0 326 -82 q 139 217 153 0 l 106 738 l 385 738 l 396 271 q 447 217 397 219 l 567 547 q 603 739 594 624 l 861 739 q 865 682 865 711 z "},"–":{"ha":626,"x_min":82,"x_max":774,"o":"m 82 292 l 117 507 l 774 507 l 739 292 l 82 292 z "},"—":{"ha":1022,"x_min":88,"x_max":1089,"o":"m 88 294 l 122 510 l 1089 510 l 1054 294 l 88 294 z "},"‘":{"ha":346,"x_min":167,"x_max":440,"o":"m 238 977 q 252 993 238 977 q 299 1020 265 1010 q 355 1033 332 1031 q 392 1035 378 1035 q 419 1032 406 1035 l 440 1028 l 424 928 q 374 885 382 928 l 371 864 l 386 864 q 417 838 417 864 q 415 829 417 833 l 390 671 q 349 633 383 633 l 194 633 q 167 661 167 633 q 168 671 167 665 l 203 893 q 238 977 211 944 z "},"’":{"ha":346,"x_min":169,"x_max":443,"o":"m 224 803 q 193 829 193 803 q 194 838 193 833 l 219 996 q 260 1033 225 1033 l 414 1033 q 443 1006 443 1033 q 442 996 443 1001 l 406 774 q 370 690 397 722 q 310 647 343 657 q 234 632 264 632 q 192 635 204 632 l 169 639 l 185 739 q 235 782 226 739 l 239 803 l 224 803 z "},"‚":{"ha":346,"x_min":43,"x_max":317,"o":"m 97 0 q 67 26 67 0 q 68 35 67 31 l 93 193 q 133 231 100 231 l 288 231 q 317 203 317 231 q 315 193 317 199 l 279 -29 q 244 -113 271 -81 q 183 -156 217 -146 q 108 -171 138 -171 q 64 -168 78 -171 l 43 -164 l 58 -64 q 108 -21 100 -64 l 113 0 l 97 0 z "},"“":{"ha":600,"x_min":161,"x_max":699,"o":"m 233 974 q 246 991 233 974 q 293 1017 260 1007 q 349 1030 326 1028 q 385 1032 371 1032 q 411 1029 399 1032 l 433 1025 l 418 925 q 368 882 376 925 l 365 861 l 381 861 q 411 835 411 861 q 410 826 411 831 l 385 668 q 343 631 378 631 l 189 631 q 161 658 161 631 q 163 668 161 663 l 197 890 q 233 974 206 942 m 498 974 q 511 991 498 974 q 558 1017 525 1007 q 614 1030 592 1028 q 650 1032 636 1032 q 678 1029 664 1032 l 699 1025 l 683 925 q 633 882 642 925 l 631 861 l 646 861 q 676 835 676 861 q 675 826 676 831 l 650 668 q 608 631 644 631 l 454 631 q 426 658 426 631 q 428 668 426 663 l 463 890 q 498 974 471 942 z "},"”":{"ha":600,"x_min":164,"x_max":703,"o":"m 218 800 q 188 826 188 800 q 189 835 188 831 l 214 993 q 254 1031 219 1031 l 408 1031 q 438 1003 438 1031 q 436 993 438 999 l 400 771 q 365 687 392 719 q 304 644 338 654 q 228 629 258 629 q 186 632 199 629 l 164 636 l 179 736 q 229 779 221 736 l 233 800 l 218 800 m 483 800 q 453 826 453 800 q 454 835 453 831 l 479 993 q 519 1031 486 1031 l 674 1031 q 703 1003 703 1031 q 701 993 703 999 l 665 771 q 630 687 657 719 q 569 644 603 654 q 494 629 524 629 q 450 632 464 629 l 429 636 l 444 736 q 494 779 486 736 l 499 800 l 483 800 z "},"„":{"ha":599,"x_min":38,"x_max":576,"o":"m 92 0 q 61 26 61 0 q 63 35 61 31 l 88 193 q 128 231 94 231 l 282 231 q 311 203 311 231 q 310 193 311 199 l 274 -29 q 238 -113 265 -81 q 178 -156 211 -146 q 102 -171 132 -171 q 58 -168 72 -171 l 38 -164 l 53 -64 q 103 -21 94 -64 l 107 0 l 92 0 m 357 0 q 326 26 326 0 q 328 35 326 31 l 353 193 q 393 231 358 231 l 547 231 q 576 203 576 231 q 575 193 576 199 l 539 -29 q 503 -113 531 -81 q 443 -156 476 -146 q 367 -171 397 -171 q 325 -168 338 -171 l 303 -164 l 318 -64 q 368 -21 360 -64 l 372 0 l 357 0 z "},"†":{"ha":785,"x_min":135,"x_max":813,"o":"m 135 589 l 168 796 l 356 817 l 414 1069 l 654 1069 l 632 817 l 813 796 l 779 589 l 593 568 l 467 -100 l 226 -100 l 317 568 l 135 589 z "},"‡":{"ha":742,"x_min":108,"x_max":851,"o":"m 108 172 l 142 379 l 335 406 l 356 568 l 175 589 l 207 796 l 396 817 l 453 1069 l 693 1069 l 672 817 l 851 796 l 819 589 l 632 568 l 601 404 l 786 379 l 753 172 l 553 149 l 507 -100 l 267 -100 l 300 146 l 108 172 z "},"•":{"ha":425,"x_min":132,"x_max":461,"o":"m 219 682 l 419 682 q 461 644 461 682 q 460 633 461 639 l 428 425 q 371 381 421 381 l 171 381 q 132 414 132 381 q 133 425 132 419 l 165 633 q 219 682 172 682 z "},"…":{"ha":1110,"x_min":171,"x_max":1179,"o":"m 236 229 l 393 229 q 424 204 424 229 q 422 194 424 200 l 396 32 q 357 0 390 0 l 200 0 q 171 32 167 0 l 197 194 q 236 229 201 229 m 575 194 q 614 229 579 229 l 771 229 q 801 204 801 229 q 800 194 801 200 l 774 32 q 735 0 768 0 l 578 0 q 549 32 544 0 l 575 194 m 992 229 l 1149 229 q 1179 204 1179 229 q 1178 194 1179 200 l 1151 32 q 1113 0 1146 0 l 956 0 q 926 32 922 0 l 953 194 q 992 229 957 229 z "},"‰":{"ha":1853,"x_min":92,"x_max":1897,"o":"m 343 1017 l 483 1017 q 619 960 581 1017 q 649 856 649 918 q 644 808 649 833 l 619 651 q 554 524 606 563 q 397 485 503 485 l 257 485 q 121 542 160 485 q 92 646 92 583 q 96 693 92 668 l 121 850 q 186 978 135 939 q 343 1017 238 1017 m 275 686 q 318 658 275 658 l 389 658 q 453 714 446 658 l 464 788 q 465 813 465 799 q 421 843 465 843 l 350 843 q 288 788 296 843 l 276 714 q 275 686 275 699 m 222 0 l 1014 1017 l 1186 1017 l 404 0 l 222 0 m 1021 536 l 1163 536 q 1299 479 1260 536 q 1328 375 1328 438 q 1324 328 1328 353 l 1299 171 q 1233 43 1285 82 q 1076 4 1182 4 l 935 4 q 800 61 838 4 q 771 165 771 103 q 775 213 771 188 l 800 369 q 865 497 814 458 q 1021 536 917 536 m 956 233 q 954 212 954 224 q 960 189 954 200 q 999 178 967 178 l 1068 178 q 1132 233 1125 178 l 1143 307 q 1144 332 1144 318 q 1100 363 1144 363 l 1031 363 q 967 307 975 363 l 956 233 m 1592 536 l 1732 536 q 1868 479 1829 536 q 1897 375 1897 438 q 1893 328 1897 353 l 1868 171 q 1803 43 1854 82 q 1646 4 1751 4 l 1506 4 q 1369 61 1408 4 q 1340 165 1340 103 q 1344 213 1340 188 l 1369 369 q 1435 497 1383 458 q 1592 536 1486 536 m 1525 233 q 1524 212 1524 224 q 1530 189 1524 200 q 1568 178 1536 178 l 1639 178 q 1701 233 1694 178 l 1713 307 q 1714 332 1714 319 q 1671 363 1714 363 l 1600 363 q 1536 307 1544 363 l 1525 233 z "},"‹":{"ha":386,"x_min":7,"x_max":451,"o":"m 7 492 l 338 774 l 451 642 l 275 492 l 406 339 l 254 203 l 7 492 z "},"›":{"ha":496,"x_min":117,"x_max":563,"o":"m 117 339 l 294 492 l 167 642 l 322 774 l 563 492 l 225 203 l 117 339 z "},"⁄":{"ha":549,"x_min":-71,"x_max":789,"o":"m -71 0 l 607 1069 l 789 1069 l 111 0 l -71 0 z "},"⁰":{"ha":596,"x_min":67,"x_max":671,"o":"m 325 1169 l 490 1169 q 636 1119 593 1169 q 671 1025 671 1079 q 668 992 671 1008 l 618 671 q 424 493 589 493 l 258 493 q 114 535 160 493 q 68 638 68 578 q 71 671 68 653 l 119 983 q 184 1123 135 1076 q 325 1169 233 1169 m 281 724 q 279 704 279 717 q 325 675 279 675 l 364 675 q 406 683 392 675 q 424 722 419 692 l 465 940 q 467 954 467 947 q 428 988 467 988 l 375 988 q 328 967 338 988 q 322 940 325 958 l 281 724 z "},"⁴":{"ha":654,"x_min":128,"x_max":747,"o":"m 128 694 l 399 1169 l 611 1169 l 404 790 l 497 790 l 517 911 l 557 982 l 722 982 l 692 790 l 747 790 l 722 635 l 658 606 l 644 496 l 450 496 l 468 604 l 160 604 l 128 694 z "},"⁵":{"ha":581,"x_min":100,"x_max":674,"o":"m 369 675 q 419 682 408 675 q 432 713 429 689 l 433 733 q 428 762 436 753 q 394 771 419 771 l 354 771 q 310 739 315 771 l 138 739 l 226 1169 l 674 1169 l 644 988 l 385 988 l 371 921 q 467 943 408 943 q 574 919 538 943 q 622 867 611 894 q 639 792 639 822 q 636 747 639 763 l 622 640 q 401 489 610 489 q 100 514 233 489 l 125 675 l 369 675 z "},"⁶":{"ha":569,"x_min":100,"x_max":671,"o":"m 200 1108 q 215 1124 200 1108 q 258 1153 229 1140 q 329 1174 286 1167 q 453 1181 372 1181 q 671 1153 535 1181 l 646 999 l 429 999 q 347 969 365 999 q 333 943 336 954 q 326 906 331 932 q 472 928 369 928 q 638 782 638 928 q 633 729 638 757 l 618 635 q 551 521 604 549 q 399 493 499 493 l 288 493 q 101 733 101 493 q 114 875 101 793 q 149 1017 126 957 q 200 1108 171 1076 m 436 751 q 403 771 436 771 l 303 771 q 300 727 300 747 q 309 691 300 707 q 363 675 318 675 l 383 675 q 417 681 407 675 q 429 706 428 688 l 433 733 q 436 751 436 744 z "},"⁷":{"ha":626,"x_min":139,"x_max":729,"o":"m 139 988 l 168 1169 l 692 1169 l 729 1088 l 381 493 l 160 493 l 450 988 l 139 988 z "},"⁸":{"ha":611,"x_min":144,"x_max":750,"o":"m 251 814 q 190 906 190 844 q 196 972 190 915 l 206 1033 q 288 1153 219 1126 q 429 1175 342 1175 l 586 1175 q 713 1135 676 1175 q 750 1039 750 1096 q 746 999 750 1019 l 739 958 q 712 903 735 931 q 643 871 689 876 q 700 814 689 863 q 706 763 706 788 q 701 718 706 739 l 690 647 q 608 513 674 539 q 550 496 575 499 q 476 493 525 493 l 321 493 q 144 632 144 493 q 149 676 144 653 l 156 725 q 251 814 167 803 m 356 689 q 394 664 356 664 l 444 664 q 488 678 481 664 q 492 697 490 685 l 497 726 q 460 760 503 760 l 410 760 q 374 751 383 760 q 363 726 365 743 l 357 697 q 356 689 356 693 m 397 950 q 397 938 397 944 q 436 919 397 919 l 485 919 q 528 932 522 919 q 532 950 531 938 l 536 971 q 538 986 538 978 q 497 1004 538 1004 l 449 1004 q 415 999 425 1004 q 401 971 406 993 l 397 950 z "},"⁹":{"ha":610,"x_min":129,"x_max":701,"o":"m 371 657 q 456 686 438 657 q 468 717 465 704 q 476 758 471 729 q 331 736 433 736 q 167 890 167 736 q 172 949 167 917 l 183 1026 q 248 1148 196 1115 q 386 1181 300 1181 q 400 1181 393 1181 l 524 1178 q 701 932 701 1178 q 688 774 701 864 q 652 626 674 685 q 600 539 631 568 q 543 499 569 510 q 375 474 485 474 q 129 501 265 474 l 154 657 l 371 657 m 372 950 q 369 928 369 936 q 372 915 369 921 q 400 908 375 908 l 500 908 q 504 953 504 933 q 494 986 504 974 q 439 999 485 999 l 419 999 q 387 992 396 999 q 375 964 378 985 l 372 950 z "},"₀":{"ha":636,"x_min":115,"x_max":719,"o":"m 374 397 l 539 397 q 686 347 642 397 q 719 253 719 307 q 717 219 719 236 l 667 -101 q 472 -279 638 -279 l 307 -279 q 163 -237 208 -279 q 117 -135 117 -194 q 119 -101 117 -119 l 168 211 q 233 351 183 304 q 374 397 282 397 m 329 -49 q 328 -68 328 -56 q 374 -97 328 -97 l 413 -97 q 454 -89 440 -97 q 472 -50 468 -81 l 514 168 q 515 182 515 175 q 476 215 515 215 l 424 215 q 378 194 386 215 q 371 168 374 186 l 329 -49 z "},"₁":{"ha":393,"x_min":28,"x_max":386,"o":"m 154 200 q 67 179 129 179 q 50 181 58 179 l 28 182 l 49 321 q 186 397 142 346 l 386 397 l 279 -279 l 76 -279 l 154 200 z "},"₂":{"ha":619,"x_min":46,"x_max":633,"o":"m 633 217 q 422 -97 633 49 l 585 -97 l 556 -279 l 46 -279 l 74 -104 q 289 36 161 -57 q 424 169 417 129 q 425 183 425 176 q 406 216 425 207 q 325 225 386 225 l 119 225 l 144 376 q 433 407 283 407 q 593 339 542 407 q 633 217 633 288 z "},"₃":{"ha":558,"x_min":-14,"x_max":563,"o":"m 214 -104 q 290 -99 272 -104 q 310 -71 307 -93 q 299 -37 315 -43 q 231 -29 282 -32 l 81 -24 l 106 142 l 260 147 q 340 158 331 150 q 351 179 350 165 l 351 185 q 336 213 356 207 q 271 218 317 218 l 56 218 l 79 369 q 346 401 167 401 q 403 400 374 401 q 522 352 483 399 q 561 249 561 306 q 558 211 561 231 l 553 175 q 444 58 536 71 q 514 -51 514 40 q 510 -103 514 -75 l 504 -131 q 288 -286 479 -286 q 201 -286 239 -286 q 156 -285 164 -286 q 126 -283 147 -285 q 94 -281 104 -282 q 66 -277 83 -279 q 36 -272 49 -275 q -14 -257 10 -265 l 11 -104 l 214 -104 z "},"₄":{"ha":613,"x_min":-11,"x_max":608,"o":"m -11 -78 l 260 397 l 472 397 l 265 18 l 358 18 l 378 139 l 418 210 l 583 210 l 553 18 l 608 18 l 583 -137 l 519 -167 l 506 -276 l 311 -276 l 329 -168 l 21 -168 l -11 -78 z "},"₅":{"ha":579,"x_min":0,"x_max":574,"o":"m 269 -97 q 319 -90 308 -97 q 332 -60 329 -83 l 333 -39 q 328 -10 336 -19 q 294 -1 319 -1 l 254 -1 q 210 -33 215 -1 l 38 -33 l 126 397 l 574 397 l 544 215 l 285 215 l 271 149 q 367 171 308 171 q 474 147 438 171 q 522 94 511 122 q 539 20 539 50 q 536 -25 539 -10 l 522 -132 q 301 -283 510 -283 q 0 -258 133 -283 l 25 -97 l 269 -97 z "},"₆":{"ha":569,"x_min":0,"x_max":571,"o":"m 100 336 q 115 352 100 336 q 158 381 129 368 q 229 401 186 394 q 353 408 272 408 q 571 381 435 408 l 546 226 l 329 226 q 247 197 265 226 q 233 171 236 182 q 226 133 231 160 q 372 156 269 156 q 538 10 538 156 q 533 -43 538 -15 l 518 -137 q 451 -251 504 -224 q 299 -279 399 -279 l 188 -279 q 1 -39 1 -279 q 14 103 1 21 q 49 244 26 185 q 100 336 71 304 m 336 -21 q 303 -1 336 -1 l 203 -1 q 200 -45 200 -25 q 209 -81 200 -65 q 263 -97 218 -97 l 283 -97 q 317 -91 307 -97 q 329 -67 328 -85 l 333 -39 q 336 -21 336 -28 z "},"₇":{"ha":626,"x_min":39,"x_max":629,"o":"m 39 215 l 68 397 l 592 397 l 629 315 l 281 -279 l 60 -279 l 350 215 l 39 215 z "},"₈":{"ha":611,"x_min":44,"x_max":650,"o":"m 151 42 q 90 133 90 72 q 96 200 90 143 l 106 261 q 188 381 119 354 q 329 403 242 403 l 486 403 q 613 363 576 403 q 650 267 650 324 q 646 226 650 247 l 639 186 q 612 131 635 158 q 543 99 589 104 q 600 42 589 90 q 606 -9 606 15 q 601 -54 606 -33 l 590 -125 q 508 -260 574 -233 q 450 -276 475 -274 q 376 -279 425 -279 l 221 -279 q 44 -140 44 -279 q 49 -96 44 -119 l 56 -47 q 151 42 67 31 m 256 -83 q 294 -108 256 -108 l 344 -108 q 388 -94 381 -108 q 392 -75 390 -87 l 397 -46 q 360 -12 403 -12 l 310 -12 q 274 -21 283 -12 q 263 -46 265 -29 l 257 -75 q 256 -83 256 -79 m 297 178 q 297 165 297 172 q 336 147 297 147 l 385 147 q 428 160 422 147 q 432 178 431 165 l 436 199 q 438 214 438 206 q 397 232 438 232 l 349 232 q 315 226 325 232 q 301 199 306 221 l 297 178 z "},"₉":{"ha":608,"x_min":29,"x_max":601,"o":"m 271 -115 q 356 -86 338 -115 q 368 -56 365 -68 q 376 -14 371 -43 q 231 -36 333 -36 q 67 118 67 -36 q 72 176 67 144 l 83 254 q 148 376 96 343 q 286 408 200 408 q 300 408 293 408 l 424 406 q 601 160 601 406 q 588 2 601 92 q 552 -146 574 -87 q 500 -233 531 -204 q 443 -274 469 -262 q 275 -299 385 -299 q 29 -271 165 -299 l 54 -115 l 271 -115 m 272 178 q 269 156 269 164 q 272 142 269 149 q 300 136 275 136 l 400 136 q 404 181 404 161 q 394 214 404 201 q 339 226 385 226 l 319 226 q 287 219 296 226 q 275 192 278 213 l 272 178 z "},"€":{"ha":963,"x_min":63,"x_max":992,"o":"m 618 1028 q 807 1015 696 1028 q 992 972 918 1001 l 961 779 q 691 800 779 800 q 567 794 603 800 q 514 767 532 788 q 490 728 496 746 q 478 667 485 711 l 801 657 l 782 538 l 456 528 l 447 471 l 771 461 l 751 340 q 565 336 707 340 q 425 331 424 332 q 422 299 422 314 q 428 264 422 283 q 444 232 433 244 q 481 214 456 219 q 569 206 513 206 q 831 233 671 206 l 882 243 l 851 54 q 688 4 779 17 q 505 -8 597 -8 q 376 -3 413 -8 q 289 22 339 1 q 207 76 239 42 q 162 160 175 110 q 149 251 149 211 q 156 331 149 290 l 63 340 l 82 461 l 178 471 l 186 528 l 94 539 l 113 654 l 208 667 q 618 1028 264 1028 z "},"ℓ":{"ha":726,"x_min":79,"x_max":806,"o":"m 588 1026 q 756 956 689 1026 q 806 813 806 904 q 797 730 806 782 q 746 612 789 678 q 640 494 703 546 q 426 353 531 407 l 426 347 q 421 271 421 301 q 455 213 421 240 q 560 174 489 185 q 640 158 631 158 l 615 1 l 368 1 q 193 53 261 1 q 136 190 136 97 q 142 257 136 207 q 90 229 126 247 l 79 358 q 169 436 111 383 l 224 767 q 588 1026 264 1026 m 582 764 q 588 792 588 776 q 571 817 588 808 q 540 826 554 826 q 515 810 526 826 q 500 776 503 794 l 467 606 q 582 764 551 689 z "},"№":{"ha":1588,"x_min":56,"x_max":1688,"o":"m 350 1013 q 490 1040 421 1040 q 624 1011 558 1040 q 747 836 747 958 q 747 824 747 831 l 717 253 q 729 236 715 235 q 750 257 746 240 l 835 785 q 927 962 854 907 q 1104 1019 1000 1017 l 1519 1019 q 1664 964 1628 1019 q 1686 876 1686 931 q 1678 768 1686 822 q 1612 583 1656 631 q 1446 529 1568 535 l 1410 529 q 1244 561 1285 533 q 1193 639 1203 590 q 1188 707 1188 667 q 1196 799 1188 747 l 1393 799 q 1386 742 1386 754 q 1386 725 1386 729 q 1415 713 1390 713 l 1435 713 q 1468 720 1461 713 q 1480 759 1475 728 q 1485 803 1485 790 q 1480 824 1485 815 q 1417 833 1475 832 q 1283 833 1360 833 q 1178 830 1207 833 q 1126 806 1149 826 q 1096 738 1103 785 l 1011 201 q 967 100 1003 144 q 769 0 901 22 q 713 -6 742 -6 q 640 4 683 -6 q 478 115 522 31 q 456 213 456 158 q 456 231 456 222 l 486 790 q 470 803 488 807 q 450 781 453 799 l 326 0 l 56 0 l 185 818 q 350 1013 207 957 z "},"™":{"ha":864,"x_min":42,"x_max":960,"o":"m 42 886 l 63 1017 l 478 1017 l 457 886 l 329 886 l 274 532 l 115 532 l 171 886 l 42 886 m 400 532 l 542 1017 l 710 1017 l 711 782 l 786 1017 l 960 1017 l 954 532 l 796 532 l 806 768 l 750 532 l 607 532 l 615 765 l 558 532 l 400 532 z "},"℮":{"ha":929,"x_min":47,"x_max":883,"o":"m 883 358 q 206 358 544 358 q 201 343 201 358 l 201 158 q 280 76 201 124 q 450 29 358 29 q 613 62 542 29 q 731 146 685 94 l 808 146 q 649 31 728 61 q 465 0 571 0 q 160 105 274 0 q 47 368 47 210 q 164 636 47 526 q 458 740 281 740 q 756 648 636 740 q 883 358 875 556 m 201 394 q 214 382 201 382 l 710 382 q 719 382 714 382 q 728 392 728 388 l 728 576 q 640 667 728 621 q 474 714 553 714 q 331 688 394 714 q 234 632 267 661 q 201 585 201 603 l 201 394 z "},"∂":{"ha":868,"x_min":88,"x_max":901,"o":"m 631 656 q 529 786 631 786 q 376 765 454 786 q 250 715 299 743 l 250 919 q 567 1028 432 1028 q 783 953 703 1028 q 900 628 900 844 q 889 482 900 558 q 738 113 849 232 q 408 -7 626 -7 q 165 89 263 -7 q 88 282 88 167 q 93 343 88 311 q 214 570 117 494 q 457 646 311 646 q 564 626 517 646 q 622 567 611 607 q 631 656 631 617 m 361 319 q 360 290 360 310 q 381 251 360 271 q 450 231 403 231 q 529 283 497 231 q 569 386 561 336 q 478 408 533 408 q 361 319 375 408 z "},"∆":{"ha":981,"x_min":15,"x_max":965,"o":"m 15 0 l 608 1017 l 711 1017 l 965 0 l 15 0 m 407 228 l 715 228 l 617 599 l 407 228 z "},"∏":{"ha":911,"x_min":107,"x_max":1057,"o":"m 107 0 l 229 775 l 138 775 l 176 1017 l 1057 1017 l 1018 775 l 925 775 l 803 0 l 533 0 l 656 775 l 499 775 l 376 0 l 107 0 z "},"∑":{"ha":778,"x_min":-12,"x_max":924,"o":"m -12 -278 l 26 -32 l 388 375 l 154 775 l 193 1017 l 924 1017 l 885 775 l 478 775 l 718 375 l 379 -32 l 757 -32 l 718 -278 l -12 -278 z "},"−":{"ha":633,"x_min":103,"x_max":714,"o":"m 103 388 l 136 601 l 714 601 l 681 388 l 103 388 z "},"√":{"ha":951,"x_min":60,"x_max":1111,"o":"m 60 283 l 99 525 l 363 525 l 401 365 l 815 1111 l 1111 1111 l 499 0 l 231 0 l 132 283 l 60 283 z "},"∞":{"ha":911,"x_min":50,"x_max":1017,"o":"m 324 714 q 453 685 401 714 q 544 593 506 657 q 815 714 632 714 q 929 689 883 714 q 992 625 975 664 q 1015 520 1015 565 q 1008 446 1015 475 q 928 290 992 344 q 739 235 865 235 q 604 258 661 235 q 504 354 547 282 q 390 258 446 281 q 249 235 333 235 q 115 276 164 235 q 56 375 67 318 q 50 435 50 403 q 131 658 50 582 q 324 714 190 714 m 308 543 q 291 543 308 543 q 260 526 274 543 q 242 486 246 508 q 239 449 239 464 q 248 420 239 435 q 293 406 257 406 q 406 474 349 406 q 367 522 392 501 q 308 543 343 543 m 651 472 q 746 406 685 406 q 825 496 825 406 q 817 528 825 514 q 768 543 808 543 q 651 472 708 543 z "},"∫":{"ha":617,"x_min":-24,"x_max":771,"o":"m 58 -83 q 156 -15 128 -83 q 192 122 179 39 l 283 703 q 390 999 313 888 q 583 1111 467 1111 q 758 1083 693 1111 q 771 1076 769 1078 l 744 911 l 692 911 q 598 860 626 911 q 553 703 569 810 l 461 122 q 359 -181 431 -78 q 167 -283 288 -283 q -24 -249 24 -283 l 3 -83 l 58 -83 z "},"≈":{"ha":683,"x_min":97,"x_max":742,"o":"m 317 471 q 416 445 358 471 q 515 419 474 419 q 682 474 593 419 l 701 364 q 488 260 592 260 q 396 286 458 260 q 295 313 333 313 q 229 304 257 313 q 167 281 201 296 q 108 260 132 267 l 97 372 q 317 471 214 471 m 357 726 q 457 701 399 726 q 560 675 515 675 q 639 687 604 675 q 722 729 674 699 l 742 619 q 528 515 632 515 q 436 542 499 515 q 335 568 374 568 q 269 560 297 568 q 207 537 242 551 q 149 515 172 522 l 138 628 q 357 726 254 726 z "},"≠":{"ha":753,"x_min":156,"x_max":831,"o":"m 156 225 l 189 439 l 401 439 l 468 529 l 204 529 l 238 743 l 622 743 l 682 824 l 794 824 l 735 743 l 831 743 l 797 529 l 581 529 l 514 439 l 782 439 l 749 225 l 358 225 l 289 129 l 176 129 l 246 225 l 156 225 z "},"≤":{"ha":711,"x_min":108,"x_max":753,"o":"m 108 88 l 138 274 l 657 274 l 628 88 l 108 88 m 171 481 l 208 717 l 753 869 l 715 633 l 454 588 l 703 550 l 665 319 l 171 481 z "},"≥":{"ha":571,"x_min":51,"x_max":672,"o":"m 51 88 l 81 274 l 601 274 l 572 88 l 51 88 m 88 319 l 125 556 l 390 611 l 138 639 l 175 869 l 672 717 l 635 481 l 88 319 z "},"◊":{"ha":700,"x_min":97,"x_max":767,"o":"m 97 518 l 464 1017 l 567 1017 l 767 518 l 406 0 l 303 0 l 97 518 m 333 508 l 396 335 l 538 528 l 471 686 l 333 508 z "},"ﬀ":{"ha":1119,"x_min":101,"x_max":1272,"o":"m 288 861 q 367 1013 301 947 q 553 1078 433 1078 q 738 1044 672 1078 l 713 889 l 626 890 q 622 890 624 890 q 569 868 582 890 q 546 788 556 846 l 538 738 l 786 738 l 808 875 q 897 1044 828 996 q 1090 1092 967 1092 q 1272 1058 1213 1092 l 1247 904 l 1146 906 q 1140 906 1143 906 q 1088 888 1100 906 q 1072 838 1076 869 q 1067 806 1067 807 q 1064 792 1064 799 l 1056 738 l 1192 738 l 1163 551 l 1026 551 l 939 0 l 669 0 l 757 551 l 506 551 l 418 0 l 149 0 l 236 551 l 101 551 l 128 714 l 268 738 l 288 861 z "},"ﬁ":{"ha":854,"x_min":47,"x_max":926,"o":"m 558 1092 q 612 1092 569 1092 q 774 1084 654 1092 q 926 1058 893 1076 l 901 904 l 633 906 q 476 839 519 906 q 450 764 457 810 l 446 738 l 911 724 l 796 0 l 526 0 l 614 551 l 417 551 l 329 0 l 60 0 l 147 551 l 47 551 l 74 714 l 176 738 l 194 819 q 310 1017 214 946 q 558 1092 406 1088 z "},"ﬂ":{"ha":958,"x_min":101,"x_max":1044,"o":"m 922 318 q 918 256 918 278 q 923 217 918 233 q 953 186 928 201 q 1017 157 1007 157 l 992 0 l 842 0 q 678 63 733 0 q 638 190 638 107 q 644 263 638 224 l 746 904 l 618 906 q 540 881 565 906 q 506 792 515 856 l 500 738 l 636 738 l 607 551 l 471 551 l 383 0 l 114 0 l 201 551 l 101 551 l 128 714 l 231 738 l 244 806 q 383 1046 272 989 q 489 1083 438 1074 q 613 1092 540 1092 l 1044 1088 l 922 318 z "},"ﬃ":{"ha":1439,"x_min":101,"x_max":1522,"o":"m 288 861 q 367 1013 301 947 q 553 1078 433 1078 q 738 1044 672 1078 l 713 889 l 626 890 q 590 886 604 890 q 567 863 576 882 q 544 788 556 836 l 536 738 l 774 738 l 779 778 q 903 997 800 908 q 1178 1092 1011 1092 q 1369 1084 1250 1092 q 1522 1058 1489 1076 l 1499 904 l 1231 906 q 1074 839 1117 906 q 1047 764 1054 810 l 1043 738 l 1507 724 l 1393 0 l 1124 0 l 1211 551 l 1014 551 l 926 0 l 657 0 l 744 551 l 507 551 l 419 0 l 149 0 l 236 551 l 101 551 l 128 714 l 268 738 l 288 861 z "},"ﬄ":{"ha":1554,"x_min":101,"x_max":1593,"o":"m 288 861 q 367 1013 301 947 q 553 1078 433 1078 q 738 1044 672 1078 l 713 889 l 626 890 q 621 890 624 890 q 569 869 582 890 q 544 788 556 847 l 536 738 l 781 738 l 789 792 q 922 1039 817 976 q 1026 1081 974 1069 q 1147 1092 1078 1092 l 1593 1088 l 1472 318 q 1468 256 1468 278 q 1473 217 1468 233 q 1503 186 1478 201 q 1565 157 1556 157 l 1540 0 l 1390 0 q 1226 63 1282 0 q 1186 190 1186 107 q 1193 263 1186 224 l 1296 904 l 1168 906 q 1093 881 1117 906 q 1058 792 1069 857 l 1050 738 l 1186 738 l 1156 551 l 1019 551 l 932 0 l 663 0 l 750 551 l 507 551 l 419 0 l 149 0 l 236 551 l 101 551 l 128 714 l 268 738 l 288 861 z "},"ﬆ":{"ha":1235,"x_min":68,"x_max":1335,"o":"m 496 -7 l 447 -7 q 68 44 106 -7 l 93 203 l 414 203 q 444 226 440 203 q 422 258 451 258 l 290 258 q 142 325 192 258 q 104 446 104 374 q 108 497 104 471 l 115 561 q 185 692 124 647 q 353 738 246 738 l 942 738 l 1013 943 l 1243 943 l 1211 738 l 1335 738 l 1304 551 l 1181 551 l 1144 318 q 1140 253 1140 276 q 1145 213 1140 229 q 1174 183 1150 197 q 1236 154 1226 154 l 1211 -3 l 1044 -3 q 897 61 951 -3 q 860 192 860 108 q 865 263 860 225 l 910 536 l 415 536 q 389 531 394 536 q 381 510 383 525 q 379 490 378 494 q 386 483 381 485 q 407 481 394 481 l 546 481 q 694 414 654 481 q 722 303 722 365 q 718 253 722 279 l 710 171 q 496 -7 690 -7 z "}}}
